<?xml version="1.0" encoding="UTF-8" ?>
<svg version="1.1" width="32" height="32" xmlns="http://www.w3.org/2000/svg" shape-rendering="crispEdges">
<rect x="3" y="2" width="2" height="1" fill="#000000" />
<rect x="8" y="2" width="2" height="1" fill="#000000" />
<rect x="2" y="3" width="1" height="2" fill="#000000" />
<rect x="3" y="3" width="2" height="2" fill="#D21F43" />
<rect x="5" y="3" width="1" height="1" fill="#000000" />
<rect x="7" y="3" width="1" height="1" fill="#000000" />
<rect x="8" y="3" width="1" height="1" fill="#D21F43" />
<rect x="9" y="3" width="1" height="1" fill="#F9DFE4" />
<rect x="10" y="3" width="1" height="2" fill="#000000" />
<rect x="5" y="4" width="1" height="3" fill="#D21F43" />
<rect x="6" y="4" width="1" height="1" fill="#000000" />
<rect x="7" y="4" width="1" height="3" fill="#D21F43" />
<rect x="8" y="4" width="1" height="1" fill="#F9DFE4" />
<rect x="9" y="4" width="1" height="1" fill="#D21F43" />
<rect x="3" y="5" width="1" height="1" fill="#000000" />
<rect x="4" y="5" width="1" height="1" fill="#D21F43" />
<rect x="6" y="5" width="1" height="3" fill="#D21F43" />
<rect x="8" y="5" width="1" height="1" fill="#D21F43" />
<rect x="9" y="5" width="1" height="1" fill="#000000" />
<rect x="4" y="6" width="1" height="1" fill="#000000" />
<rect x="8" y="6" width="1" height="1" fill="#000000" />
<rect x="5" y="7" width="1" height="1" fill="#000000" />
<rect x="7" y="7" width="1" height="1" fill="#000000" />
<rect x="6" y="8" width="1" height="1" fill="#000000" />
<rect x="3" y="10" width="2" height="1" fill="#3A9AE0" />
<rect x="6" y="10" width="1" height="1" fill="#000000" />
<rect x="2" y="11" width="1" height="2" fill="#3A9AE0" />
<rect x="3" y="11" width="2" height="1" fill="#6EC6F5" />
<rect x="5" y="11" width="1" height="1" fill="#000000" />
<rect x="6" y="11" width="1" height="1" fill="#F9DFE4" />
<rect x="7" y="11" width="1" height="3" fill="#000000" />
<rect x="26" y="11" width="4" height="1" fill="#000000" />
<rect x="3" y="12" width="1" height="1" fill="#6EC6F5" />
<rect x="4" y="12" width="1" height="1" fill="#000000" />
<rect x="5" y="12" width="1" height="1" fill="#F9DFE4" />
<rect x="6" y="12" width="1" height="3" fill="#CF8896" />
<rect x="25" y="12" width="1" height="1" fill="#000000" />
<rect x="26" y="12" width="2" height="1" fill="#F9DFE4" />
<rect x="28" y="12" width="2" height="1" fill="#CF8896" />
<rect x="30" y="12" width="1" height="1" fill="#000000" />
<rect x="1" y="13" width="1" height="1" fill="#3A9AE0" />
<rect x="2" y="13" width="1" height="1" fill="#6EC6F5" />
<rect x="3" y="13" width="1" height="2" fill="#000000" />
<rect x="4" y="13" width="1" height="1" fill="#F9DFE4" />
<rect x="5" y="13" width="1" height="1" fill="#CF8896" />
<rect x="12" y="13" width="8" height="1" fill="#000000" />
<rect x="24" y="13" width="1" height="2" fill="#000000" />
<rect x="25" y="13" width="1" height="2" fill="#F9DFE4" />
<rect x="26" y="13" width="1" height="1" fill="#A16A75" />
<rect x="27" y="13" width="2" height="1" fill="#000000" />
<rect x="29" y="13" width="1" height="1" fill="#A16A75" />
<rect x="30" y="13" width="1" height="1" fill="#CF8896" />
<rect x="31" y="13" width="1" height="6" fill="#000000" />
<rect x="4" y="14" width="2" height="1" fill="#A16A75" />
<rect x="7" y="14" width="1" height="2" fill="#CF8896" />
<rect x="8" y="14" width="1" height="1" fill="#000000" />
<rect x="11" y="14" width="1" height="3" fill="#000000" />
<rect x="12" y="14" width="4" height="1" fill="#F9DFE4" />
<rect x="16" y="14" width="4" height="14" fill="#CF8896" />
<rect x="20" y="14" width="2" height="1" fill="#000000" />
<rect x="26" y="14" width="1" height="7" fill="#000000" />
<rect x="29" y="14" width="1" height="4" fill="#000000" />
<rect x="30" y="14" width="1" height="4" fill="#A16A75" />
<rect x="1" y="15" width="1" height="1" fill="#3A9AE0" />
<rect x="2" y="15" width="1" height="1" fill="#6EC6F5" />
<rect x="4" y="15" width="2" height="1" fill="#000000" />
<rect x="6" y="15" width="1" height="1" fill="#A16A75" />
<rect x="8" y="15" width="1" height="2" fill="#CF8896" />
<rect x="9" y="15" width="1" height="1" fill="#000000" />
<rect x="12" y="15" width="1" height="1" fill="#F9DFE4" />
<rect x="13" y="15" width="3" height="13" fill="#CF8896" />
<rect x="20" y="15" width="2" height="13" fill="#CF8896" />
<rect x="22" y="15" width="2" height="1" fill="#000000" />
<rect x="24" y="15" width="1" height="1" fill="#F9DFE4" />
<rect x="25" y="15" width="1" height="7" fill="#A16A75" />
<rect x="6" y="16" width="1" height="1" fill="#000000" />
<rect x="7" y="16" width="1" height="1" fill="#A16A75" />
<rect x="9" y="16" width="1" height="2" fill="#CF8896" />
<rect x="10" y="16" width="1" height="1" fill="#000000" />
<rect x="12" y="16" width="1" height="12" fill="#CF8896" />
<rect x="22" y="16" width="3" height="11" fill="#CF8896" />
<rect x="1" y="17" width="1" height="1" fill="#3A9AE0" />
<rect x="2" y="17" width="1" height="1" fill="#6EC6F5" />
<rect x="7" y="17" width="1" height="1" fill="#000000" />
<rect x="8" y="17" width="1" height="1" fill="#A16A75" />
<rect x="10" y="17" width="2" height="2" fill="#CF8896" />
<rect x="8" y="18" width="1" height="1" fill="#000000" />
<rect x="9" y="18" width="1" height="1" fill="#A16A75" />
<rect x="28" y="18" width="1" height="1" fill="#000000" />
<rect x="29" y="18" width="1" height="1" fill="#A16A75" />
<rect x="30" y="18" width="1" height="1" fill="#CF8896" />
<rect x="2" y="19" width="1" height="2" fill="#3A9AE0" />
<rect x="9" y="19" width="1" height="1" fill="#000000" />
<rect x="10" y="19" width="1" height="1" fill="#A16A75" />
<rect x="11" y="19" width="1" height="1" fill="#CF8896" />
<rect x="27" y="19" width="1" height="1" fill="#000000" />
<rect x="28" y="19" width="1" height="1" fill="#A16A75" />
<rect x="29" y="19" width="1" height="1" fill="#CF8896" />
<rect x="30" y="19" width="1" height="1" fill="#000000" />
<rect x="1" y="20" width="1" height="1" fill="#3A9AE0" />
<rect x="10" y="20" width="1" height="9" fill="#000000" />
<rect x="11" y="20" width="1" height="3" fill="#F9DFE4" />
<rect x="27" y="20" width="1" height="1" fill="#A16A75" />
<rect x="28" y="20" width="1" height="1" fill="#CF8896" />
<rect x="29" y="20" width="1" height="1" fill="#000000" />
<rect x="0" y="21" width="1" height="2" fill="#3A9AE0" />
<rect x="1" y="21" width="2" height="2" fill="#6EC6F5" />
<rect x="3" y="21" width="1" height="2" fill="#3A9AE0" />
<rect x="26" y="21" width="1" height="1" fill="#A16A75" />
<rect x="27" y="21" width="1" height="1" fill="#CF8896" />
<rect x="28" y="21" width="1" height="1" fill="#000000" />
<rect x="25" y="22" width="2" height="1" fill="#CF8896" />
<rect x="27" y="22" width="1" height="1" fill="#000000" />
<rect x="1" y="23" width="2" height="1" fill="#3A9AE0" />
<rect x="11" y="23" width="1" height="4" fill="#CF8896" />
<rect x="25" y="23" width="1" height="2" fill="#CF8896" />
<rect x="26" y="23" width="1" height="6" fill="#000000" />
<rect x="25" y="25" width="1" height="4" fill="#A16A75" />
<rect x="11" y="27" width="1" height="2" fill="#A16A75" />
<rect x="22" y="27" width="2" height="1" fill="#CF8896" />
<rect x="24" y="27" width="1" height="2" fill="#A16A75" />
<rect x="12" y="28" width="12" height="1" fill="#A16A75" />
<rect x="11" y="29" width="15" height="1" fill="#000000" />
</svg>