<?xml version="1.0" encoding="UTF-8" ?>
<svg version="1.1" width="32" height="32" xmlns="http://www.w3.org/2000/svg" shape-rendering="crispEdges">
<rect x="6" y="9" width="4" height="1" fill="#000000" />
<rect x="26" y="9" width="1" height="1" fill="#000000" />
<rect x="5" y="10" width="1" height="1" fill="#000000" />
<rect x="6" y="10" width="2" height="1" fill="#CF8896" />
<rect x="8" y="10" width="2" height="1" fill="#F9DFE4" />
<rect x="10" y="10" width="1" height="1" fill="#000000" />
<rect x="25" y="10" width="1" height="3" fill="#000000" />
<rect x="26" y="10" width="1" height="1" fill="#F9DFE4" />
<rect x="27" y="10" width="1" height="1" fill="#000000" />
<rect x="4" y="11" width="1" height="6" fill="#000000" />
<rect x="5" y="11" width="1" height="1" fill="#CF8896" />
<rect x="6" y="11" width="1" height="1" fill="#A16A75" />
<rect x="7" y="11" width="2" height="1" fill="#000000" />
<rect x="9" y="11" width="1" height="1" fill="#A16A75" />
<rect x="10" y="11" width="1" height="1" fill="#F9DFE4" />
<rect x="11" y="11" width="1" height="1" fill="#000000" />
<rect x="26" y="11" width="1" height="3" fill="#CF8896" />
<rect x="27" y="11" width="1" height="1" fill="#F9DFE4" />
<rect x="28" y="11" width="1" height="1" fill="#000000" />
<rect x="5" y="12" width="1" height="4" fill="#A16A75" />
<rect x="6" y="12" width="1" height="4" fill="#000000" />
<rect x="9" y="12" width="1" height="7" fill="#000000" />
<rect x="10" y="12" width="1" height="8" fill="#A16A75" />
<rect x="11" y="12" width="1" height="1" fill="#F9DFE4" />
<rect x="12" y="12" width="9" height="1" fill="#000000" />
<rect x="27" y="12" width="1" height="1" fill="#CF8896" />
<rect x="28" y="12" width="1" height="1" fill="#F9DFE4" />
<rect x="29" y="12" width="1" height="2" fill="#000000" />
<rect x="11" y="13" width="1" height="1" fill="#A16A75" />
<rect x="12" y="13" width="3" height="10" fill="#CF8896" />
<rect x="15" y="13" width="5" height="1" fill="#F9DFE4" />
<rect x="20" y="13" width="1" height="3" fill="#000000" />
<rect x="24" y="13" width="1" height="1" fill="#000000" />
<rect x="25" y="13" width="1" height="2" fill="#CF8896" />
<rect x="27" y="13" width="2" height="1" fill="#A16A75" />
<rect x="11" y="14" width="1" height="8" fill="#CF8896" />
<rect x="15" y="14" width="5" height="9" fill="#CF8896" />
<rect x="23" y="14" width="1" height="1" fill="#000000" />
<rect x="24" y="14" width="1" height="2" fill="#CF8896" />
<rect x="26" y="14" width="1" height="1" fill="#A16A75" />
<rect x="27" y="14" width="2" height="1" fill="#000000" />
<rect x="22" y="15" width="1" height="1" fill="#000000" />
<rect x="23" y="15" width="1" height="2" fill="#CF8896" />
<rect x="25" y="15" width="1" height="1" fill="#A16A75" />
<rect x="26" y="15" width="1" height="1" fill="#000000" />
<rect x="5" y="16" width="1" height="1" fill="#CF8896" />
<rect x="6" y="16" width="1" height="1" fill="#A16A75" />
<rect x="7" y="16" width="1" height="1" fill="#000000" />
<rect x="20" y="16" width="1" height="7" fill="#CF8896" />
<rect x="21" y="16" width="1" height="1" fill="#000000" />
<rect x="22" y="16" width="1" height="2" fill="#CF8896" />
<rect x="24" y="16" width="1" height="1" fill="#A16A75" />
<rect x="25" y="16" width="1" height="1" fill="#000000" />
<rect x="5" y="17" width="1" height="1" fill="#000000" />
<rect x="6" y="17" width="1" height="1" fill="#CF8896" />
<rect x="7" y="17" width="1" height="1" fill="#A16A75" />
<rect x="8" y="17" width="1" height="1" fill="#000000" />
<rect x="21" y="17" width="1" height="2" fill="#CF8896" />
<rect x="23" y="17" width="1" height="1" fill="#A16A75" />
<rect x="24" y="17" width="1" height="1" fill="#000000" />
<rect x="6" y="18" width="1" height="1" fill="#000000" />
<rect x="7" y="18" width="1" height="1" fill="#CF8896" />
<rect x="8" y="18" width="1" height="1" fill="#A16A75" />
<rect x="22" y="18" width="1" height="1" fill="#A16A75" />
<rect x="23" y="18" width="1" height="1" fill="#000000" />
<rect x="7" y="19" width="1" height="1" fill="#000000" />
<rect x="8" y="19" width="1" height="1" fill="#CF8896" />
<rect x="9" y="19" width="1" height="1" fill="#A16A75" />
<rect x="21" y="19" width="1" height="2" fill="#A16A75" />
<rect x="22" y="19" width="1" height="2" fill="#000000" />
<rect x="8" y="20" width="1" height="1" fill="#000000" />
<rect x="9" y="20" width="2" height="1" fill="#CF8896" />
<rect x="9" y="21" width="1" height="3" fill="#000000" />
<rect x="10" y="21" width="1" height="3" fill="#A16A75" />
<rect x="21" y="21" width="1" height="3" fill="#000000" />
<rect x="11" y="22" width="1" height="2" fill="#A16A75" />
<rect x="12" y="23" width="9" height="1" fill="#A16A75" />
<rect x="10" y="24" width="11" height="1" fill="#000000" />
</svg>