<svg xmlns="http://www.w3.org/2000/svg" xmlns:xlink="http://www.w3.org/1999/xlink" width="2000" zoomAndPan="magnify" viewBox="0 0 1500 938.249976" height="1251" preserveAspectRatio="xMidYMid meet" version="1.0"><defs><clipPath id="ad47c3c071"><path d="M 617.4375 394.285156 L 1499.398438 394.285156 L 1499.398438 665.78125 L 617.4375 665.78125 Z M 617.4375 394.285156 " clip-rule="nonzero"/></clipPath><clipPath id="cbbb3461f1"><path d="M 0.4375 0.285156 L 882.398438 0.285156 L 882.398438 271.78125 L 0.4375 271.78125 Z M 0.4375 0.285156 " clip-rule="nonzero"/></clipPath><clipPath id="572efd1f76"><rect x="0" width="883" y="0" height="272"/></clipPath><clipPath id="c6212e7470"><path d="M 481.671875 0 L 669.222656 0 L 669.222656 937.492188 L 481.671875 937.492188 Z M 481.671875 0 " clip-rule="nonzero"/></clipPath><clipPath id="865b558712"><path d="M 0.671875 0 L 188.222656 0 L 188.222656 937.492188 L 0.671875 937.492188 Z M 0.671875 0 " clip-rule="nonzero"/></clipPath><clipPath id="e3a2be36a0"><rect x="0" width="189" y="0" height="938"/></clipPath><clipPath id="0ce023c05c"><path d="M 294.121094 203.789062 L 514.878906 203.789062 L 514.878906 744.574219 L 294.121094 744.574219 Z M 294.121094 203.789062 " clip-rule="nonzero"/></clipPath><clipPath id="0d13a97b28"><path d="M 0.121094 0.789062 L 220.878906 0.789062 L 220.878906 541.574219 L 0.121094 541.574219 Z M 0.121094 0.789062 " clip-rule="nonzero"/></clipPath><clipPath id="bf53884119"><rect x="0" width="221" y="0" height="542"/></clipPath><clipPath id="1eed331a80"><path d="M 0.597656 394.285156 L 360.539062 394.285156 L 360.539062 549.433594 L 0.597656 549.433594 Z M 0.597656 394.285156 " clip-rule="nonzero"/></clipPath><clipPath id="f9f31b6a11"><path d="M 0.597656 0.285156 L 360.539062 0.285156 L 360.539062 155.433594 L 0.597656 155.433594 Z M 0.597656 0.285156 " clip-rule="nonzero"/></clipPath><clipPath id="1e0956624f"><rect x="0" width="361" y="0" height="156"/></clipPath></defs><g clip-path="url(#ad47c3c071)"><g transform="matrix(1, 0, 0, 1, 617, 394)"><g clip-path="url(#572efd1f76)"><g clip-path="url(#cbbb3461f1)"><path fill="#333333" d="M 0.4375 0.285156 L 882.808594 0.285156 L 882.808594 271.78125 L 0.4375 271.78125 Z M 0.4375 0.285156 " fill-opacity="1" fill-rule="nonzero"/></g></g></g></g><g clip-path="url(#c6212e7470)"><g transform="matrix(1, 0, 0, 1, 481, 0)"><g clip-path="url(#e3a2be36a0)"><g clip-path="url(#865b558712)"><path fill="#333333" d="M 0.671875 0 L 188.222656 0 L 188.222656 937.757812 L 0.671875 937.757812 Z M 0.671875 0 " fill-opacity="1" fill-rule="nonzero"/></g></g></g></g><g clip-path="url(#0ce023c05c)"><g transform="matrix(1, 0, 0, 1, 294, 203)"><g clip-path="url(#bf53884119)"><g clip-path="url(#0d13a97b28)"><path fill="#333333" d="M 0.121094 0.789062 L 220.878906 0.789062 L 220.878906 541.476562 L 0.121094 541.476562 Z M 0.121094 0.789062 " fill-opacity="1" fill-rule="nonzero"/></g></g></g></g><g clip-path="url(#1eed331a80)"><g transform="matrix(1, 0, 0, 1, 0, 394)"><g clip-path="url(#1e0956624f)"><g clip-path="url(#f9f31b6a11)"><path fill="#333333" d="M 0.597656 0.285156 L 360.59375 0.285156 L 360.59375 155.433594 L 0.597656 155.433594 Z M 0.597656 0.285156 " fill-opacity="1" fill-rule="nonzero"/></g></g></g></g></svg>