<svg width="402" height="874" viewBox="0 0 402 874" fill="none" xmlns="http://www.w3.org/2000/svg">
<g clip-path="url(#clip0_320_949)">
<rect width="402" height="874" fill="url(#paint0_linear_320_949)"/>
<path d="M199.826 360.344L6.09412 362.1L4.92354 357.417L1.99709 355.661L-8.53816 352.15L-17.9028 345.711V336.347H16.6294L23.0676 343.37H34.7734V316.447L41.2116 309.423V246.212L33.0175 241.53V222.215L44.1381 225.141L47.6498 228.068L55.2586 230.994L59.3556 249.724L64.6233 254.991L67.5497 266.697L73.4026 272.55L83.3526 266.697V247.383L89.7908 241.53L92.132 220.459L99.1554 214.606L106.179 221.044L108.52 241.53L115.544 247.383V284.256L123.152 281.329L138.955 263.185L150.076 254.991L169.39 245.627V301.815H179.926L186.949 290.694L198.07 286.012L207.434 293.035L205.093 300.059L189.29 315.862L187.534 325.812L196.899 334.006H213.873L215.628 342.2L199.826 360.344Z" fill="#6AAA50"/>
<path d="M202.752 356.246H3.75287V364.44H202.752V356.246Z" fill="#4A7A30"/>
<path d="M210.946 348.052H202.752V356.246H210.946V348.052Z" fill="#4A7A30"/>
<path d="M219.14 311.764H210.946V348.052H219.14V311.764Z" fill="#4A7A30"/>
<path d="M10.7764 303.57H2.58228V331.664H10.7764V303.57Z" fill="#4A7A30"/>
<path d="M10.7764 303.57H2.58228V331.664H10.7764V303.57Z" fill="#4A7A30"/>
<path d="M37.6998 312.935H29.5057V348.052H37.6998V312.935Z" fill="#4A7A30"/>
<path d="M45.8938 243.87H37.6998V312.935H45.8938V243.87Z" fill="#4A7A30"/>
<path d="M37.6998 218.117H29.5057V243.87H37.6998V218.117Z" fill="#4A7A30"/>
<path d="M45.8938 218.117H37.6998V226.312H45.8938V218.117Z" fill="#4A7A30"/>
<path d="M54.0879 226.312H45.8938V234.506H54.0879V226.312Z" fill="#4A7A30"/>
<path d="M62.282 191.194H54.0879V252.064H62.282V191.194Z" fill="#4A7A30"/>
<path d="M70.4761 252.064H62.282V269.623H70.4761V252.064Z" fill="#4A7A30"/>
<path d="M78.6702 269.623H70.4761V295.376H78.6702V269.623Z" fill="#4A7A30"/>
<path d="M86.8642 243.87H78.6702V269.623H86.8642V243.87Z" fill="#4A7A30"/>
<path d="M95.0583 218.117H86.8642V243.87H95.0583V218.117Z" fill="#4A7A30"/>
<path d="M111.446 218.117H103.252V243.87H111.446V218.117Z" fill="#4A7A30"/>
<path d="M144.223 191.194H136.029V268.453H144.223V191.194Z" fill="#4A7A30"/>
<path d="M119.641 243.87H111.446V303.57H119.641V243.87Z" fill="#4A7A30"/>
<path d="M103.252 209.923H95.0583V218.117H103.252V209.923Z" fill="#4A7A30"/>
<path d="M119.641 209.923H111.446V218.117H119.641V209.923Z" fill="#4A7A30"/>
<path d="M136.029 268.453H127.835V276.647H136.029V268.453Z" fill="#4A7A30"/>
<path d="M127.835 276.647H119.641V284.841H127.835V276.647Z" fill="#4A7A30"/>
<path d="M136.029 183H127.835V191.194H136.029V183Z" fill="#4A7A30"/>
<path d="M127.835 191.194H119.641V209.923H127.835V191.194Z" fill="#4A7A30"/>
<path d="M86.8642 209.923H78.6702V218.117H86.8642V209.923Z" fill="#4A7A30"/>
<path d="M78.6702 191.194H70.4761V209.923H78.6702V191.194Z" fill="#4A7A30"/>
<path d="M70.4761 183H62.282V191.194H70.4761V183Z" fill="#4A7A30"/>
<path d="M2.58228 277.817H-5.61179V303.57H2.58228V277.817Z" fill="#4A7A30"/>
<path d="M-5.61179 269.623H-13.8059V277.817H-5.61179V269.623Z" fill="#4A7A30"/>
<path d="M-13.8059 243.87H-21.9999V269.623H-13.8059V243.87Z" fill="#4A7A30"/>
<path d="M-5.61179 243.87H-13.8059V252.064H-5.61179V243.87Z" fill="#4A7A30"/>
<path d="M2.58228 252.064H-5.61179V260.258H2.58228V252.064Z" fill="#4A7A30"/>
<path d="M10.7764 260.258H2.58228V268.453H10.7764V260.258Z" fill="#4A7A30"/>
<path d="M18.9704 268.453H10.7764V276.647H18.9704V268.453Z" fill="#4A7A30"/>
<path d="M27.1645 276.647H18.9704V284.841H27.1645V276.647Z" fill="#4A7A30"/>
<path d="M37.6998 284.841H27.1645V293.035H37.6998V284.841Z" fill="#4A7A30"/>
<path d="M227.334 294.205H219.14V311.764H227.334V294.205Z" fill="#4A7A30"/>
<path d="M235.528 276.647H227.334V294.205H235.528V276.647Z" fill="#4A7A30"/>
<path d="M243.722 260.258H235.528V276.647H243.722V260.258Z" fill="#4A7A30"/>
<path d="M251.916 250.894H243.722V260.258H251.916V250.894Z" fill="#4A7A30"/>
<path d="M262.452 241.529H236.699V250.894H262.452V241.529Z" fill="#4A7A30"/>
<path d="M236.699 250.894H219.14V260.258H236.699V250.894Z" fill="#4A7A30"/>
<path d="M219.14 260.258H201.581V269.623H219.14V260.258Z" fill="#4A7A30"/>
<path d="M201.581 269.623H184.023V278.988H201.581V269.623Z" fill="#4A7A30"/>
<path d="M184.023 278.988H174.658V288.352H184.023V278.988Z" fill="#4A7A30"/>
<path d="M165.293 242.7H155.929V252.064H165.293V242.7Z" fill="#4A7A30"/>
<path d="M155.929 252.064H143.052V261.429H155.929V252.064Z" fill="#4A7A30"/>
<path d="M174.658 234.506H165.293V297.717H174.658V234.506Z" fill="#4A7A30"/>
<path d="M201.581 278.988H192.217V288.352H201.581V278.988Z" fill="#4A7A30"/>
<path d="M192.217 288.352H182.852V297.717H192.217V288.352Z" fill="#4A7A30"/>
<path d="M201.581 303.57H192.217V312.935H201.581V303.57Z" fill="#4A7A30"/>
<path d="M182.852 329.323H173.487V338.688H182.852V329.323Z" fill="#4A7A30"/>
<path d="M228.505 329.323H192.217V338.688H228.505V329.323Z" fill="#4A7A30"/>
<path d="M182.852 297.717H165.293V307.082H182.852V297.717Z" fill="#4A7A30"/>
<path d="M165.293 307.082H155.929V316.446H165.293V307.082Z" fill="#4A7A30"/>
<path d="M210.946 288.352H201.581V303.57H210.946V288.352Z" fill="#4A7A30"/>
<path d="M192.217 312.935H182.852V329.323H192.217V312.935Z" fill="#4A7A30"/>
<path d="M3.75287 348.052H-13.8059V356.246H3.75287V348.052Z" fill="#4A7A30"/>
<path d="M29.5057 339.858H20.141V348.052H29.5057V339.858Z" fill="#4A7A30"/>
<path d="M20.141 331.664H-13.8059V339.858H20.141V331.664Z" fill="#4A7A30"/>
<path d="M-13.8059 331.664H-21.9999V348.052H-13.8059V331.664Z" fill="#4A7A30"/>
<path d="M215.628 315.861L214.458 334.005L196.899 332.249L186.364 326.982L188.12 315.861L199.24 308.838L205.679 292.449L196.899 284.841L186.364 292.449L180.511 300.643L168.805 301.814V290.694L180.511 281.329L196.899 272.549L214.458 262.6L228.505 256.747L239.625 247.967L246.649 245.041V253.235L239.625 269.623L232.602 279.573L230.846 288.352L224.993 297.717L222.652 306.496L215.628 315.861Z" fill="#4A7A30"/>
<path d="M6.67938 307.667V333.42L16.044 335.761L22.4823 342.785H32.4322L33.6028 315.861L41.2116 310.594L40.6263 291.279L32.4322 290.109L-8.53819 248.553L-17.3176 246.212L-16.147 266.697L-8.53819 276.062L0.24118 281.329V301.229L6.67938 307.667Z" fill="#4A7A30"/>
<path d="M132.517 271.379L124.908 280.159L116.714 282.5L113.202 245.041L107.935 241.529V221.044L117.885 212.265L121.396 206.997L126.664 191.78L132.517 189.438L139.541 192.95L138.37 266.697L132.517 271.379Z" fill="#4A7A30"/>
<path d="M81.5967 266.697L76.9143 271.379L73.4026 271.965L68.7203 268.453L64.6232 255.576L58.7703 248.553L60.5262 192.95L64.0379 189.438H68.7203L73.9879 194.121L76.9143 208.168L89.7908 221.044V242.115L84.5231 245.041L81.5967 266.697Z" fill="#4A7A30"/>
<rect y="438" width="402" height="63" fill="#FFDA71"/>
<rect y="364" width="403" height="35" fill="#F7C948"/>
<rect y="387" width="402" height="51" fill="#F7C948"/>
<rect x="54" y="458" width="307" height="14" fill="#F7C948"/>
<rect x="114" y="482" width="148" height="12" fill="#F7C948"/>
<rect x="4" y="443" width="148" height="12" fill="#FFDA71"/>
<rect x="171" y="476" width="226" height="12" fill="#FFDA71"/>
<rect x="25" y="419" width="365" height="29" fill="#FFDA71"/>
<path d="M190.626 404.344L384.357 406.1L385.528 401.417L388.454 399.661L398.99 396.15L408.354 389.711V380.347H373.822L367.384 387.37H355.678V360.447L349.24 353.423V290.212L357.434 285.53V266.215L346.313 269.141L342.802 272.068L335.193 274.994L331.096 293.724L325.828 298.991L322.902 310.697L317.049 316.55L307.099 310.697V291.383L300.661 285.53L298.32 264.459L291.296 258.606L284.273 265.044L281.931 285.53L274.908 291.383V328.256L267.299 325.329L251.496 307.185L240.376 298.991L221.061 289.627V345.815H210.526L203.502 334.694L192.382 330.012L183.017 337.035L185.358 344.059L201.161 359.862L202.917 369.812L193.552 378.006H176.579L174.823 386.2L190.626 404.344Z" fill="#6AAA50"/>
<path d="M187.7 400.246H386.699V408.44H187.7V400.246Z" fill="#4A7A30"/>
<path d="M179.506 392.052H187.7V400.246H179.506V392.052Z" fill="#4A7A30"/>
<path d="M171.312 355.764H179.506V392.052H171.312V355.764Z" fill="#4A7A30"/>
<path d="M379.675 347.57H387.869V375.664H379.675V347.57Z" fill="#4A7A30"/>
<path d="M379.675 347.57H387.869V375.664H379.675V347.57Z" fill="#4A7A30"/>
<path d="M352.752 356.935H360.946V392.052H352.752V356.935Z" fill="#4A7A30"/>
<path d="M344.558 287.87H352.752V356.935H344.558V287.87Z" fill="#4A7A30"/>
<path d="M352.752 262.117H360.946V287.87H352.752V262.117Z" fill="#4A7A30"/>
<path d="M344.558 262.117H352.752V270.312H344.558V262.117Z" fill="#4A7A30"/>
<path d="M336.364 270.312H344.558V278.506H336.364V270.312Z" fill="#4A7A30"/>
<path d="M328.17 235.194H336.364V296.064H328.17V235.194Z" fill="#4A7A30"/>
<path d="M319.976 296.064H328.17V313.623H319.976V296.064Z" fill="#4A7A30"/>
<path d="M311.781 313.623H319.976V339.376H311.781V313.623Z" fill="#4A7A30"/>
<path d="M303.587 287.87H311.781V313.623H303.587V287.87Z" fill="#4A7A30"/>
<path d="M295.393 262.117H303.587V287.87H295.393V262.117Z" fill="#4A7A30"/>
<path d="M279.005 262.117H287.199V287.87H279.005V262.117Z" fill="#4A7A30"/>
<path d="M246.229 235.194H254.423V312.453H246.229V235.194Z" fill="#4A7A30"/>
<path d="M270.811 287.87H279.005V347.57H270.811V287.87Z" fill="#4A7A30"/>
<path d="M287.199 253.923H295.393V262.117H287.199V253.923Z" fill="#4A7A30"/>
<path d="M270.811 253.923H279.005V262.117H270.811V253.923Z" fill="#4A7A30"/>
<path d="M254.423 312.453H262.617V320.647H254.423V312.453Z" fill="#4A7A30"/>
<path d="M262.617 320.647H270.811V328.841H262.617V320.647Z" fill="#4A7A30"/>
<path d="M254.423 227H262.617V235.194H254.423V227Z" fill="#4A7A30"/>
<path d="M262.617 235.194H270.811V253.923H262.617V235.194Z" fill="#4A7A30"/>
<path d="M303.587 253.923H311.781V262.117H303.587V253.923Z" fill="#4A7A30"/>
<path d="M311.781 235.194H319.976V253.923H311.781V235.194Z" fill="#4A7A30"/>
<path d="M319.976 227H328.17V235.194H319.976V227Z" fill="#4A7A30"/>
<path d="M387.869 321.817H396.063V347.57H387.869V321.817Z" fill="#4A7A30"/>
<path d="M396.063 313.623H404.258V321.817H396.063V313.623Z" fill="#4A7A30"/>
<path d="M404.258 287.87H412.452V313.623H404.258V287.87Z" fill="#4A7A30"/>
<path d="M396.063 287.87H404.258V296.064H396.063V287.87Z" fill="#4A7A30"/>
<path d="M387.869 296.064H396.063V304.258H387.869V296.064Z" fill="#4A7A30"/>
<path d="M379.675 304.258H387.869V312.453H379.675V304.258Z" fill="#4A7A30"/>
<path d="M371.481 312.453H379.675V320.647H371.481V312.453Z" fill="#4A7A30"/>
<path d="M363.287 320.647H371.481V328.841H363.287V320.647Z" fill="#4A7A30"/>
<path d="M352.752 328.841H363.287V337.035H352.752V328.841Z" fill="#4A7A30"/>
<path d="M163.117 338.205H171.312V355.764H163.117V338.205Z" fill="#4A7A30"/>
<path d="M154.923 320.647H163.117V338.205H154.923V320.647Z" fill="#4A7A30"/>
<path d="M146.729 304.258H154.923V320.647H146.729V304.258Z" fill="#4A7A30"/>
<path d="M138.535 294.894H146.729V304.258H138.535V294.894Z" fill="#4A7A30"/>
<path d="M128 285.529H153.753V294.894H128V285.529Z" fill="#4A7A30"/>
<path d="M153.753 294.894H171.312V304.258H153.753V294.894Z" fill="#4A7A30"/>
<path d="M171.312 304.258H188.87V313.623H171.312V304.258Z" fill="#4A7A30"/>
<path d="M188.87 313.623H206.429V322.988H188.87V313.623Z" fill="#4A7A30"/>
<path d="M206.429 322.988H215.794V332.352H206.429V322.988Z" fill="#4A7A30"/>
<path d="M225.158 286.7H234.523V296.064H225.158V286.7Z" fill="#4A7A30"/>
<path d="M234.523 296.064H247.399V305.429H234.523V296.064Z" fill="#4A7A30"/>
<path d="M215.794 278.506H225.158V341.717H215.794V278.506Z" fill="#4A7A30"/>
<path d="M188.87 322.988H198.235V332.352H188.87V322.988Z" fill="#4A7A30"/>
<path d="M198.235 332.352H207.6V341.717H198.235V332.352Z" fill="#4A7A30"/>
<path d="M188.87 347.57H198.235V356.935H188.87V347.57Z" fill="#4A7A30"/>
<path d="M207.6 373.323H216.964V382.688H207.6V373.323Z" fill="#4A7A30"/>
<path d="M161.947 373.323H198.235V382.688H161.947V373.323Z" fill="#4A7A30"/>
<path d="M207.6 341.717H225.158V351.082H207.6V341.717Z" fill="#4A7A30"/>
<path d="M225.158 351.082H234.523V360.446H225.158V351.082Z" fill="#4A7A30"/>
<path d="M179.506 332.352H188.87V347.57H179.506V332.352Z" fill="#4A7A30"/>
<path d="M198.235 356.935H207.6V373.323H198.235V356.935Z" fill="#4A7A30"/>
<path d="M386.699 392.052H404.258V400.246H386.699V392.052Z" fill="#4A7A30"/>
<path d="M360.946 383.858H370.311V392.052H360.946V383.858Z" fill="#4A7A30"/>
<path d="M370.311 375.664H404.258V383.858H370.311V375.664Z" fill="#4A7A30"/>
<path d="M404.258 375.664H412.452V392.052H404.258V375.664Z" fill="#4A7A30"/>
<path d="M174.823 359.861L175.994 378.005L193.552 376.249L204.088 370.982L202.332 359.861L191.211 352.838L184.773 336.449L193.552 328.841L204.088 336.449L209.941 344.643L221.646 345.814V334.694L209.941 325.329L193.552 316.549L175.994 306.6L161.947 300.747L150.826 291.967L143.803 289.041V297.235L150.826 313.623L157.85 323.573L159.606 332.352L165.459 341.717L167.8 350.496L174.823 359.861Z" fill="#4A7A30"/>
<path d="M383.772 351.667V377.42L374.408 379.761L367.969 386.785H358.019L356.849 359.861L349.24 354.594L349.825 335.279L358.019 334.109L398.99 292.553L407.769 290.212L406.599 310.697L398.99 320.062L390.21 325.329V345.229L383.772 351.667Z" fill="#4A7A30"/>
<path d="M257.935 315.379L265.543 324.159L273.737 326.5L277.249 289.041L282.517 285.529V265.044L272.567 256.265L269.055 250.997L263.788 235.78L257.935 233.438L250.911 236.95L252.082 310.697L257.935 315.379Z" fill="#4A7A30"/>
<path d="M308.855 310.697L313.537 315.379L317.049 315.965L321.731 312.453L325.828 299.576L331.681 292.553L329.925 236.95L326.414 233.438H321.731L316.464 238.121L313.537 252.168L300.661 265.044V286.115L305.929 289.041L308.855 310.697Z" fill="#4A7A30"/>
<path d="M319.323 397.195L425.499 398.157L426.141 395.591L427.745 394.629L433.519 392.704L438.651 389.176V384.043H419.725L416.197 387.893H409.781V373.137L406.253 369.288V334.644L410.744 332.078V321.492L404.649 323.096L402.724 324.7L398.554 326.304L396.309 336.569L393.422 339.456L391.818 345.871L388.61 349.079L383.157 345.871V335.285L379.629 332.078L378.345 320.53L374.496 317.322L370.647 320.851L369.364 332.078L365.514 335.285V355.494L361.344 353.89L352.683 343.946L346.589 339.456L336.003 334.323V365.118H330.229L326.38 359.023L320.285 356.457L315.153 360.306L316.436 364.155L325.097 372.816L326.059 378.269L320.927 382.76H311.624L310.662 387.251L319.323 397.195Z" fill="#6AAA50"/>
<path d="M317.719 394.949H426.783V399.44H317.719V394.949Z" fill="#4A7A30"/>
<path d="M313.228 390.459H317.719V394.949H313.228V390.459Z" fill="#4A7A30"/>
<path d="M308.737 370.571H313.228V390.459H308.737V370.571Z" fill="#4A7A30"/>
<path d="M422.933 366.08H427.424V381.477H422.933V366.08Z" fill="#4A7A30"/>
<path d="M422.933 366.08H427.424V381.477H422.933V366.08Z" fill="#4A7A30"/>
<path d="M408.178 371.212H412.669V390.459H408.178V371.212Z" fill="#4A7A30"/>
<path d="M403.687 333.361H408.178V371.212H403.687V333.361Z" fill="#4A7A30"/>
<path d="M408.178 319.247H412.669V333.361H408.178V319.247Z" fill="#4A7A30"/>
<path d="M403.687 319.247H408.178V323.737H403.687V319.247Z" fill="#4A7A30"/>
<path d="M399.196 323.737H403.687V328.228H399.196V323.737Z" fill="#4A7A30"/>
<path d="M394.705 304.491H399.196V337.851H394.705V304.491Z" fill="#4A7A30"/>
<path d="M390.214 337.851H394.705V347.475H390.214V337.851Z" fill="#4A7A30"/>
<path d="M385.723 347.475H390.214V361.589H385.723V347.475Z" fill="#4A7A30"/>
<path d="M381.233 333.361H385.723V347.475H381.233V333.361Z" fill="#4A7A30"/>
<path d="M376.742 319.247H381.233V333.361H376.742V319.247Z" fill="#4A7A30"/>
<path d="M367.76 319.247H372.251V333.361H367.76V319.247Z" fill="#4A7A30"/>
<path d="M349.797 304.491H354.287V346.833H349.797V304.491Z" fill="#4A7A30"/>
<path d="M363.269 333.361H367.76V366.08H363.269V333.361Z" fill="#4A7A30"/>
<path d="M372.251 314.756H376.742V319.247H372.251V314.756Z" fill="#4A7A30"/>
<path d="M363.269 314.756H367.76V319.247H363.269V314.756Z" fill="#4A7A30"/>
<path d="M354.287 346.833H358.778V351.324H354.287V346.833Z" fill="#4A7A30"/>
<path d="M358.778 351.324H363.269V355.815H358.778V351.324Z" fill="#4A7A30"/>
<path d="M354.287 300H358.778V304.491H354.287V300Z" fill="#4A7A30"/>
<path d="M358.778 304.491H363.269V314.756H358.778V304.491Z" fill="#4A7A30"/>
<path d="M381.233 314.756H385.723V319.247H381.233V314.756Z" fill="#4A7A30"/>
<path d="M385.723 304.491H390.214V314.756H385.723V304.491Z" fill="#4A7A30"/>
<path d="M390.214 300H394.705V304.491H390.214V300Z" fill="#4A7A30"/>
<path d="M427.424 351.966H431.915V366.08H427.424V351.966Z" fill="#4A7A30"/>
<path d="M431.915 347.475H436.406V351.966H431.915V347.475Z" fill="#4A7A30"/>
<path d="M436.406 333.361H440.897V347.475H436.406V333.361Z" fill="#4A7A30"/>
<path d="M431.915 333.361H436.406V337.851H431.915V333.361Z" fill="#4A7A30"/>
<path d="M427.424 337.851H431.915V342.342H427.424V337.851Z" fill="#4A7A30"/>
<path d="M422.933 342.342H427.424V346.833H422.933V342.342Z" fill="#4A7A30"/>
<path d="M418.443 346.833H422.933V351.324H418.443V346.833Z" fill="#4A7A30"/>
<path d="M413.952 351.324H418.443V355.815H413.952V351.324Z" fill="#4A7A30"/>
<path d="M408.178 355.815H413.952V360.306H408.178V355.815Z" fill="#4A7A30"/>
<path d="M304.247 360.947H308.737V370.571H304.247V360.947Z" fill="#4A7A30"/>
<path d="M299.756 351.324H304.247V360.947H299.756V351.324Z" fill="#4A7A30"/>
<path d="M295.265 342.342H299.756V351.324H295.265V342.342Z" fill="#4A7A30"/>
<path d="M290.774 337.21H295.265V342.342H290.774V337.21Z" fill="#4A7A30"/>
<path d="M285 332.078H299.114V337.21H285V332.078Z" fill="#4A7A30"/>
<path d="M299.114 337.21H308.737V342.342H299.114V337.21Z" fill="#4A7A30"/>
<path d="M308.737 342.342H318.361V347.475H308.737V342.342Z" fill="#4A7A30"/>
<path d="M318.361 347.475H327.984V352.607H318.361V347.475Z" fill="#4A7A30"/>
<path d="M327.984 352.607H333.116V357.74H327.984V352.607Z" fill="#4A7A30"/>
<path d="M338.249 332.719H343.381V337.851H338.249V332.719Z" fill="#4A7A30"/>
<path d="M343.381 337.851H350.438V342.984H343.381V337.851Z" fill="#4A7A30"/>
<path d="M333.116 328.228H338.249V362.872H333.116V328.228Z" fill="#4A7A30"/>
<path d="M318.361 352.607H323.493V357.74H318.361V352.607Z" fill="#4A7A30"/>
<path d="M323.493 357.74H328.625V362.872H323.493V357.74Z" fill="#4A7A30"/>
<path d="M318.361 366.08H323.493V371.212H318.361V366.08Z" fill="#4A7A30"/>
<path d="M328.625 380.194H333.758V385.326H328.625V380.194Z" fill="#4A7A30"/>
<path d="M303.605 380.194H323.493V385.326H303.605V380.194Z" fill="#4A7A30"/>
<path d="M328.625 362.872H338.249V368.004H328.625V362.872Z" fill="#4A7A30"/>
<path d="M338.249 368.004H343.381V373.137H338.249V368.004Z" fill="#4A7A30"/>
<path d="M313.228 357.74H318.361V366.08H313.228V357.74Z" fill="#4A7A30"/>
<path d="M323.493 371.212H328.625V380.194H323.493V371.212Z" fill="#4A7A30"/>
<path d="M426.783 390.459H436.406V394.949H426.783V390.459Z" fill="#4A7A30"/>
<path d="M412.669 385.968H417.801V390.459H412.669V385.968Z" fill="#4A7A30"/>
<path d="M417.801 381.477H436.406V385.968H417.801V381.477Z" fill="#4A7A30"/>
<path d="M436.406 381.477H440.897V390.459H436.406V381.477Z" fill="#4A7A30"/>
<path d="M310.662 372.816L311.304 382.76L320.927 381.798L326.701 378.911L325.738 372.816L319.644 368.967L316.115 359.985L320.927 355.815L326.701 359.985L329.908 364.476L336.324 365.117V359.023L329.908 353.89L320.927 349.079L311.304 343.625L303.605 340.418L297.51 335.606L293.661 334.002V338.493L297.51 347.475L301.359 352.928L302.322 357.74L305.53 362.872L306.813 367.684L310.662 372.816Z" fill="#4A7A30"/>
<path d="M425.179 368.325V382.44L420.046 383.723L416.518 387.572H411.065L410.423 372.816L406.253 369.929L406.574 359.344L411.065 358.702L433.519 335.927L438.331 334.644L437.689 345.871L433.519 351.004L428.707 353.891V364.797L425.179 368.325Z" fill="#4A7A30"/>
<path d="M356.212 348.437L360.382 353.249L364.873 354.532L366.798 334.002L369.685 332.078V320.851L364.231 316.039L362.307 313.152L359.42 304.812L356.212 303.529L352.363 305.453L353.004 345.871L356.212 348.437Z" fill="#4A7A30"/>
<path d="M384.12 345.871L386.686 348.437L388.61 348.758L391.177 346.833L393.422 339.776L396.63 335.927L395.667 305.453L393.743 303.529H391.177L388.29 306.095L386.686 313.794L379.629 320.851V332.399L382.516 334.002L384.12 345.871Z" fill="#4A7A30"/>
<path d="M108.584 420.586L-26.422 421.809L-27.2377 418.546L-29.2771 417.323L-36.6188 414.875L-43.1447 410.389V403.863H-19.0803L-14.5937 408.757H-6.43626V389.995L-1.94967 385.101V341.05L-7.65988 337.788V324.328L0.0896912 326.367L2.53692 328.406L7.83926 330.446L10.6944 343.498L14.3652 347.169L16.4046 355.326L20.4833 359.405L27.4171 355.326V341.866L31.9037 337.788L33.5352 323.104L38.4297 319.025L43.3241 323.512L44.9556 337.788L49.8501 341.866V367.562L55.1524 365.523L66.165 352.879L73.9145 347.169L87.3743 340.643V379.798H94.716L99.6105 372.049L107.36 368.786L113.886 373.68L112.254 378.575L101.242 389.587L100.018 396.521L106.544 402.231H118.373L119.596 407.941L108.584 420.586Z" fill="#6AAA50"/>
<path d="M110.623 417.73H-28.0536V423.44H110.623V417.73Z" fill="#4A7A30"/>
<path d="M116.333 412.02H110.623V417.73H116.333V412.02Z" fill="#4A7A30"/>
<path d="M122.043 386.732H116.333V412.02H122.043V386.732Z" fill="#4A7A30"/>
<path d="M-23.1591 381.022H-28.8694V400.599H-23.1591V381.022Z" fill="#4A7A30"/>
<path d="M-23.1591 381.022H-28.8694V400.599H-23.1591V381.022Z" fill="#4A7A30"/>
<path d="M-4.39703 387.548H-10.1072V412.02H-4.39703V387.548Z" fill="#4A7A30"/>
<path d="M1.31319 339.419H-4.39703V387.548H1.31319V339.419Z" fill="#4A7A30"/>
<path d="M-4.39703 321.472H-10.1072V339.419H-4.39703V321.472Z" fill="#4A7A30"/>
<path d="M1.31319 321.472H-4.39703V327.183H1.31319V321.472Z" fill="#4A7A30"/>
<path d="M7.02339 327.183H1.31319V332.893H7.02339V327.183Z" fill="#4A7A30"/>
<path d="M12.7336 302.71H7.02339V345.129H12.7336V302.71Z" fill="#4A7A30"/>
<path d="M18.4438 345.129H12.7336V357.365H18.4438V345.129Z" fill="#4A7A30"/>
<path d="M24.154 357.365H18.4438V375.311H24.154V357.365Z" fill="#4A7A30"/>
<path d="M29.8642 339.419H24.154V357.365H29.8642V339.419Z" fill="#4A7A30"/>
<path d="M35.5744 321.472H29.8642V339.419H35.5744V321.472Z" fill="#4A7A30"/>
<path d="M46.9949 321.472H41.2846V339.419H46.9949V321.472Z" fill="#4A7A30"/>
<path d="M69.8357 302.71H64.1255V356.549H69.8357V302.71Z" fill="#4A7A30"/>
<path d="M52.7051 339.419H46.9949V381.022H52.7051V339.419Z" fill="#4A7A30"/>
<path d="M41.2846 315.762H35.5744V321.472H41.2846V315.762Z" fill="#4A7A30"/>
<path d="M52.7051 315.762H46.9949V321.472H52.7051V315.762Z" fill="#4A7A30"/>
<path d="M64.1255 356.549H58.4153V362.26H64.1255V356.549Z" fill="#4A7A30"/>
<path d="M58.4153 362.26H52.7051V367.97H58.4153V362.26Z" fill="#4A7A30"/>
<path d="M64.1255 297H58.4153V302.71H64.1255V297Z" fill="#4A7A30"/>
<path d="M58.4153 302.71H52.7051V315.762H58.4153V302.71Z" fill="#4A7A30"/>
<path d="M29.8642 315.762H24.154V321.472H29.8642V315.762Z" fill="#4A7A30"/>
<path d="M24.154 302.71H18.4438V315.762H24.154V302.71Z" fill="#4A7A30"/>
<path d="M18.4438 297H12.7336V302.71H18.4438V297Z" fill="#4A7A30"/>
<path d="M-28.8694 363.075H-34.5796V381.022H-28.8694V363.075Z" fill="#4A7A30"/>
<path d="M-34.5796 357.365H-40.2898V363.075H-34.5796V357.365Z" fill="#4A7A30"/>
<path d="M-40.2898 339.419H-46V357.365H-40.2898V339.419Z" fill="#4A7A30"/>
<path d="M-34.5796 339.419H-40.2898V345.129H-34.5796V339.419Z" fill="#4A7A30"/>
<path d="M-28.8694 345.129H-34.5796V350.839H-28.8694V345.129Z" fill="#4A7A30"/>
<path d="M-23.1591 350.839H-28.8694V356.549H-23.1591V350.839Z" fill="#4A7A30"/>
<path d="M-17.4489 356.549H-23.1591V362.26H-17.4489V356.549Z" fill="#4A7A30"/>
<path d="M-11.7387 362.26H-17.4489V367.97H-11.7387V362.26Z" fill="#4A7A30"/>
<path d="M-4.39703 367.97H-11.7387V373.68H-4.39703V367.97Z" fill="#4A7A30"/>
<path d="M127.754 374.496H122.043V386.732H127.754V374.496Z" fill="#4A7A30"/>
<path d="M133.464 362.26H127.754V374.496H133.464V362.26Z" fill="#4A7A30"/>
<path d="M139.174 350.839H133.464V362.26H139.174V350.839Z" fill="#4A7A30"/>
<path d="M144.884 344.313H139.174V350.839H144.884V344.313Z" fill="#4A7A30"/>
<path d="M152.226 337.787H134.279V344.313H152.226V337.787Z" fill="#4A7A30"/>
<path d="M134.279 344.313H122.043V350.839H134.279V344.313Z" fill="#4A7A30"/>
<path d="M122.043 350.839H109.807V357.365H122.043V350.839Z" fill="#4A7A30"/>
<path d="M109.807 357.365H97.571V363.891H109.807V357.365Z" fill="#4A7A30"/>
<path d="M97.571 363.891H91.045V370.417H97.571V363.891Z" fill="#4A7A30"/>
<path d="M84.5191 338.603H77.9931V345.129H84.5191V338.603Z" fill="#4A7A30"/>
<path d="M77.9931 345.129H69.0199V351.655H77.9931V345.129Z" fill="#4A7A30"/>
<path d="M91.045 332.893H84.5191V376.943H91.045V332.893Z" fill="#4A7A30"/>
<path d="M109.807 363.891H103.281V370.417H109.807V363.891Z" fill="#4A7A30"/>
<path d="M103.281 370.417H96.7552V376.943H103.281V370.417Z" fill="#4A7A30"/>
<path d="M109.807 381.022H103.281V387.548H109.807V381.022Z" fill="#4A7A30"/>
<path d="M96.7552 398.968H90.2293V405.494H96.7552V398.968Z" fill="#4A7A30"/>
<path d="M128.569 398.968H103.281V405.494H128.569V398.968Z" fill="#4A7A30"/>
<path d="M96.7552 376.943H84.5191V383.469H96.7552V376.943Z" fill="#4A7A30"/>
<path d="M84.5191 383.469H77.9931V389.995H84.5191V383.469Z" fill="#4A7A30"/>
<path d="M116.333 370.417H109.807V381.022H116.333V370.417Z" fill="#4A7A30"/>
<path d="M103.281 387.548H96.7552V398.968H103.281V387.548Z" fill="#4A7A30"/>
<path d="M-28.0536 412.02H-40.2898V417.73H-28.0536V412.02Z" fill="#4A7A30"/>
<path d="M-10.1072 406.31H-16.6332V412.02H-10.1072V406.31Z" fill="#4A7A30"/>
<path d="M-16.6332 400.599H-40.2898V406.31H-16.6332V400.599Z" fill="#4A7A30"/>
<path d="M-40.2898 400.599H-46V412.02H-40.2898V400.599Z" fill="#4A7A30"/>
<path d="M119.596 389.587L118.78 402.231L106.544 401.007L99.2026 397.336L100.426 389.587L108.176 384.692L112.662 373.272L106.544 367.97L99.2026 373.272L95.1238 378.982L86.9664 379.798V372.048L95.1238 365.522L106.544 359.404L118.78 352.471L128.569 348.392L136.319 342.274L141.213 340.234V345.945L136.319 357.365L131.424 364.299L130.201 370.417L126.122 376.943L124.491 383.061L119.596 389.587Z" fill="#4A7A30"/>
<path d="M-26.0142 383.877V401.823L-19.4883 403.455L-15.0017 408.349H-8.06783L-7.25209 389.587L-1.94975 385.916L-2.35762 372.457L-8.06783 371.641L-36.6189 342.682L-42.737 341.05L-41.9212 355.326L-36.6189 361.852L-30.5008 365.523V379.39L-26.0142 383.877Z" fill="#4A7A30"/>
<path d="M61.6783 358.589L56.376 364.707L50.6657 366.338L48.2185 340.235L44.5477 337.787V323.512L51.4815 317.394L53.9287 313.723L57.5996 303.118L61.6783 301.487L66.5728 303.934L65.757 355.326L61.6783 358.589Z" fill="#4A7A30"/>
<path d="M26.1934 355.326L22.9304 358.589L20.4832 358.997L17.2202 356.55L14.3651 347.576L10.2864 342.682L11.51 303.934L13.9573 301.487H17.2202L20.8911 304.75L22.9304 314.539L31.9036 323.512V338.195L28.2328 340.235L26.1934 355.326Z" fill="#4A7A30"/>
<path d="M75.6422 460.586L210.648 461.809L211.464 458.546L213.503 457.323L220.845 454.875L227.371 450.389V443.863H203.306L198.82 448.757H190.662V429.995L186.175 425.101V381.05L191.886 377.788V364.328L184.136 366.367L181.689 368.406L176.387 370.446L173.531 383.498L169.861 387.169L167.821 395.326L163.743 399.405L156.809 395.326V381.866L152.322 377.788L150.691 363.104L145.796 359.025L140.902 363.512L139.27 377.788L134.376 381.866V407.562L129.073 405.523L118.061 392.879L110.311 387.169L96.8515 380.643V419.798H89.5098L84.6154 412.049L76.8658 408.786L70.3398 413.68L71.9713 418.575L82.9839 429.587L84.2075 436.521L77.6815 442.231H65.8533L64.6296 447.941L75.6422 460.586Z" fill="#6AAA50"/>
<path d="M73.6029 457.73H212.279V463.44H73.6029V457.73Z" fill="#4A7A30"/>
<path d="M67.8927 452.02H73.6029V457.73H67.8927V452.02Z" fill="#4A7A30"/>
<path d="M62.1825 426.732H67.8927V452.02H62.1825V426.732Z" fill="#4A7A30"/>
<path d="M207.385 421.022H213.095V440.599H207.385V421.022Z" fill="#4A7A30"/>
<path d="M207.385 421.022H213.095V440.599H207.385V421.022Z" fill="#4A7A30"/>
<path d="M188.623 427.548H194.333V452.02H188.623V427.548Z" fill="#4A7A30"/>
<path d="M182.913 379.419H188.623V427.548H182.913V379.419Z" fill="#4A7A30"/>
<path d="M188.623 361.472H194.333V379.419H188.623V361.472Z" fill="#4A7A30"/>
<path d="M182.913 361.472H188.623V367.183H182.913V361.472Z" fill="#4A7A30"/>
<path d="M177.202 367.183H182.913V372.893H177.202V367.183Z" fill="#4A7A30"/>
<path d="M171.492 342.71H177.202V385.129H171.492V342.71Z" fill="#4A7A30"/>
<path d="M165.782 385.129H171.492V397.365H165.782V385.129Z" fill="#4A7A30"/>
<path d="M160.072 397.365H165.782V415.311H160.072V397.365Z" fill="#4A7A30"/>
<path d="M154.362 379.419H160.072V397.365H154.362V379.419Z" fill="#4A7A30"/>
<path d="M148.651 361.472H154.362V379.419H148.651V361.472Z" fill="#4A7A30"/>
<path d="M137.231 361.472H142.941V379.419H137.231V361.472Z" fill="#4A7A30"/>
<path d="M114.39 342.71H120.1V396.549H114.39V342.71Z" fill="#4A7A30"/>
<path d="M131.521 379.419H137.231V421.022H131.521V379.419Z" fill="#4A7A30"/>
<path d="M142.941 355.762H148.651V361.472H142.941V355.762Z" fill="#4A7A30"/>
<path d="M131.521 355.762H137.231V361.472H131.521V355.762Z" fill="#4A7A30"/>
<path d="M120.1 396.549H125.811V402.26H120.1V396.549Z" fill="#4A7A30"/>
<path d="M125.811 402.26H131.521V407.97H125.811V402.26Z" fill="#4A7A30"/>
<path d="M120.1 337H125.811V342.71H120.1V337Z" fill="#4A7A30"/>
<path d="M125.811 342.71H131.521V355.762H125.811V342.71Z" fill="#4A7A30"/>
<path d="M154.362 355.762H160.072V361.472H154.362V355.762Z" fill="#4A7A30"/>
<path d="M160.072 342.71H165.782V355.762H160.072V342.71Z" fill="#4A7A30"/>
<path d="M165.782 337H171.492V342.71H165.782V337Z" fill="#4A7A30"/>
<path d="M213.095 403.075H218.805V421.022H213.095V403.075Z" fill="#4A7A30"/>
<path d="M218.805 397.365H224.516V403.075H218.805V397.365Z" fill="#4A7A30"/>
<path d="M224.516 379.419H230.226V397.365H224.516V379.419Z" fill="#4A7A30"/>
<path d="M218.805 379.419H224.516V385.129H218.805V379.419Z" fill="#4A7A30"/>
<path d="M213.095 385.129H218.805V390.839H213.095V385.129Z" fill="#4A7A30"/>
<path d="M207.385 390.839H213.095V396.549H207.385V390.839Z" fill="#4A7A30"/>
<path d="M201.675 396.549H207.385V402.26H201.675V396.549Z" fill="#4A7A30"/>
<path d="M195.965 402.26H201.675V407.97H195.965V402.26Z" fill="#4A7A30"/>
<path d="M188.623 407.97H195.965V413.68H188.623V407.97Z" fill="#4A7A30"/>
<path d="M56.4723 414.496H62.1825V426.732H56.4723V414.496Z" fill="#4A7A30"/>
<path d="M50.7621 402.26H56.4723V414.496H50.7621V402.26Z" fill="#4A7A30"/>
<path d="M45.0519 390.839H50.7621V402.26H45.0519V390.839Z" fill="#4A7A30"/>
<path d="M39.3417 384.313H45.0519V390.839H39.3417V384.313Z" fill="#4A7A30"/>
<path d="M32 377.787H49.9464V384.313H32V377.787Z" fill="#4A7A30"/>
<path d="M49.9464 384.313H62.1825V390.839H49.9464V384.313Z" fill="#4A7A30"/>
<path d="M62.1825 390.839H74.4187V397.365H62.1825V390.839Z" fill="#4A7A30"/>
<path d="M74.4187 397.365H86.6549V403.891H74.4187V397.365Z" fill="#4A7A30"/>
<path d="M86.6549 403.891H93.1808V410.417H86.6549V403.891Z" fill="#4A7A30"/>
<path d="M99.7068 378.603H106.233V385.129H99.7068V378.603Z" fill="#4A7A30"/>
<path d="M106.233 385.129H115.206V391.655H106.233V385.129Z" fill="#4A7A30"/>
<path d="M93.1808 372.893H99.7068V416.943H93.1808V372.893Z" fill="#4A7A30"/>
<path d="M74.4187 403.891H80.9446V410.417H74.4187V403.891Z" fill="#4A7A30"/>
<path d="M80.9446 410.417H87.4706V416.943H80.9446V410.417Z" fill="#4A7A30"/>
<path d="M74.4187 421.022H80.9446V427.548H74.4187V421.022Z" fill="#4A7A30"/>
<path d="M87.4706 438.968H93.9965V445.494H87.4706V438.968Z" fill="#4A7A30"/>
<path d="M55.6566 438.968H80.9446V445.494H55.6566V438.968Z" fill="#4A7A30"/>
<path d="M87.4706 416.943H99.7068V423.469H87.4706V416.943Z" fill="#4A7A30"/>
<path d="M99.7068 423.469H106.233V429.995H99.7068V423.469Z" fill="#4A7A30"/>
<path d="M67.8927 410.417H74.4187V421.022H67.8927V410.417Z" fill="#4A7A30"/>
<path d="M80.9446 427.548H87.4706V438.968H80.9446V427.548Z" fill="#4A7A30"/>
<path d="M212.279 452.02H224.516V457.73H212.279V452.02Z" fill="#4A7A30"/>
<path d="M194.333 446.31H200.859V452.02H194.333V446.31Z" fill="#4A7A30"/>
<path d="M200.859 440.599H224.516V446.31H200.859V440.599Z" fill="#4A7A30"/>
<path d="M224.516 440.599H230.226V452.02H224.516V440.599Z" fill="#4A7A30"/>
<path d="M64.6297 429.587L65.4454 442.231L77.6816 441.007L85.0233 437.336L83.7997 429.587L76.0501 424.692L71.5635 413.272L77.6816 407.97L85.0233 413.272L89.102 418.982L97.2594 419.798V412.048L89.102 405.522L77.6816 399.404L65.4454 392.471L55.6565 388.392L47.9069 382.274L43.0125 380.234V385.945L47.9069 397.365L52.8014 404.299L54.025 410.417L58.1037 416.943L59.7352 423.061L64.6297 429.587Z" fill="#4A7A30"/>
<path d="M210.24 423.877V441.823L203.714 443.455L199.227 448.349H192.294L191.478 429.587L186.176 425.916L186.583 412.457L192.294 411.641L220.845 382.682L226.963 381.05L226.147 395.326L220.845 401.852L214.727 405.523V419.39L210.24 423.877Z" fill="#4A7A30"/>
<path d="M122.548 398.589L127.85 404.707L133.56 406.338L136.007 380.235L139.678 377.787V363.512L132.744 357.394L130.297 353.723L126.626 343.118L122.548 341.487L117.653 343.934L118.469 395.326L122.548 398.589Z" fill="#4A7A30"/>
<path d="M158.032 395.326L161.295 398.589L163.743 398.997L167.006 396.55L169.861 387.576L173.939 382.682L172.716 343.934L170.269 341.487H167.006L163.335 344.75L161.295 354.539L152.322 363.512V378.195L155.993 380.235L158.032 395.326Z" fill="#4A7A30"/>
<path d="M254.603 434.661L349.272 435.519L349.844 433.231L351.274 432.373L356.422 430.657L360.998 427.51V422.934H344.123L340.977 426.366H335.257V413.21L332.111 409.778V378.889L336.115 376.601V367.163L330.681 368.593L328.965 370.023L325.247 371.453L323.245 380.605L320.671 383.179L319.241 388.899L316.381 391.759L311.518 388.899V379.461L308.372 376.601L307.228 366.305L303.796 363.445L300.364 366.591L299.22 376.601L295.788 379.461V397.48L292.07 396.05L284.348 387.183L278.914 383.179L269.475 378.603V406.06H264.327L260.895 400.626L255.461 398.338L250.885 401.77L252.029 405.202L259.751 412.924L260.609 417.786L256.033 421.79H247.739L246.881 425.794L254.603 434.661Z" fill="#6AAA50"/>
<path d="M253.173 432.658H350.416V436.663H253.173V432.658Z" fill="#4A7A30"/>
<path d="M249.169 428.654H253.173V432.658H249.169V428.654Z" fill="#4A7A30"/>
<path d="M245.165 410.922H249.169V428.654H245.165V410.922Z" fill="#4A7A30"/>
<path d="M346.984 406.918H350.988V420.646H346.984V406.918Z" fill="#4A7A30"/>
<path d="M346.984 406.918H350.988V420.646H346.984V406.918Z" fill="#4A7A30"/>
<path d="M333.827 411.494H337.831V428.654H333.827V411.494Z" fill="#4A7A30"/>
<path d="M329.823 377.745H333.827V411.494H329.823V377.745Z" fill="#4A7A30"/>
<path d="M333.827 365.16H337.831V377.745H333.827V365.16Z" fill="#4A7A30"/>
<path d="M329.823 365.16H333.827V369.165H329.823V365.16Z" fill="#4A7A30"/>
<path d="M325.819 369.165H329.823V373.169H325.819V369.165Z" fill="#4A7A30"/>
<path d="M321.815 352.004H325.819V381.749H321.815V352.004Z" fill="#4A7A30"/>
<path d="M317.811 381.749H321.815V390.329H317.811V381.749Z" fill="#4A7A30"/>
<path d="M313.807 390.329H317.811V402.914H313.807V390.329Z" fill="#4A7A30"/>
<path d="M309.802 377.745H313.807V390.329H309.802V377.745Z" fill="#4A7A30"/>
<path d="M305.798 365.16H309.802V377.745H305.798V365.16Z" fill="#4A7A30"/>
<path d="M297.79 365.16H301.794V377.745H297.79V365.16Z" fill="#4A7A30"/>
<path d="M281.774 352.004H285.778V389.757H281.774V352.004Z" fill="#4A7A30"/>
<path d="M293.786 377.745H297.79V406.918H293.786V377.745Z" fill="#4A7A30"/>
<path d="M301.794 361.156H305.798V365.16H301.794V361.156Z" fill="#4A7A30"/>
<path d="M293.786 361.156H297.79V365.16H293.786V361.156Z" fill="#4A7A30"/>
<path d="M285.778 389.757H289.782V393.761H285.778V389.757Z" fill="#4A7A30"/>
<path d="M289.782 393.761H293.786V397.765H289.782V393.761Z" fill="#4A7A30"/>
<path d="M285.778 348H289.782V352.004H285.778V348Z" fill="#4A7A30"/>
<path d="M289.782 352.004H293.786V361.156H289.782V352.004Z" fill="#4A7A30"/>
<path d="M309.802 361.156H313.807V365.16H309.802V361.156Z" fill="#4A7A30"/>
<path d="M313.807 352.004H317.811V361.156H313.807V352.004Z" fill="#4A7A30"/>
<path d="M317.811 348H321.815V352.004H317.811V348Z" fill="#4A7A30"/>
<path d="M350.988 394.333H354.992V406.918H350.988V394.333Z" fill="#4A7A30"/>
<path d="M354.992 390.329H358.996V394.333H354.992V390.329Z" fill="#4A7A30"/>
<path d="M358.996 377.745H363V390.329H358.996V377.745Z" fill="#4A7A30"/>
<path d="M354.992 377.745H358.996V381.749H354.992V377.745Z" fill="#4A7A30"/>
<path d="M350.988 381.749H354.992V385.753H350.988V381.749Z" fill="#4A7A30"/>
<path d="M346.984 385.753H350.988V389.757H346.984V385.753Z" fill="#4A7A30"/>
<path d="M342.979 389.757H346.984V393.761H342.979V389.757Z" fill="#4A7A30"/>
<path d="M338.975 393.761H342.979V397.765H338.975V393.761Z" fill="#4A7A30"/>
<path d="M333.827 397.765H338.975V401.77H333.827V397.765Z" fill="#4A7A30"/>
<path d="M241.16 402.342H245.165V410.922H241.16V402.342Z" fill="#4A7A30"/>
<path d="M237.156 393.761H241.16V402.342H237.156V393.761Z" fill="#4A7A30"/>
<path d="M233.152 385.753H237.156V393.761H233.152V385.753Z" fill="#4A7A30"/>
<path d="M229.148 381.177H233.152V385.753H229.148V381.177Z" fill="#4A7A30"/>
<path d="M224 376.601H236.584V381.177H224V376.601Z" fill="#4A7A30"/>
<path d="M236.584 381.177H245.165V385.753H236.584V381.177Z" fill="#4A7A30"/>
<path d="M245.165 385.753H253.745V390.329H245.165V385.753Z" fill="#4A7A30"/>
<path d="M253.745 390.329H262.325V394.905H253.745V390.329Z" fill="#4A7A30"/>
<path d="M262.325 394.905H266.901V399.481H262.325V394.905Z" fill="#4A7A30"/>
<path d="M271.477 377.173H276.054V381.749H271.477V377.173Z" fill="#4A7A30"/>
<path d="M276.054 381.749H282.346V386.325H276.054V381.749Z" fill="#4A7A30"/>
<path d="M266.901 373.169H271.477V404.058H266.901V373.169Z" fill="#4A7A30"/>
<path d="M253.745 394.905H258.321V399.481H253.745V394.905Z" fill="#4A7A30"/>
<path d="M258.321 399.481H262.897V404.058H258.321V399.481Z" fill="#4A7A30"/>
<path d="M253.745 406.918H258.321V411.494H253.745V406.918Z" fill="#4A7A30"/>
<path d="M262.897 419.502H267.473V424.078H262.897V419.502Z" fill="#4A7A30"/>
<path d="M240.588 419.502H258.321V424.078H240.588V419.502Z" fill="#4A7A30"/>
<path d="M262.897 404.058H271.477V408.634H262.897V404.058Z" fill="#4A7A30"/>
<path d="M271.477 408.634H276.054V413.21H271.477V408.634Z" fill="#4A7A30"/>
<path d="M249.169 399.481H253.745V406.918H249.169V399.481Z" fill="#4A7A30"/>
<path d="M258.321 411.494H262.897V419.502H258.321V411.494Z" fill="#4A7A30"/>
<path d="M350.416 428.654H358.996V432.658H350.416V428.654Z" fill="#4A7A30"/>
<path d="M337.831 424.65H342.407V428.654H337.831V424.65Z" fill="#4A7A30"/>
<path d="M342.407 420.646H358.996V424.65H342.407V420.646Z" fill="#4A7A30"/>
<path d="M358.996 420.646H363V428.654H358.996V420.646Z" fill="#4A7A30"/>
<path d="M246.881 412.924L247.453 421.79L256.033 420.932L261.181 418.358L260.323 412.924L254.889 409.492L251.743 401.484L256.033 397.765L261.181 401.484L264.041 405.488L269.761 406.06V400.626L264.041 396.049L256.033 391.759L247.453 386.897L240.588 384.037L235.154 379.747L231.722 378.317V382.321L235.154 390.329L238.586 395.191L239.444 399.482L242.304 404.058L243.449 408.348L246.881 412.924Z" fill="#4A7A30"/>
<path d="M348.986 408.92V421.504L344.41 422.648L341.263 426.08H336.401L335.829 412.924L332.111 410.35L332.397 400.912L336.401 400.34L356.422 380.033L360.712 378.889L360.14 388.899L356.422 393.475L352.132 396.05V405.774L348.986 408.92Z" fill="#4A7A30"/>
<path d="M287.494 391.187L291.212 395.478L295.216 396.622L296.932 378.317L299.506 376.601V366.591L294.644 362.301L292.928 359.726L290.354 352.29L287.494 351.146L284.062 352.862L284.634 388.899L287.494 391.187Z" fill="#4A7A30"/>
<path d="M312.377 388.899L314.665 391.187L316.381 391.473L318.669 389.757L320.671 383.465L323.531 380.033L322.673 352.862L320.957 351.146H318.669L316.095 353.434L314.665 360.299L308.372 366.591V376.887L310.947 378.317L312.377 388.899Z" fill="#4A7A30"/>
</g>
<defs>
<linearGradient id="paint0_linear_320_949" x1="201" y1="0" x2="201" y2="874" gradientUnits="userSpaceOnUse">
<stop stop-color="#FDDCE3"/>
<stop offset="0.697115" stop-color="#D5F4CE"/>
</linearGradient>
<clipPath id="clip0_320_949">
<rect width="402" height="874" fill="white"/>
</clipPath>
</defs>
</svg>
