<?xml version="1.0" encoding="UTF-8" ?>
<svg version="1.1" width="48" height="11" xmlns="http://www.w3.org/2000/svg" shape-rendering="crispEdges">
<rect x="4" y="0" width="40" height="1" fill="#000000" opacity="0.811765" />
<rect x="3" y="1" width="1" height="1" fill="#000000" opacity="0.811765" />
<rect x="4" y="1" width="40" height="1" fill="#FFFDE5" opacity="0.811765" />
<rect x="44" y="1" width="1" height="1" fill="#000000" opacity="0.811765" />
<rect x="2" y="2" width="1" height="1" fill="#000000" opacity="0.811765" />
<rect x="3" y="2" width="39" height="4" fill="#FFFDE5" opacity="0.811765" />
<rect x="42" y="2" width="1" height="1" fill="#000000" opacity="0.811765" />
<rect x="43" y="2" width="2" height="1" fill="#FFFDE5" opacity="0.811765" />
<rect x="45" y="2" width="1" height="1" fill="#000000" opacity="0.811765" />
<rect x="1" y="3" width="1" height="4" fill="#000000" opacity="0.811765" />
<rect x="2" y="3" width="1" height="4" fill="#FFFDE5" opacity="0.811765" />
<rect x="42" y="3" width="1" height="6" fill="#FFFDE5" opacity="0.811765" />
<rect x="43" y="3" width="1" height="1" fill="#000000" opacity="0.811765" />
<rect x="44" y="3" width="2" height="4" fill="#FFFDE5" opacity="0.811765" />
<rect x="46" y="3" width="1" height="4" fill="#000000" opacity="0.811765" />
<rect x="43" y="4" width="1" height="5" fill="#FFFDE5" opacity="0.811765" />
<rect x="3" y="6" width="1" height="2" fill="#FFFDE5" opacity="0.811765" />
<rect x="4" y="6" width="1" height="1" fill="#000000" opacity="0.811765" />
<rect x="5" y="6" width="37" height="1" fill="#FFFDE5" opacity="0.811765" />
<rect x="2" y="7" width="1" height="1" fill="#000000" opacity="0.811765" />
<rect x="4" y="7" width="1" height="2" fill="#FFFDE5" opacity="0.811765" />
<rect x="5" y="7" width="1" height="1" fill="#000000" opacity="0.811765" />
<rect x="6" y="7" width="36" height="2" fill="#FFFDE5" opacity="0.811765" />
<rect x="44" y="7" width="1" height="1" fill="#FFFDE5" opacity="0.811765" />
<rect x="45" y="7" width="1" height="1" fill="#000000" opacity="0.811765" />
<rect x="3" y="8" width="1" height="1" fill="#000000" opacity="0.811765" />
<rect x="5" y="8" width="1" height="1" fill="#FFFDE5" opacity="0.811765" />
<rect x="44" y="8" width="1" height="1" fill="#000000" opacity="0.811765" />
<rect x="4" y="9" width="40" height="1" fill="#000000" opacity="0.811765" />
</svg>