<svg width="172" height="43" viewBox="0 0 172 43" fill="none" xmlns="http://www.w3.org/2000/svg">
<path d="M1.68 35.6231L6.46305 40.0606L7.5737 33.3172L13.1112 30.3132L16.7452 34.1443L158.92 33.4011L169.616 22.32L169.565 12.5202L158.753 1.46404L15.7027 3.34931L8.32935 9.25044L4.68908 21.0821L1.68 35.6231Z" fill="#FFFDE5"/>
<path d="M17.6286 0.801711L14.1029 0.82014L14.1212 4.32009L17.6469 4.30166L17.6286 0.801711Z" fill="black"/>
<path d="M21.1544 0.783281L17.6286 0.801711L17.6469 4.30166L21.1726 4.28323L21.1544 0.783281Z" fill="black"/>
<path d="M24.6801 0.764851L21.1544 0.783281L21.1726 4.28323L24.6984 4.2648L24.6801 0.764851Z" fill="black"/>
<path d="M28.2058 0.746421L24.6801 0.764851L24.6984 4.2648L28.2241 4.24637L28.2058 0.746421Z" fill="black"/>
<path d="M31.7315 0.727991L28.2058 0.746421L28.2241 4.24637L31.7498 4.22794L31.7315 0.727991Z" fill="black"/>
<path d="M35.2573 0.709561L31.7315 0.727991L31.7498 4.22794L35.2755 4.20951L35.2573 0.709561Z" fill="black"/>
<path d="M38.783 0.691131L35.2573 0.709561L35.2755 4.20951L38.8013 4.19108L38.783 0.691131Z" fill="black"/>
<path d="M42.3087 0.672701L38.783 0.691131L38.8013 4.19108L42.327 4.17265L42.3087 0.672701Z" fill="black"/>
<path d="M45.8344 0.654272L42.3087 0.672701L42.327 4.17265L45.8527 4.15422L45.8344 0.654272Z" fill="black"/>
<path d="M49.3602 0.635842L45.8344 0.654272L45.8527 4.15422L49.3784 4.13579L49.3602 0.635842Z" fill="black"/>
<path d="M153.369 0.0921604L49.3602 0.635842L49.3784 4.13579L153.387 3.59211L153.369 0.0921604Z" fill="black"/>
<path d="M156.895 0.0737306L153.369 0.0921604L153.387 3.59211L156.913 3.57368L156.895 0.0737306Z" fill="black"/>
<path d="M160.42 0.0553007L156.895 0.0737306L156.913 3.57368L160.439 3.55525L160.42 0.0553007Z" fill="black"/>
<path d="M14.1212 4.32009L10.5955 4.33852L10.6138 7.83847L14.1395 7.82004L14.1212 4.32009Z" fill="black"/>
<path d="M163.965 3.53682L160.439 3.55525L160.457 7.05521L163.983 7.03678L163.965 3.53682Z" fill="black"/>
<path d="M7.08804 7.8569L3.56232 7.87533L3.58061 11.3753L7.10634 11.3569L7.08804 7.8569Z" fill="black"/>
<path d="M10.6138 7.83847L7.08804 7.8569L7.10634 11.3569L10.6321 11.3384L10.6138 7.83847Z" fill="black"/>
<path d="M167.509 7.01835L163.983 7.03678L164.001 10.5367L167.527 10.5183L167.509 7.01835Z" fill="black"/>
<path d="M7.10634 11.3569L3.58061 11.3753L3.59891 14.8752L7.12463 14.8568L7.10634 11.3569Z" fill="black"/>
<path d="M171.053 10.4999L167.527 10.5183L167.545 14.0182L171.071 13.9998L171.053 10.4999Z" fill="black"/>
<path d="M7.12463 14.8568L3.59891 14.8752L3.6172 18.3752L7.14293 18.3568L7.12463 14.8568Z" fill="black"/>
<path d="M171.071 13.9998L167.545 14.0182L167.563 17.5182L171.089 17.4998L171.071 13.9998Z" fill="black"/>
<path d="M7.14293 18.3568L3.6172 18.3752L3.6355 21.8751L7.16122 21.8567L7.14293 18.3568Z" fill="black"/>
<path d="M171.089 17.4998L167.563 17.5182L167.582 21.0182L171.107 20.9997L171.089 17.4998Z" fill="black"/>
<path d="M7.16122 21.8567L3.6355 21.8751L3.65379 25.3751L7.17952 25.3567L7.16122 21.8567Z" fill="black"/>
<path d="M167.582 21.0182L164.056 21.0366L164.074 24.5365L167.6 24.5181L167.582 21.0182Z" fill="black"/>
<path d="M171.107 20.9997L167.582 21.0182L167.6 24.5181L171.126 24.4997L171.107 20.9997Z" fill="black"/>
<path d="M3.65379 25.3751L0.128066 25.3935L0.146361 28.8935L3.67209 28.875L3.65379 25.3751Z" fill="black"/>
<path d="M167.6 24.5181L164.074 24.5365L164.093 28.0365L167.618 28.0181L167.6 24.5181Z" fill="black"/>
<path d="M3.67209 28.875L0.146361 28.8935L0.164656 32.3934L3.69038 32.375L3.67209 28.875Z" fill="black"/>
<path d="M14.2493 28.8198L10.7235 28.8382L10.7418 32.3381L14.2676 32.3197L14.2493 28.8198Z" fill="black"/>
<path d="M164.093 28.0365L160.567 28.0549L160.585 31.5549L164.111 31.5364L164.093 28.0365Z" fill="black"/>
<path d="M3.69038 32.375L0.164656 32.3934L0.182952 35.8934L3.70868 35.875L3.69038 32.375Z" fill="black"/>
<path d="M10.7418 32.3381L7.21611 32.3566L7.2344 35.8565L10.7601 35.8381L10.7418 32.3381Z" fill="black"/>
<path d="M17.7933 32.3013L14.2676 32.3197L14.2859 35.8197L17.8116 35.8012L17.7933 32.3013Z" fill="black"/>
<path d="M21.319 32.2829L17.7933 32.3013L17.8116 35.8012L21.3373 35.7828L21.319 32.2829Z" fill="black"/>
<path d="M24.8447 32.2644L21.319 32.2829L21.3373 35.7828L24.863 35.7644L24.8447 32.2644Z" fill="black"/>
<path d="M28.3705 32.246L24.8447 32.2644L24.863 35.7644L28.3888 35.7459L28.3705 32.246Z" fill="black"/>
<path d="M31.8962 32.2276L28.3705 32.246L28.3888 35.7459L31.9145 35.7275L31.8962 32.2276Z" fill="black"/>
<path d="M35.4219 32.2091L31.8962 32.2276L31.9145 35.7275L35.4402 35.7091L35.4219 32.2091Z" fill="black"/>
<path d="M38.9476 32.1907L35.4219 32.2091L35.4402 35.7091L38.9659 35.6907L38.9476 32.1907Z" fill="black"/>
<path d="M42.4734 32.1723L38.9476 32.1907L38.9659 35.6907L42.4917 35.6722L42.4734 32.1723Z" fill="black"/>
<path d="M45.9991 32.1538L42.4734 32.1723L42.4917 35.6722L46.0174 35.6538L45.9991 32.1538Z" fill="black"/>
<path d="M49.5248 32.1354L45.9991 32.1538L46.0174 35.6538L49.5431 35.6354L49.5248 32.1354Z" fill="black"/>
<path d="M153.534 31.5917L49.5248 32.1354L49.5431 35.6354L153.552 35.0917L153.534 31.5917Z" fill="black"/>
<path d="M157.059 31.5733L153.534 31.5917L153.552 35.0917L157.078 35.0733L157.059 31.5733Z" fill="black"/>
<path d="M160.585 31.5549L157.059 31.5733L157.078 35.0733L160.603 35.0548L160.585 31.5549Z" fill="black"/>
<path d="M3.70868 35.875L0.182952 35.8934L0.201247 39.3933L3.72697 39.3749L3.70868 35.875Z" fill="black"/>
<path d="M7.2344 35.8565L3.70868 35.875L3.72697 39.3749L7.2527 39.3565L7.2344 35.8565Z" fill="black"/>
<path d="M7.2527 39.3565L3.72697 39.3749L3.74527 42.8749L7.27099 42.8564L7.2527 39.3565Z" fill="black"/>
</svg>
