<svg width="343" height="373" viewBox="0 0 343 373" fill="none" xmlns="http://www.w3.org/2000/svg">
<path d="M7.53591 1.3429L1.02637 9.54528V372.343H342.026V8.91432L335.016 1.3429H7.53591Z" fill="#FFFDE5"/>
<path d="M336.174 4.88383L338.278 4.87891L338.279 2.13926L336.175 2.14418L336.174 4.88383Z" fill="black"/>
<path d="M4.16527 2.50105L4.16919 5.14417L6.34966 5.14555L6.34574 2.50243L4.16527 2.50105Z" fill="black"/>
<path d="M6.17479 -4.44404e-05L6.17871 2.64307L336.223 2.85195L336.219 0.208842L6.17479 -4.44404e-05Z" fill="black"/>
<path d="M338.165 7.40849L340.268 7.40356L340.269 4.66391L338.166 4.66884L338.165 7.40849Z" fill="black"/>
<path d="M2.2307 5.00264L2.23462 7.64575L4.41509 7.64713L4.41117 5.00402L2.2307 5.00264Z" fill="black"/>
<path d="M2.24963 7.65047L0.145996 7.6554L-5.9738e-05 371.932L2.10358 371.927L2.24963 7.65047Z" fill="black"/>
<path d="M340.01 372.343L342.114 372.338L342.26 7.18672L340.157 7.19165L340.01 372.343Z" fill="black"/>
</svg>
