<svg width="107" height="45" viewBox="0 0 107 45" fill="none" xmlns="http://www.w3.org/2000/svg">
<path d="M1.26612 10.4476L1.25536 20.7369L1.24029 35.1419L5.15144 43.4354L102.494 43.6067L105.441 36.1079L105.795 10.7329L102.209 3.13048L5.1945 2.27837L1.26612 10.4476Z" fill="#FFFDE5"/>
<path d="M4.61929 39.9283L3.24854 39.9254L3.25137 42.9712L4.62213 42.9741L4.61929 39.9283Z" fill="black"/>
<path d="M5.61929 39.9283L4.24854 39.9254L4.25137 42.9712L5.62213 42.9741L5.61929 39.9283Z" fill="black"/>
<path d="M102.543 6.20609L104.29 6.20978L104.287 3.16396L102.54 3.16026L102.543 6.20609Z" fill="black"/>
<path d="M2.85037 3.42078L2.85681 6.57501L4.71349 6.58833L4.70705 3.43409L2.85037 3.42078Z" fill="black"/>
<path d="M104.23 42.4836L104.224 39.5587L102.449 39.546L102.455 42.4708L104.23 42.4836Z" fill="black"/>
<path d="M4.50551 1.28135L4.52191 3.6311L102.882 3.78639L102.866 1.43664L4.50551 1.28135Z" fill="black"/>
<path d="M4.57973 42.2232L4.59613 44.573L102.957 44.7283L102.94 42.3785L4.57973 42.2232Z" fill="black"/>
<path d="M3.39305 37.1264L1.396 37.1223L1.39894 40.1681L3.396 40.1722L3.39305 37.1264Z" fill="black"/>
<path d="M103.531 9.00747L105.627 9.0119L105.624 5.96608L103.528 5.96165L103.531 9.00747Z" fill="black"/>
<path d="M1.53303 6.42853L1.539 9.35339L3.44959 9.3671L3.44362 6.44223L1.53303 6.42853Z" fill="black"/>
<path d="M105.439 39.7044L105.433 36.7795L103.712 36.7672L103.718 39.6921L105.439 39.7044Z" fill="black"/>
<path d="M2.15294 9.0931L0 9.0885L0.0260199 37.3677L2.17896 37.3723L2.15294 9.0931Z" fill="black"/>
<path d="M104.994 37.0858L106.967 37.09L106.941 8.76626L104.967 8.76205L104.994 37.0858Z" fill="black"/>
</svg>
