<svg width="168" height="36" viewBox="0 0 168 36" fill="none" xmlns="http://www.w3.org/2000/svg">
<path d="M2.5 12.5V19L1.5 23.5L12 34H154L166.5 23V13L156 2L12 3L2.5 12.5Z" fill="#FFFDE5"/>
<mask id="path-2-inside-1_159_1119" fill="white">
<path d="M14.1029 0.801708L10.5772 0.820138L10.5955 4.32009L14.1212 4.30166L14.1029 0.801708Z"/>
<path d="M17.6286 0.783278L14.1029 0.801708L14.1212 4.30166L17.6469 4.28323L17.6286 0.783278Z"/>
<path d="M21.1543 0.764848L17.6286 0.783278L17.6469 4.28323L21.1726 4.2648L21.1543 0.764848Z"/>
<path d="M24.6801 0.746418L21.1543 0.764848L21.1726 4.2648L24.6984 4.24637L24.6801 0.746418Z"/>
<path d="M28.2058 0.727988L24.6801 0.746418L24.6984 4.24637L28.2241 4.22794L28.2058 0.727988Z"/>
<path d="M31.7315 0.709558L28.2058 0.727988L28.2241 4.22794L31.7498 4.20951L31.7315 0.709558Z"/>
<path d="M35.2572 0.691129L31.7315 0.709558L31.7498 4.20951L35.2755 4.19108L35.2572 0.691129Z"/>
<path d="M38.783 0.672699L35.2572 0.691129L35.2755 4.19108L38.8013 4.17265L38.783 0.672699Z"/>
<path d="M42.3087 0.654269L38.783 0.672699L38.8013 4.17265L42.327 4.15422L42.3087 0.654269Z"/>
<path d="M45.8344 0.635839L42.3087 0.654269L42.327 4.15422L45.8527 4.13579L45.8344 0.635839Z"/>
<path d="M149.843 0.0921575L45.8344 0.635839L45.8527 4.13579L149.862 3.59211L149.843 0.0921575Z"/>
<path d="M153.369 0.0737276L149.843 0.0921575L149.862 3.59211L153.387 3.57368L153.369 0.0737276Z"/>
<path d="M156.895 0.0552978L153.369 0.0737276L153.387 3.57368L156.913 3.55525L156.895 0.0552978Z"/>
<path d="M10.5955 4.32009L7.06975 4.33852L7.08804 7.83847L10.6138 7.82004L10.5955 4.32009Z"/>
<path d="M160.439 3.53682L156.913 3.55525L156.931 7.0552L160.457 7.03677L160.439 3.53682Z"/>
<path d="M7.08804 7.83847L3.56232 7.8569L3.58061 11.3569L7.10634 11.3384L7.08804 7.83847Z"/>
<path d="M163.983 7.01834L160.457 7.03677L160.475 10.5367L164.001 10.5183L163.983 7.01834Z"/>
<path d="M3.58061 11.3569L0.0548855 11.3753L0.0731806 14.8752L3.59891 14.8568L3.58061 11.3569Z"/>
<path d="M167.527 10.4999L164.001 10.5183L164.019 14.0182L167.545 13.9998L167.527 10.4999Z"/>
<path d="M3.59891 14.8568L0.0731806 14.8752L0.0914758 18.3752L3.6172 18.3568L3.59891 14.8568Z"/>
<path d="M167.545 13.9998L164.019 14.0182L164.038 17.5182L167.563 17.4998L167.545 13.9998Z"/>
<path d="M3.6172 18.3568L0.0914758 18.3752L0.109771 21.8751L3.6355 21.8567L3.6172 18.3568Z"/>
<path d="M167.563 17.4998L164.038 17.5182L164.056 21.0182L167.582 20.9997L167.563 17.4998Z"/>
<path d="M3.6355 21.8567L0.109771 21.8751L0.128066 25.3751L3.65379 25.3567L3.6355 21.8567Z"/>
<path d="M167.582 20.9997L164.056 21.0182L164.074 24.5181L167.6 24.4997L167.582 20.9997Z"/>
<path d="M10.7235 28.8198L7.19781 28.8382L7.21611 32.3381L10.7418 32.3197L10.7235 28.8198Z"/>
<path d="M160.567 28.0365L157.041 28.0549L157.059 31.5549L160.585 31.5364L160.567 28.0365Z"/>
<path d="M14.2676 32.3013L10.7418 32.3197L10.7601 35.8197L14.2859 35.8012L14.2676 32.3013Z"/>
<path d="M17.7933 32.2828L14.2676 32.3013L14.2859 35.8012L17.8116 35.7828L17.7933 32.2828Z"/>
<path d="M21.319 32.2644L17.7933 32.2828L17.8116 35.7828L21.3373 35.7644L21.319 32.2644Z"/>
<path d="M24.8447 32.246L21.319 32.2644L21.3373 35.7644L24.863 35.7459L24.8447 32.246Z"/>
<path d="M28.3705 32.2276L24.8447 32.246L24.863 35.7459L28.3888 35.7275L28.3705 32.2276Z"/>
<path d="M31.8962 32.2091L28.3705 32.2276L28.3888 35.7275L31.9145 35.7091L31.8962 32.2091Z"/>
<path d="M35.4219 32.1907L31.8962 32.2091L31.9145 35.7091L35.4402 35.6907L35.4219 32.1907Z"/>
<path d="M38.9476 32.1723L35.4219 32.1907L35.4402 35.6907L38.9659 35.6722L38.9476 32.1723Z"/>
<path d="M42.4734 32.1538L38.9476 32.1723L38.9659 35.6722L42.4917 35.6538L42.4734 32.1538Z"/>
<path d="M45.9991 32.1354L42.4734 32.1538L42.4917 35.6538L46.0174 35.6354L45.9991 32.1354Z"/>
<path d="M150.008 31.5917L45.9991 32.1354L46.0174 35.6354L150.026 35.0917L150.008 31.5917Z"/>
<path d="M153.534 31.5733L150.008 31.5917L150.026 35.0917L153.552 35.0732L153.534 31.5733Z"/>
<path d="M157.059 31.5549L153.534 31.5733L153.552 35.0732L157.078 35.0548L157.059 31.5549Z"/>
<path d="M7.17952 25.3382L3.65379 25.3567L3.67209 28.8566L7.19781 28.8382L7.17952 25.3382Z"/>
<path d="M164.074 24.5181L160.549 24.5365L160.567 28.0365L164.093 28.0181L164.074 24.5181Z"/>
</mask>
<path d="M14.1029 0.801708L10.5772 0.820138L10.5955 4.32009L14.1212 4.30166L14.1029 0.801708Z" fill="black"/>
<path d="M17.6286 0.783278L14.1029 0.801708L14.1212 4.30166L17.6469 4.28323L17.6286 0.783278Z" fill="black"/>
<path d="M21.1543 0.764848L17.6286 0.783278L17.6469 4.28323L21.1726 4.2648L21.1543 0.764848Z" fill="black"/>
<path d="M24.6801 0.746418L21.1543 0.764848L21.1726 4.2648L24.6984 4.24637L24.6801 0.746418Z" fill="black"/>
<path d="M28.2058 0.727988L24.6801 0.746418L24.6984 4.24637L28.2241 4.22794L28.2058 0.727988Z" fill="black"/>
<path d="M31.7315 0.709558L28.2058 0.727988L28.2241 4.22794L31.7498 4.20951L31.7315 0.709558Z" fill="black"/>
<path d="M35.2572 0.691129L31.7315 0.709558L31.7498 4.20951L35.2755 4.19108L35.2572 0.691129Z" fill="black"/>
<path d="M38.783 0.672699L35.2572 0.691129L35.2755 4.19108L38.8013 4.17265L38.783 0.672699Z" fill="black"/>
<path d="M42.3087 0.654269L38.783 0.672699L38.8013 4.17265L42.327 4.15422L42.3087 0.654269Z" fill="black"/>
<path d="M45.8344 0.635839L42.3087 0.654269L42.327 4.15422L45.8527 4.13579L45.8344 0.635839Z" fill="black"/>
<path d="M149.843 0.0921575L45.8344 0.635839L45.8527 4.13579L149.862 3.59211L149.843 0.0921575Z" fill="black"/>
<path d="M153.369 0.0737276L149.843 0.0921575L149.862 3.59211L153.387 3.57368L153.369 0.0737276Z" fill="black"/>
<path d="M156.895 0.0552978L153.369 0.0737276L153.387 3.57368L156.913 3.55525L156.895 0.0552978Z" fill="black"/>
<path d="M10.5955 4.32009L7.06975 4.33852L7.08804 7.83847L10.6138 7.82004L10.5955 4.32009Z" fill="black"/>
<path d="M160.439 3.53682L156.913 3.55525L156.931 7.0552L160.457 7.03677L160.439 3.53682Z" fill="black"/>
<path d="M7.08804 7.83847L3.56232 7.8569L3.58061 11.3569L7.10634 11.3384L7.08804 7.83847Z" fill="black"/>
<path d="M163.983 7.01834L160.457 7.03677L160.475 10.5367L164.001 10.5183L163.983 7.01834Z" fill="black"/>
<path d="M3.58061 11.3569L0.0548855 11.3753L0.0731806 14.8752L3.59891 14.8568L3.58061 11.3569Z" fill="black"/>
<path d="M167.527 10.4999L164.001 10.5183L164.019 14.0182L167.545 13.9998L167.527 10.4999Z" fill="black"/>
<path d="M3.59891 14.8568L0.0731806 14.8752L0.0914758 18.3752L3.6172 18.3568L3.59891 14.8568Z" fill="black"/>
<path d="M167.545 13.9998L164.019 14.0182L164.038 17.5182L167.563 17.4998L167.545 13.9998Z" fill="black"/>
<path d="M3.6172 18.3568L0.0914758 18.3752L0.109771 21.8751L3.6355 21.8567L3.6172 18.3568Z" fill="black"/>
<path d="M167.563 17.4998L164.038 17.5182L164.056 21.0182L167.582 20.9997L167.563 17.4998Z" fill="black"/>
<path d="M3.6355 21.8567L0.109771 21.8751L0.128066 25.3751L3.65379 25.3567L3.6355 21.8567Z" fill="black"/>
<path d="M167.582 20.9997L164.056 21.0182L164.074 24.5181L167.6 24.4997L167.582 20.9997Z" fill="black"/>
<path d="M10.7235 28.8198L7.19781 28.8382L7.21611 32.3381L10.7418 32.3197L10.7235 28.8198Z" fill="black"/>
<path d="M160.567 28.0365L157.041 28.0549L157.059 31.5549L160.585 31.5364L160.567 28.0365Z" fill="black"/>
<path d="M14.2676 32.3013L10.7418 32.3197L10.7601 35.8197L14.2859 35.8012L14.2676 32.3013Z" fill="black"/>
<path d="M17.7933 32.2828L14.2676 32.3013L14.2859 35.8012L17.8116 35.7828L17.7933 32.2828Z" fill="black"/>
<path d="M21.319 32.2644L17.7933 32.2828L17.8116 35.7828L21.3373 35.7644L21.319 32.2644Z" fill="black"/>
<path d="M24.8447 32.246L21.319 32.2644L21.3373 35.7644L24.863 35.7459L24.8447 32.246Z" fill="black"/>
<path d="M28.3705 32.2276L24.8447 32.246L24.863 35.7459L28.3888 35.7275L28.3705 32.2276Z" fill="black"/>
<path d="M31.8962 32.2091L28.3705 32.2276L28.3888 35.7275L31.9145 35.7091L31.8962 32.2091Z" fill="black"/>
<path d="M35.4219 32.1907L31.8962 32.2091L31.9145 35.7091L35.4402 35.6907L35.4219 32.1907Z" fill="black"/>
<path d="M38.9476 32.1723L35.4219 32.1907L35.4402 35.6907L38.9659 35.6722L38.9476 32.1723Z" fill="black"/>
<path d="M42.4734 32.1538L38.9476 32.1723L38.9659 35.6722L42.4917 35.6538L42.4734 32.1538Z" fill="black"/>
<path d="M45.9991 32.1354L42.4734 32.1538L42.4917 35.6538L46.0174 35.6354L45.9991 32.1354Z" fill="black"/>
<path d="M150.008 31.5917L45.9991 32.1354L46.0174 35.6354L150.026 35.0917L150.008 31.5917Z" fill="black"/>
<path d="M153.534 31.5733L150.008 31.5917L150.026 35.0917L153.552 35.0732L153.534 31.5733Z" fill="black"/>
<path d="M157.059 31.5549L153.534 31.5733L153.552 35.0732L157.078 35.0548L157.059 31.5549Z" fill="black"/>
<path d="M7.17952 25.3382L3.65379 25.3567L3.67209 28.8566L7.19781 28.8382L7.17952 25.3382Z" fill="black"/>
<path d="M164.074 24.5181L160.549 24.5365L160.567 28.0365L164.093 28.0181L164.074 24.5181Z" fill="black"/>
<path d="M14.1029 0.801708L13.6029 0.804321L13.6212 4.30427L14.1212 4.30166L14.6212 4.29905L14.6029 0.799094L14.1029 0.801708ZM17.6286 0.783278L17.1286 0.785891L17.1469 4.28584L17.6469 4.28323L18.1469 4.28062L18.1286 0.780664L17.6286 0.783278ZM21.1543 0.764848L20.6544 0.767462L20.6726 4.26741L21.1726 4.2648L21.6726 4.26219L21.6543 0.762234L21.1543 0.764848ZM24.6801 0.746418L24.1801 0.749032L24.1984 4.24898L24.6984 4.24637L25.1984 4.24376L25.1801 0.743805L24.6801 0.746418ZM28.2058 0.727988L27.7058 0.730602L27.7241 4.23055L28.2241 4.22794L28.7241 4.22533L28.7058 0.725375L28.2058 0.727988ZM31.7315 0.709558L31.2315 0.712172L31.2498 4.21212L31.7498 4.20951L32.2498 4.2069L32.2315 0.706945L31.7315 0.709558ZM35.2572 0.691129L34.7573 0.693742L34.7755 4.19369L35.2755 4.19108L35.7755 4.18847L35.7572 0.688515L35.2572 0.691129ZM38.783 0.672699L38.283 0.675312L38.3013 4.17526L38.8013 4.17265L39.3013 4.17004L39.283 0.670085L38.783 0.672699ZM42.3087 0.654269L41.8087 0.656882L41.827 4.15683L42.327 4.15422L42.827 4.15161L42.8087 0.651655L42.3087 0.654269ZM45.8344 0.635839L45.3344 0.638453L45.3527 4.1384L45.8527 4.13579L46.3527 4.13318L46.3344 0.633225L45.8344 0.635839ZM149.843 0.0921575L149.343 0.0947711L149.362 3.59472L149.862 3.59211L150.362 3.5895L150.343 0.0895439L149.843 0.0921575ZM153.369 0.0737276L152.869 0.0763412L152.887 3.57629L153.387 3.57368L153.887 3.57107L153.869 0.0711141L153.369 0.0737276ZM3.59891 14.8568L3.59629 14.3568L0.070567 14.3752L0.0731806 14.8752L0.0757942 15.3752L3.60152 15.3568L3.59891 14.8568ZM167.545 13.9998L167.543 13.4998L164.017 13.5183L164.019 14.0182L164.022 14.5182L167.548 14.4998L167.545 13.9998ZM3.6172 18.3568L3.61459 17.8568L0.0888622 17.8752L0.0914758 18.3752L0.0940893 18.8752L3.61981 18.8568L3.6172 18.3568ZM167.563 17.4998L167.561 16.9998L164.035 17.0182L164.038 17.5182L164.04 18.0182L167.566 17.9998L167.563 17.4998ZM3.6355 21.8567L3.63288 21.3567L0.107157 21.3751L0.109771 21.8751L0.112384 22.3751L3.63811 22.3567L3.6355 21.8567ZM167.582 20.9997L167.579 20.4997L164.053 20.5182L164.056 21.0182L164.059 21.5181L167.584 21.4997L167.582 20.9997ZM14.2676 32.3013L13.7676 32.3039L13.7859 35.8038L14.2859 35.8012L14.7858 35.7986L14.7675 32.2987L14.2676 32.3013ZM17.7933 32.2828L17.2933 32.2855L17.3116 35.7854L17.8116 35.7828L18.3116 35.7802L18.2933 32.2802L17.7933 32.2828ZM21.319 32.2644L20.819 32.267L20.8373 35.767L21.3373 35.7644L21.8373 35.7618L21.819 32.2618L21.319 32.2644ZM24.8447 32.246L24.3447 32.2486L24.363 35.7486L24.863 35.7459L25.363 35.7433L25.3447 32.2434L24.8447 32.246ZM28.3705 32.2276L27.8705 32.2302L27.8888 35.7301L28.3888 35.7275L28.8887 35.7249L28.8704 32.2249L28.3705 32.2276ZM31.8962 32.2091L31.3962 32.2117L31.4145 35.7117L31.9145 35.7091L32.4145 35.7065L32.3962 32.2065L31.8962 32.2091ZM35.4219 32.1907L34.9219 32.1933L34.9402 35.6933L35.4402 35.6907L35.9402 35.688L35.9219 32.1881L35.4219 32.1907ZM38.9476 32.1723L38.4476 32.1749L38.4659 35.6748L38.9659 35.6722L39.4659 35.6696L39.4476 32.1697L38.9476 32.1723ZM42.4734 32.1538L41.9734 32.1565L41.9917 35.6564L42.4917 35.6538L42.9916 35.6512L42.9733 32.1512L42.4734 32.1538ZM45.9991 32.1354L45.4991 32.138L45.5174 35.638L46.0174 35.6354L46.5174 35.6327L46.4991 32.1328L45.9991 32.1354ZM150.008 31.5917L149.508 31.5943L149.526 35.0943L150.026 35.0917L150.526 35.0891L150.508 31.5891L150.008 31.5917ZM153.534 31.5733L153.034 31.5759L153.052 35.0759L153.552 35.0732L154.052 35.0706L154.034 31.5707L153.534 31.5733ZM10.5772 0.820138L10.5719 -0.179849L9.57196 -0.174622L9.57719 0.825365L10.5772 0.820138ZM156.895 0.0552978L157.895 0.0500706L157.89 -0.949916L156.89 -0.944689L156.895 0.0552978ZM7.06975 4.33852L7.06452 3.33853L6.06453 3.34376L6.06976 4.34375L7.06975 4.33852ZM10.6138 7.82004L10.619 8.82003L11.619 8.8148L11.6138 7.81481L10.6138 7.82004ZM160.439 3.53682L161.439 3.53159L161.434 2.53161L160.434 2.53683L160.439 3.53682ZM156.931 7.0552L155.931 7.06043L155.937 8.06042L156.937 8.05519L156.931 7.0552ZM3.56232 7.8569L3.55709 6.85692L2.5571 6.86214L2.56233 7.86213L3.56232 7.8569ZM0.0548855 11.3753L0.0496583 10.3753L-0.950328 10.3805L-0.945101 11.3805L0.0548855 11.3753ZM7.10634 11.3384L7.11156 12.3384L8.11155 12.3332L8.10632 11.3332L7.10634 11.3384ZM163.983 7.01834L164.983 7.01312L164.978 6.01313L163.978 6.01836L163.983 7.01834ZM160.475 10.5367L159.475 10.542L159.481 11.5419L160.481 11.5367L160.475 10.5367ZM167.527 10.4999L168.527 10.4946L168.522 9.49465L167.522 9.49988L167.527 10.4999ZM0.128066 25.3751L-0.87192 25.3803L-0.866693 26.3803L0.133293 26.3751L0.128066 25.3751ZM167.6 24.4997L167.605 25.4997L168.605 25.4944L168.6 24.4944L167.6 24.4997ZM10.7235 28.8198L11.7235 28.8145L11.7183 27.8145L10.7183 27.8198L10.7235 28.8198ZM7.21611 32.3381L6.21612 32.3434L6.22135 33.3434L7.22134 33.3381L7.21611 32.3381ZM157.041 28.0549L157.036 27.0549L156.036 27.0602L156.041 28.0601L157.041 28.0549ZM160.585 31.5364L160.59 32.5364L161.59 32.5312L161.585 31.5312L160.585 31.5364ZM10.7601 35.8197L9.76014 35.8249L9.76537 36.8249L10.7654 36.8196L10.7601 35.8197ZM157.078 35.0548L157.083 36.0548L158.083 36.0496L158.078 35.0496L157.078 35.0548ZM7.17952 25.3382L8.1795 25.333L8.17427 24.333L7.17429 24.3382L7.17952 25.3382ZM3.67209 28.8566L2.6721 28.8618L2.67733 29.8618L3.67731 29.8566L3.67209 28.8566ZM160.549 24.5365L160.543 23.5365L159.543 23.5418L159.549 24.5418L160.549 24.5365ZM164.093 28.0181L164.098 29.018L165.098 29.0128L165.093 28.0128L164.093 28.0181ZM10.5772 0.820138L10.5824 1.82012L14.1081 1.80169L14.1029 0.801708L14.0977 -0.198279L10.5719 -0.179849L10.5772 0.820138ZM14.1212 4.30166L14.116 3.30167L10.5902 3.3201L10.5955 4.32009L10.6007 5.32008L14.1264 5.30165L14.1212 4.30166ZM10.5955 4.32009L11.5955 4.31486L11.5772 0.81491L10.5772 0.820138L9.57719 0.825365L9.59549 4.32532L10.5955 4.32009ZM14.1029 0.801708L14.1081 1.80169L17.6339 1.78326L17.6286 0.783278L17.6234 -0.216708L14.0977 -0.198279L14.1029 0.801708ZM17.6469 4.28323L17.6417 3.28324L14.116 3.30167L14.1212 4.30166L14.1264 5.30165L17.6521 5.28322L17.6469 4.28323ZM17.6286 0.783278L17.6339 1.78326L21.1596 1.76483L21.1543 0.764848L21.1491 -0.235138L17.6234 -0.216708L17.6286 0.783278ZM21.1726 4.2648L21.1674 3.26481L17.6417 3.28324L17.6469 4.28323L17.6521 5.28322L21.1779 5.26479L21.1726 4.2648ZM21.1543 0.764848L21.1596 1.76483L24.6853 1.7464L24.6801 0.746418L24.6748 -0.253568L21.1491 -0.235138L21.1543 0.764848ZM24.6984 4.24637L24.6931 3.24638L21.1674 3.26481L21.1726 4.2648L21.1779 5.26479L24.7036 5.24636L24.6984 4.24637ZM24.6801 0.746418L24.6853 1.7464L28.211 1.72797L28.2058 0.727988L28.2006 -0.271998L24.6748 -0.253568L24.6801 0.746418ZM28.2241 4.22794L28.2189 3.22795L24.6931 3.24638L24.6984 4.24637L24.7036 5.24636L28.2293 5.22793L28.2241 4.22794ZM28.2058 0.727988L28.211 1.72797L31.7368 1.70954L31.7315 0.709558L31.7263 -0.290428L28.2006 -0.271998L28.2058 0.727988ZM31.7498 4.20951L31.7446 3.20952L28.2189 3.22795L28.2241 4.22794L28.2293 5.22793L31.755 5.2095L31.7498 4.20951ZM31.7315 0.709558L31.7368 1.70954L35.2625 1.69111L35.2572 0.691129L35.252 -0.308858L31.7263 -0.290428L31.7315 0.709558ZM35.2755 4.19108L35.2703 3.19109L31.7446 3.20952L31.7498 4.20951L31.755 5.2095L35.2808 5.19107L35.2755 4.19108ZM35.2572 0.691129L35.2625 1.69111L38.7882 1.67269L38.783 0.672699L38.7777 -0.327288L35.252 -0.308858L35.2572 0.691129ZM38.8013 4.17265L38.796 3.17266L35.2703 3.19109L35.2755 4.19108L35.2808 5.19107L38.8065 5.17264L38.8013 4.17265ZM38.783 0.672699L38.7882 1.67269L42.3139 1.65426L42.3087 0.654269L42.3035 -0.345718L38.7777 -0.327288L38.783 0.672699ZM42.327 4.15422L42.3218 3.15423L38.796 3.17266L38.8013 4.17265L38.8065 5.17264L42.3322 5.15421L42.327 4.15422ZM42.3087 0.654269L42.3139 1.65426L45.8397 1.63583L45.8344 0.635839L45.8292 -0.364147L42.3035 -0.345718L42.3087 0.654269ZM45.8527 4.13579L45.8475 3.1358L42.3218 3.15423L42.327 4.15422L42.3322 5.15421L45.8579 5.13578L45.8527 4.13579ZM45.8344 0.635839L45.8397 1.63583L149.849 1.09214L149.843 0.0921575L149.838 -0.907829L45.8292 -0.364147L45.8344 0.635839ZM149.862 3.59211L149.856 2.59212L45.8475 3.1358L45.8527 4.13579L45.8579 5.13578L149.867 4.5921L149.862 3.59211ZM149.843 0.0921575L149.849 1.09214L153.374 1.07371L153.369 0.0737276L153.364 -0.926259L149.838 -0.907829L149.843 0.0921575ZM153.387 3.57368L153.382 2.57369L149.856 2.59212L149.862 3.59211L149.867 4.5921L153.393 4.57367L153.387 3.57368ZM153.369 0.0737276L153.374 1.07371L156.9 1.05528L156.895 0.0552978L156.89 -0.944689L153.364 -0.926259L153.369 0.0737276ZM156.895 0.0552978L155.895 0.060525L155.913 3.56048L156.913 3.55525L157.913 3.55002L157.895 0.0500706L156.895 0.0552978ZM156.913 3.55525L156.908 2.55526L153.382 2.57369L153.387 3.57368L153.393 4.57367L156.918 4.55524L156.913 3.55525ZM7.06975 4.33852L7.07497 5.33851L10.6007 5.32008L10.5955 4.32009L10.5902 3.3201L7.06452 3.33853L7.06975 4.33852ZM10.5955 4.32009L9.59549 4.32532L9.61378 7.82527L10.6138 7.82004L11.6138 7.81481L11.5955 4.31486L10.5955 4.32009ZM10.6138 7.82004L10.6085 6.82006L7.08282 6.83849L7.08804 7.83847L7.09327 8.83846L10.619 8.82003L10.6138 7.82004ZM7.08804 7.83847L8.08803 7.83324L8.06973 4.33329L7.06975 4.33852L6.06976 4.34375L6.08806 7.8437L7.08804 7.83847ZM156.913 3.55525L156.918 4.55524L160.444 4.53681L160.439 3.53682L160.434 2.53683L156.908 2.55526L156.913 3.55525ZM160.439 3.53682L159.439 3.54205L159.457 7.042L160.457 7.03677L161.457 7.03155L161.439 3.53159L160.439 3.53682ZM160.457 7.03677L160.452 6.03679L156.926 6.05522L156.931 7.0552L156.937 8.05519L160.462 8.03676L160.457 7.03677ZM156.931 7.0552L157.931 7.04998L157.913 3.55002L156.913 3.55525L155.913 3.56048L155.931 7.06043L156.931 7.0552ZM3.56232 7.8569L2.56233 7.86213L2.58062 11.3621L3.58061 11.3569L4.5806 11.3516L4.5623 7.85167L3.56232 7.8569ZM3.58061 11.3569L3.57538 10.3569L0.0496583 10.3753L0.0548855 11.3753L0.0601126 12.3753L3.58584 12.3568L3.58061 11.3569ZM3.56232 7.8569L3.56754 8.85689L7.09327 8.83846L7.08804 7.83847L7.08282 6.83849L3.55709 6.85692L3.56232 7.8569ZM7.08804 7.83847L6.08806 7.8437L6.10635 11.3437L7.10634 11.3384L8.10632 11.3332L8.08803 7.83324L7.08804 7.83847ZM7.10634 11.3384L7.10111 10.3384L3.57538 10.3569L3.58061 11.3569L3.58584 12.3568L7.11156 12.3384L7.10634 11.3384ZM160.457 7.03677L160.462 8.03676L163.988 8.01833L163.983 7.01834L163.978 6.01836L160.452 6.03679L160.457 7.03677ZM163.983 7.01834L162.983 7.02357L163.001 10.5235L164.001 10.5183L165.001 10.5131L164.983 7.01312L163.983 7.01834ZM164.001 10.5183L163.996 9.51831L160.47 9.53674L160.475 10.5367L160.481 11.5367L164.006 11.5183L164.001 10.5183ZM160.475 10.5367L161.475 10.5315L161.457 7.03155L160.457 7.03677L159.457 7.042L159.475 10.542L160.475 10.5367ZM3.58061 11.3569L2.58062 11.3621L2.59892 14.862L3.59891 14.8568L4.59889 14.8516L4.5806 11.3516L3.58061 11.3569ZM0.0731806 14.8752L1.07317 14.87L1.05487 11.3701L0.0548855 11.3753L-0.945101 11.3805L-0.926806 14.8805L0.0731806 14.8752ZM164.001 10.5183L164.006 11.5183L167.532 11.4999L167.527 10.4999L167.522 9.49988L163.996 9.51831L164.001 10.5183ZM167.527 10.4999L166.527 10.5051L166.545 14.005L167.545 13.9998L168.545 13.9946L168.527 10.4946L167.527 10.4999ZM164.019 14.0182L165.019 14.013L165.001 10.5131L164.001 10.5183L163.001 10.5235L163.019 14.0235L164.019 14.0182ZM3.59891 14.8568L2.59892 14.862L2.61721 18.362L3.6172 18.3568L4.61719 18.3515L4.59889 14.8516L3.59891 14.8568ZM0.0914758 18.3752L1.09146 18.37L1.07317 14.87L0.0731806 14.8752L-0.926806 14.8805L-0.908511 18.3804L0.0914758 18.3752ZM167.545 13.9998L166.545 14.005L166.563 17.505L167.563 17.4998L168.563 17.4945L168.545 13.9946L167.545 13.9998ZM164.038 17.5182L165.038 17.513L165.019 14.013L164.019 14.0182L163.019 14.0235L163.038 17.5234L164.038 17.5182ZM3.6172 18.3568L2.61721 18.362L2.63551 21.8619L3.6355 21.8567L4.63548 21.8515L4.61719 18.3515L3.6172 18.3568ZM0.109771 21.8751L1.10976 21.8699L1.09146 18.37L0.0914758 18.3752L-0.908511 18.3804L-0.890215 21.8804L0.109771 21.8751ZM167.563 17.4998L166.563 17.505L166.582 21.0049L167.582 20.9997L168.582 20.9945L168.563 17.4945L167.563 17.4998ZM164.056 21.0182L165.056 21.0129L165.038 17.513L164.038 17.5182L163.038 17.5234L163.056 21.0234L164.056 21.0182ZM3.6355 21.8567L2.63551 21.8619L2.6538 25.3619L3.65379 25.3567L4.65378 25.3514L4.63548 21.8515L3.6355 21.8567ZM3.65379 25.3567L3.64856 24.3567L0.122839 24.3751L0.128066 25.3751L0.133293 26.3751L3.65902 26.3566L3.65379 25.3567ZM0.128066 25.3751L1.12805 25.3699L1.10976 21.8699L0.109771 21.8751L-0.890215 21.8804L-0.87192 25.3803L0.128066 25.3751ZM164.056 21.0182L163.056 21.0234L163.074 24.5233L164.074 24.5181L165.074 24.5129L165.056 21.0129L164.056 21.0182ZM167.582 20.9997L166.582 21.0049L166.6 24.5049L167.6 24.4997L168.6 24.4944L168.582 20.9945L167.582 20.9997ZM167.6 24.4997L167.595 23.4997L164.069 23.5181L164.074 24.5181L164.08 25.5181L167.605 25.4997L167.6 24.4997ZM7.19781 28.8382L7.20304 29.8382L10.7288 29.8197L10.7235 28.8198L10.7183 27.8198L7.19259 27.8382L7.19781 28.8382ZM10.7235 28.8198L9.72355 28.825L9.74185 32.3249L10.7418 32.3197L11.7418 32.3145L11.7235 28.8145L10.7235 28.8198ZM10.7418 32.3197L10.7366 31.3197L7.21088 31.3382L7.21611 32.3381L7.22134 33.3381L10.7471 33.3197L10.7418 32.3197ZM7.21611 32.3381L8.21609 32.3329L8.1978 28.833L7.19781 28.8382L6.19783 28.8434L6.21612 32.3434L7.21611 32.3381ZM157.041 28.0549L157.046 29.0549L160.572 29.0365L160.567 28.0365L160.562 27.0365L157.036 27.0549L157.041 28.0549ZM160.567 28.0365L159.567 28.0417L159.585 31.5417L160.585 31.5364L161.585 31.5312L161.567 28.0313L160.567 28.0365ZM160.585 31.5364L160.58 30.5365L157.054 30.5549L157.059 31.5549L157.065 32.5549L160.59 32.5364L160.585 31.5364ZM157.059 31.5549L158.059 31.5496L158.041 28.0497L157.041 28.0549L156.041 28.0601L156.059 31.5601L157.059 31.5549ZM10.7418 32.3197L10.7471 33.3197L14.2728 33.3013L14.2676 32.3013L14.2623 31.3013L10.7366 31.3197L10.7418 32.3197ZM14.2859 35.8012L14.2806 34.8012L10.7549 34.8197L10.7601 35.8197L10.7654 36.8196L14.2911 36.8012L14.2859 35.8012ZM10.7601 35.8197L11.7601 35.8144L11.7418 32.3145L10.7418 32.3197L9.74185 32.3249L9.76014 35.8249L10.7601 35.8197ZM14.2676 32.3013L14.2728 33.3013L17.7985 33.2828L17.7933 32.2828L17.7881 31.2829L14.2623 31.3013L14.2676 32.3013ZM17.8116 35.7828L17.8063 34.7828L14.2806 34.8012L14.2859 35.8012L14.2911 36.8012L17.8168 36.7828L17.8116 35.7828ZM17.7933 32.2828L17.7985 33.2828L21.3242 33.2644L21.319 32.2644L21.3138 31.2644L17.7881 31.2829L17.7933 32.2828ZM21.3373 35.7644L21.3321 34.7644L17.8063 34.7828L17.8116 35.7828L17.8168 36.7828L21.3425 36.7644L21.3373 35.7644ZM21.319 32.2644L21.3242 33.2644L24.85 33.246L24.8447 32.246L24.8395 31.246L21.3138 31.2644L21.319 32.2644ZM24.863 35.7459L24.8578 34.746L21.3321 34.7644L21.3373 35.7644L21.3425 36.7644L24.8683 36.7459L24.863 35.7459ZM24.8447 32.246L24.85 33.246L28.3757 33.2275L28.3705 32.2276L28.3652 31.2276L24.8395 31.246L24.8447 32.246ZM28.3888 35.7275L28.3835 34.7275L24.8578 34.746L24.863 35.7459L24.8683 36.7459L28.394 36.7275L28.3888 35.7275ZM28.3705 32.2276L28.3757 33.2275L31.9014 33.2091L31.8962 32.2091L31.891 31.2091L28.3652 31.2276L28.3705 32.2276ZM31.9145 35.7091L31.9093 34.7091L28.3835 34.7275L28.3888 35.7275L28.394 36.7275L31.9197 36.7091L31.9145 35.7091ZM31.8962 32.2091L31.9014 33.2091L35.4271 33.1907L35.4219 32.1907L35.4167 31.1907L31.891 31.2091L31.8962 32.2091ZM35.4402 35.6907L35.435 34.6907L31.9093 34.7091L31.9145 35.7091L31.9197 36.7091L35.4454 36.6906L35.4402 35.6907ZM35.4219 32.1907L35.4271 33.1907L38.9529 33.1723L38.9476 32.1723L38.9424 31.1723L35.4167 31.1907L35.4219 32.1907ZM38.9659 35.6722L38.9607 34.6722L35.435 34.6907L35.4402 35.6907L35.4454 36.6906L38.9712 36.6722L38.9659 35.6722ZM38.9476 32.1723L38.9529 33.1723L42.4786 33.1538L42.4734 32.1538L42.4681 31.1539L38.9424 31.1723L38.9476 32.1723ZM42.4917 35.6538L42.4864 34.6538L38.9607 34.6722L38.9659 35.6722L38.9712 36.6722L42.4969 36.6538L42.4917 35.6538ZM42.4734 32.1538L42.4786 33.1538L46.0043 33.1354L45.9991 32.1354L45.9939 31.1354L42.4681 31.1539L42.4734 32.1538ZM46.0174 35.6354L46.0121 34.6354L42.4864 34.6538L42.4917 35.6538L42.4969 36.6538L46.0226 36.6353L46.0174 35.6354ZM45.9991 32.1354L46.0043 33.1354L150.013 32.5917L150.008 31.5917L150.003 30.5917L45.9939 31.1354L45.9991 32.1354ZM150.026 35.0917L150.021 34.0917L46.0121 34.6354L46.0174 35.6354L46.0226 36.6353L150.032 36.0917L150.026 35.0917ZM150.008 31.5917L150.013 32.5917L153.539 32.5733L153.534 31.5733L153.529 30.5733L150.003 30.5917L150.008 31.5917ZM153.552 35.0732L153.547 34.0733L150.021 34.0917L150.026 35.0917L150.032 36.0917L153.557 36.0732L153.552 35.0732ZM153.534 31.5733L153.539 32.5733L157.065 32.5549L157.059 31.5549L157.054 30.5549L153.529 30.5733L153.534 31.5733ZM157.059 31.5549L156.059 31.5601L156.078 35.06L157.078 35.0548L158.078 35.0496L158.059 31.5496L157.059 31.5549ZM157.078 35.0548L157.073 34.0548L153.547 34.0733L153.552 35.0732L153.557 36.0732L157.083 36.0548L157.078 35.0548ZM3.65379 25.3567L3.65902 26.3566L7.18474 26.3382L7.17952 25.3382L7.17429 24.3382L3.64856 24.3567L3.65379 25.3567ZM7.17952 25.3382L6.17953 25.3435L6.19783 28.8434L7.19781 28.8382L8.1978 28.833L8.1795 25.333L7.17952 25.3382ZM7.19781 28.8382L7.19259 27.8382L3.66686 27.8566L3.67209 28.8566L3.67731 29.8566L7.20304 29.8382L7.19781 28.8382ZM3.67209 28.8566L4.67207 28.8514L4.65378 25.3514L3.65379 25.3567L2.6538 25.3619L2.6721 28.8618L3.67209 28.8566ZM160.549 24.5365L160.554 25.5365L164.08 25.5181L164.074 24.5181L164.069 23.5181L160.543 23.5365L160.549 24.5365ZM164.074 24.5181L163.074 24.5233L163.093 28.0233L164.093 28.0181L165.093 28.0128L165.074 24.5129L164.074 24.5181ZM164.093 28.0181L164.087 27.0181L160.562 27.0365L160.567 28.0365L160.572 29.0365L164.098 29.018L164.093 28.0181ZM160.567 28.0365L161.567 28.0313L161.549 24.5313L160.549 24.5365L159.549 24.5418L159.567 28.0417L160.567 28.0365Z" fill="black" mask="url(#path-2-inside-1_159_1119)"/>
</svg>
