<svg width="338" height="314" viewBox="0 0 338 314" fill="none" xmlns="http://www.w3.org/2000/svg">
<path d="M14.5927 301.892L9.82424 301.901L9.82173 306.84L14.5902 306.831L14.5927 301.892Z" fill="black"/>
<path d="M4.37952 17.064L4.29991 34.0523L3.30936 295.341L17.3094 309.341L320.309 309.341L333.809 295.341L334.309 16.3408L320.309 4.34082L16.8094 4.34075L4.37952 17.064Z" fill="#FFFDE5"/>
<path d="M10.5022 5.80169L10.5111 10.5667L15.4538 10.5691L15.4449 5.80416L10.5022 5.80169Z" fill="black"/>
<path d="M327.261 306.99L327.252 302.225L322.309 302.222L322.318 306.987L327.261 306.99Z" fill="black"/>
<path d="M14.3671 306.811L14.3759 311.577L322.473 311.731L322.464 306.965L14.3671 306.811Z" fill="black"/>
<path d="M10.0804 297.341L5.31191 297.35L5.3094 302.289L10.0779 302.28L10.0804 297.341Z" fill="black"/>
<path d="M6.11669 10.3112L6.12557 15.0762L11.0683 15.0786L11.0594 10.3137L6.11669 10.3112Z" fill="black"/>
<path d="M331.646 302.48L331.638 297.715L326.695 297.712L326.704 302.477L331.646 302.48Z" fill="black"/>
<path d="M6.15991 14.3412L1.39156 14.3477L1.19497 297.278L5.96332 297.271L6.15991 14.3412Z" fill="black"/>
<path d="M331.309 297.956L336.078 297.949L336.275 14.2781L331.506 14.2846L331.309 297.956Z" fill="black"/>
<path d="M15.4089 1.34939L15.4178 6.11548L322.927 6.26922L322.918 1.50313L15.4089 1.34939Z" fill="black"/>
<path d="M332.077 10.341L327.312 10.3499L327.309 15.2925L332.074 15.2837L332.077 10.341Z" fill="black"/>
<path d="M327.077 5.34098L322.312 5.34985L322.309 10.2925L327.074 10.2837L327.077 5.34098Z" fill="black"/>
</svg>
