<?xml version="1.0" encoding="UTF-8" ?>
<svg version="1.1" width="32" height="32" xmlns="http://www.w3.org/2000/svg" shape-rendering="crispEdges">
<rect x="11" y="7" width="9" height="1" fill="#000000" />
<rect x="10" y="8" width="1" height="1" fill="#000000" />
<rect x="11" y="8" width="2" height="1" fill="#F9DFE4" />
<rect x="13" y="8" width="5" height="6" fill="#F2A0B0" />
<rect x="18" y="8" width="2" height="1" fill="#A16A75" />
<rect x="20" y="8" width="1" height="1" fill="#000000" />
<rect x="9" y="9" width="1" height="1" fill="#000000" />
<rect x="10" y="9" width="1" height="1" fill="#F9DFE4" />
<rect x="11" y="9" width="2" height="12" fill="#F2A0B0" />
<rect x="18" y="9" width="2" height="5" fill="#F2A0B0" />
<rect x="20" y="9" width="1" height="1" fill="#A16A75" />
<rect x="21" y="9" width="1" height="1" fill="#000000" />
<rect x="6" y="10" width="3" height="1" fill="#000000" />
<rect x="9" y="10" width="1" height="1" fill="#F9DFE4" />
<rect x="10" y="10" width="1" height="11" fill="#F2A0B0" />
<rect x="20" y="10" width="1" height="4" fill="#F2A0B0" />
<rect x="21" y="10" width="1" height="1" fill="#A16A75" />
<rect x="22" y="10" width="2" height="1" fill="#000000" />
<rect x="5" y="11" width="1" height="1" fill="#000000" />
<rect x="6" y="11" width="3" height="1" fill="#F9DFE4" />
<rect x="9" y="11" width="1" height="4" fill="#F2A0B0" />
<rect x="21" y="11" width="2" height="4" fill="#F2A0B0" />
<rect x="23" y="11" width="1" height="1" fill="#A16A75" />
<rect x="24" y="11" width="1" height="1" fill="#000000" />
<rect x="4" y="12" width="1" height="2" fill="#000000" />
<rect x="5" y="12" width="1" height="1" fill="#F9DFE4" />
<rect x="6" y="12" width="3" height="2" fill="#F2A0B0" />
<rect x="23" y="12" width="1" height="8" fill="#F2A0B0" />
<rect x="24" y="12" width="1" height="2" fill="#A16A75" />
<rect x="25" y="12" width="1" height="2" fill="#000000" />
<rect x="5" y="13" width="1" height="7" fill="#F2A0B0" />
<rect x="3" y="14" width="1" height="4" fill="#000000" />
<rect x="4" y="14" width="1" height="1" fill="#F9DFE4" />
<rect x="6" y="14" width="1" height="7" fill="#F2A0B0" />
<rect x="7" y="14" width="2" height="2" fill="#000000" />
<rect x="13" y="14" width="2" height="2" fill="#000000" />
<rect x="15" y="14" width="4" height="1" fill="#F2A0B0" />
<rect x="19" y="14" width="2" height="2" fill="#000000" />
<rect x="24" y="14" width="1" height="4" fill="#F2A0B0" />
<rect x="25" y="14" width="1" height="4" fill="#A16A75" />
<rect x="26" y="14" width="1" height="4" fill="#000000" />
<rect x="4" y="15" width="1" height="3" fill="#F2A0B0" />
<rect x="9" y="15" width="1" height="2" fill="#A16A75" />
<rect x="15" y="15" width="1" height="2" fill="#A16A75" />
<rect x="16" y="15" width="3" height="6" fill="#F2A0B0" />
<rect x="21" y="15" width="1" height="2" fill="#A16A75" />
<rect x="22" y="15" width="1" height="6" fill="#F2A0B0" />
<rect x="7" y="16" width="1" height="5" fill="#F2A0B0" />
<rect x="8" y="16" width="1" height="1" fill="#A16A75" />
<rect x="13" y="16" width="1" height="5" fill="#F2A0B0" />
<rect x="14" y="16" width="1" height="1" fill="#A16A75" />
<rect x="19" y="16" width="1" height="8" fill="#F2A0B0" />
<rect x="20" y="16" width="1" height="1" fill="#A16A75" />
<rect x="8" y="17" width="2" height="4" fill="#F2A0B0" />
<rect x="14" y="17" width="2" height="4" fill="#F2A0B0" />
<rect x="20" y="17" width="2" height="4" fill="#F2A0B0" />
<rect x="4" y="18" width="1" height="2" fill="#000000" />
<rect x="24" y="18" width="1" height="2" fill="#A16A75" />
<rect x="25" y="18" width="1" height="2" fill="#000000" />
<rect x="5" y="20" width="1" height="1" fill="#000000" />
<rect x="23" y="20" width="1" height="1" fill="#A16A75" />
<rect x="24" y="20" width="1" height="1" fill="#000000" />
<rect x="6" y="21" width="11" height="1" fill="#000000" />
<rect x="17" y="21" width="2" height="1" fill="#F2A0B0" />
<rect x="20" y="21" width="1" height="1" fill="#F2A0B0" />
<rect x="21" y="21" width="1" height="1" fill="#A16A75" />
<rect x="22" y="21" width="2" height="1" fill="#000000" />
<rect x="17" y="22" width="1" height="1" fill="#000000" />
<rect x="18" y="22" width="1" height="1" fill="#F2A0B0" />
<rect x="20" y="22" width="1" height="3" fill="#A16A75" />
<rect x="21" y="22" width="1" height="4" fill="#000000" />
<rect x="18" y="23" width="1" height="1" fill="#000000" />
<rect x="28" y="23" width="1" height="6" fill="#000000" />
<rect x="19" y="24" width="1" height="1" fill="#000000" />
<rect x="26" y="24" width="2" height="1" fill="#000000" />
<rect x="20" y="25" width="1" height="1" fill="#000000" />
<rect x="25" y="25" width="1" height="1" fill="#000000" />
<rect x="26" y="25" width="1" height="4" fill="#6AAA50" />
<rect x="27" y="25" width="1" height="4" fill="#3A6A2A" />
<rect x="22" y="26" width="1" height="1" fill="#000000" />
<rect x="24" y="26" width="1" height="3" fill="#000000" />
<rect x="25" y="26" width="1" height="4" fill="#6AAA50" />
<rect x="18" y="28" width="3" height="1" fill="#000000" />
<rect x="17" y="29" width="1" height="1" fill="#000000" />
<rect x="18" y="29" width="2" height="1" fill="#6AAA50" />
<rect x="20" y="29" width="1" height="2" fill="#3A6A2A" />
<rect x="21" y="29" width="1" height="1" fill="#000000" />
<rect x="23" y="29" width="1" height="3" fill="#000000" />
<rect x="24" y="29" width="1" height="1" fill="#6AAA50" />
<rect x="26" y="29" width="1" height="1" fill="#3A6A2A" />
<rect x="27" y="29" width="1" height="1" fill="#000000" />
<rect x="18" y="30" width="1" height="1" fill="#000000" />
<rect x="19" y="30" width="1" height="1" fill="#6AAA50" />
<rect x="21" y="30" width="1" height="1" fill="#3A6A2A" />
<rect x="22" y="30" width="1" height="2" fill="#000000" />
<rect x="24" y="30" width="2" height="1" fill="#3A6A2A" />
<rect x="26" y="30" width="1" height="1" fill="#000000" />
<rect x="19" y="31" width="3" height="1" fill="#000000" />
<rect x="24" y="31" width="2" height="1" fill="#000000" />
</svg>