<svg width="329" height="816" viewBox="0 0 329 816" fill="none" xmlns="http://www.w3.org/2000/svg">
<path d="M44 197.308H35.7647V205H44V197.308Z" fill="#FFFDE5"/>
<path d="M36.5882 195H28.3529V202.692H36.5882V195Z" fill="#FFFDE5"/>
<path d="M28.3529 196.538H20.1176V204.231H28.3529V196.538Z" fill="#FFFDE5"/>
<path d="M35.7647 198.077H16V205H35.7647V198.077Z" fill="#FFFDE5"/>
<path d="M18 1.15385H14.1765V5H18V1.15385Z" fill="#FFFDE5"/>
<path d="M14.5588 0H10.7353V3.84615H14.5588V0Z" fill="#FFFDE5"/>
<path d="M10.7353 0.769231H6.91176V4.61538H10.7353V0.769231Z" fill="#FFFDE5"/>
<path d="M14.1765 1.53846H5V5H14.1765V1.53846Z" fill="#FFFDE5"/>
<path d="M329 812.154H325.176V816H329V812.154Z" fill="#FFFDE5"/>
<path d="M325.559 811H321.735V814.846H325.559V811Z" fill="#FFFDE5"/>
<path d="M321.735 811.769H317.912V815.615H321.735V811.769Z" fill="#FFFDE5"/>
<path d="M325.176 812.538H316V816H325.176V812.538Z" fill="#FFFDE5"/>
<path d="M235 576H245V586H235V576Z" fill="#FFFDE5"/>
<path d="M244 573H254V583H244V573Z" fill="#FFFDE5"/>
<path d="M254 575H264V585H254V575Z" fill="#FFFDE5"/>
<path d="M245 577H269V586H245V577Z" fill="#FFFDE5"/>
<path d="M28 702.308H35.6471V710H28V702.308Z" fill="#FFFDE5"/>
<path d="M34.8824 700H42.5294V707.692H34.8824V700Z" fill="#FFFDE5"/>
<path d="M42.5294 701.538H50.1765V709.231H42.5294V701.538Z" fill="#FFFDE5"/>
<path d="M35.6471 703.077H54V710H35.6471V703.077Z" fill="#FFFDE5"/>
<path d="M74 512.846H79.8824V519H74V512.846Z" fill="#FFFDE5"/>
<path d="M79.2941 511H85.1765V517.154H79.2941V511Z" fill="#FFFDE5"/>
<path d="M85.1765 512.231H91.0588V518.385H85.1765V512.231Z" fill="#FFFDE5"/>
<path d="M79.8824 513.462H94V519H79.8824V513.462Z" fill="#FFFDE5"/>
<path d="M207 74H217V84H207V74Z" fill="#FFFDE5"/>
<path d="M216 71H226V81H216V71Z" fill="#FFFDE5"/>
<path d="M226 73H236V83H226V73Z" fill="#FFFDE5"/>
<path d="M217 75H241V84H217V75Z" fill="#FFFDE5"/>
<path d="M0 365H10V375H0V365Z" fill="#FFFDE5"/>
<path d="M9 362H19V372H9V362Z" fill="#FFFDE5"/>
<path d="M19 364H29V374H19V364Z" fill="#FFFDE5"/>
<path d="M10 366H34V375H10V366Z" fill="#FFFDE5"/>
<path d="M285 13.0769H292.059V20H285V13.0769Z" fill="#FFFDE5"/>
<path d="M291.353 11H298.412V17.9231H291.353V11Z" fill="#FFFDE5"/>
<path d="M298.412 12.3846H305.471V19.3077H298.412V12.3846Z" fill="#FFFDE5"/>
<path d="M292.059 13.7692H309V20H292.059V13.7692Z" fill="#FFFDE5"/>
<path d="M256 258.846H262.176V265H256V258.846Z" fill="#FFFDE5"/>
<path d="M261.559 257H267.735V263.154H261.559V257Z" fill="#FFFDE5"/>
<path d="M267.735 258.231H273.912V264.385H267.735V258.231Z" fill="#FFFDE5"/>
<path d="M262.176 259.462H277V265H262.176V259.462Z" fill="#FFFDE5"/>
</svg>
