<svg width="398" height="80" viewBox="0 0 398 80" fill="none" xmlns="http://www.w3.org/2000/svg">
<path d="M40 40H187V60H40V40Z" fill="black"/>
<path d="M20 20H378V40H20V20Z" fill="black"/>
<path d="M358 40H211V60H358V40Z" fill="black"/>
<path d="M0 0H398V20H0V0Z" fill="black"/>
<path d="M60 20H80V40H60V20Z" fill="white"/>
<path d="M231 20H251V40H231V20Z" fill="white"/>
<path d="M80 40H100V60H80V40Z" fill="white"/>
<path d="M251 40H271V60H251V40Z" fill="white"/>
<path d="M60 60H167V80H60V60Z" fill="black"/>
<path d="M338 60H231V80H338V60Z" fill="black"/>
</svg>
