<?xml version="1.0" encoding="UTF-8" ?>
<svg version="1.1" width="32" height="32" xmlns="http://www.w3.org/2000/svg" shape-rendering="crispEdges">
<rect x="10" y="4" width="12" height="1" fill="#000000" />
<rect x="9" y="5" width="1" height="2" fill="#000000" />
<rect x="10" y="5" width="11" height="4" fill="#F2A0B0" />
<rect x="21" y="5" width="1" height="3" fill="#A16A75" />
<rect x="22" y="5" width="1" height="3" fill="#000000" />
<rect x="8" y="7" width="1" height="6" fill="#000000" />
<rect x="9" y="7" width="1" height="6" fill="#F2A0B0" />
<rect x="23" y="7" width="1" height="1" fill="#000000" />
<rect x="21" y="8" width="2" height="6" fill="#F2A0B0" />
<rect x="23" y="8" width="1" height="6" fill="#A16A75" />
<rect x="24" y="8" width="1" height="6" fill="#000000" />
<rect x="10" y="9" width="1" height="4" fill="#F2A0B0" />
<rect x="11" y="9" width="1" height="4" fill="#A16A75" />
<rect x="12" y="9" width="8" height="1" fill="#000000" />
<rect x="20" y="9" width="1" height="5" fill="#F2A0B0" />
<rect x="12" y="10" width="1" height="3" fill="#000000" />
<rect x="19" y="10" width="1" height="4" fill="#000000" />
<rect x="9" y="13" width="3" height="1" fill="#000000" />
<rect x="17" y="13" width="2" height="1" fill="#000000" />
<rect x="16" y="14" width="1" height="3" fill="#000000" />
<rect x="17" y="14" width="3" height="3" fill="#F2A0B0" />
<rect x="20" y="14" width="1" height="3" fill="#A16A75" />
<rect x="21" y="14" width="3" height="1" fill="#000000" />
<rect x="21" y="15" width="1" height="2" fill="#000000" />
<rect x="15" y="16" width="1" height="1" fill="#000000" />
<rect x="14" y="17" width="1" height="4" fill="#000000" />
<rect x="15" y="17" width="3" height="4" fill="#F2A0B0" />
<rect x="18" y="17" width="1" height="4" fill="#A16A75" />
<rect x="19" y="17" width="2" height="1" fill="#000000" />
<rect x="19" y="18" width="1" height="3" fill="#000000" />
<rect x="15" y="21" width="4" height="1" fill="#000000" />
<rect x="15" y="24" width="4" height="1" fill="#000000" />
<rect x="14" y="25" width="1" height="4" fill="#000000" />
<rect x="15" y="25" width="3" height="4" fill="#F2A0B0" />
<rect x="18" y="25" width="1" height="4" fill="#A16A75" />
<rect x="19" y="25" width="1" height="4" fill="#000000" />
<rect x="15" y="29" width="4" height="1" fill="#000000" />
</svg>