<svg width="192" height="32" viewBox="0 0 192 32" fill="none" xmlns="http://www.w3.org/2000/svg">
<path d="M190.252 11.2273H51.8841V30.2273H190.252V11.2273Z" fill="#FFFDE5" stroke="#F7C948" stroke-width="2.5"/>
<path d="M122.339 13H53.3386V29H122.339V13Z" fill="#F7C948"/>
<path d="M121.979 12.9546H120.158V28.5H121.979V12.9546Z" fill="black" fill-opacity="0.57"/>
<path d="M135.633 12.9546H133.813V28.5H135.633V12.9546Z" fill="black" fill-opacity="0.57"/>
<path d="M149.288 12.9546H147.468V28.5H149.288V12.9546Z" fill="black" fill-opacity="0.57"/>
<path d="M162.943 12.9546H161.122V28.5H162.943V12.9546Z" fill="black" fill-opacity="0.57"/>
<path d="M176.598 12.9546H174.777V28.5H176.598V12.9546Z" fill="black" fill-opacity="0.57"/>
<path d="M132.902 14.6819H122.889V18.1364H132.902V14.6819Z" fill="white" fill-opacity="0.3"/>
<path d="M146.557 14.6819H136.544V18.1364H146.557V14.6819Z" fill="white" fill-opacity="0.3"/>
<path d="M160.212 14.6819H150.198V18.1364H160.212V14.6819Z" fill="white" fill-opacity="0.3"/>
<path d="M173.867 14.6819H163.853V18.1364H173.867V14.6819Z" fill="white" fill-opacity="0.3"/>
<path d="M187.521 14.6819H177.508V18.1364H187.521V14.6819Z" fill="white" fill-opacity="0.3"/>
<path d="M120.028 6.04541L120.028 5.03783L118.857 5.03783L118.857 3.02268L117.687 3.02268L117.687 1.00754L116.517 1.00754L116.517 -3.19481e-05L124.71 -3.22878e-05L124.71 1.00754L123.539 1.00754L123.539 3.02268L122.369 3.02268L122.369 5.03783L121.198 5.03783L121.198 6.04541L120.028 6.04541Z" fill="#1A120A" fill-opacity="0.56"/>
<path d="M67.3596 12.9546H65.5389V28.5H67.3596V12.9546Z" fill="black" fill-opacity="0.57"/>
<path d="M81.0143 12.9546H79.1937V28.5H81.0143V12.9546Z" fill="black" fill-opacity="0.57"/>
<path d="M94.669 12.9546H92.8484V28.5H94.669V12.9546Z" fill="black" fill-opacity="0.57"/>
<path d="M108.324 12.9546H106.503V28.5H108.324V12.9546Z" fill="black" fill-opacity="0.57"/>
<path d="M64.6286 14.6819H54.6151V18.1364H64.6286V14.6819Z" fill="white" fill-opacity="0.3"/>
<path d="M78.2833 14.6819H68.2698V18.1364H78.2833V14.6819Z" fill="white" fill-opacity="0.3"/>
<path d="M91.9381 14.6819H81.9246V18.1364H91.9381V14.6819Z" fill="white" fill-opacity="0.3"/>
<path d="M105.593 14.6819H95.5794V18.1364H105.593V14.6819Z" fill="white" fill-opacity="0.3"/>
<path d="M119.248 14.6819H109.234V18.1364H119.248V14.6819Z" fill="white" fill-opacity="0.3"/>
<path d="M9.83678 25.0771L6.21528 21.2272L5.97058 12.6272L10.0325 8.12719H17.716L21.9737 12.6272L21.4843 21.3772L17.9118 25.0771H9.83678Z" fill="#FFDA71"/>
<rect width="2.15333" height="2.19999" transform="matrix(1 0 0 -1 6.8515 24.1274)" fill="#F7C948"/>
<rect x="20.9459" y="24.1274" width="2.15333" height="2.19999" transform="rotate(-180 20.9459 24.1274)" fill="#F7C948"/>
<rect width="2.15333" height="2.19999" transform="matrix(1 0 0 -1 6.8515 11.5273)" fill="#F7C948"/>
<rect width="2.15333" height="2.19999" transform="matrix(1 0 0 -1 0 17.8274)" fill="#F7C948"/>
<rect width="2.15333" height="2.19999" transform="matrix(1 0 0 -1 25.6442 17.8274)" fill="#F7C948"/>
<rect width="2.15333" height="2.19999" transform="matrix(1 0 0 -1 2.54486 27.7273)" fill="#F7C948"/>
<rect width="2.15333" height="2.19999" transform="matrix(1 0 0 -1 23.0994 27.7273)" fill="#F7C948"/>
<rect width="2.15333" height="2.19999" transform="matrix(1 0 0 -1 2.54486 7.1272)" fill="#F7C948"/>
<rect width="2.15333" height="2.19999" transform="matrix(1 0 0 -1 23.0994 7.1272)" fill="#F7C948"/>
<rect width="2.15333" height="2.19999" transform="matrix(1 0 0 -1 12.8221 5.42725)" fill="#F7C948"/>
<rect width="2.15333" height="2.19999" transform="matrix(1 0 0 -1 12.8221 30.2273)" fill="#F7C948"/>
<rect x="20.9459" y="11.5273" width="2.15333" height="2.19999" transform="rotate(-180 20.9459 11.5273)" fill="#F7C948"/>
<rect width="2.15333" height="10.4" transform="matrix(1 0 0 -1 4.69818 21.9275)" fill="#F7C948"/>
<rect x="23.0994" y="21.9275" width="2.15333" height="10.4" transform="rotate(-180 23.0994 21.9275)" fill="#F7C948"/>
<rect width="9.78786" height="2.19999" transform="matrix(1 0 0 -1 9.00482 26.3274)" fill="#F7C948"/>
<rect width="9.78786" height="2.19999" transform="matrix(1 0 0 -1 9.00482 9.32739)" fill="#F7C948"/>
</svg>
