<svg width="67" height="33" viewBox="0 0 67 33" fill="none" xmlns="http://www.w3.org/2000/svg">
<rect width="7.7907" height="9.34884" transform="matrix(-1 0 0 1 15.5814 7.79053)" fill="#FD5E6E"/>
<rect width="7.7907" height="9.34884" transform="matrix(4.37114e-08 1 1 -4.37114e-08 42.0698 17.1396)" fill="#F2A0B0"/>
<rect width="9.34884" height="7.7907" transform="matrix(4.37114e-08 1 1 -4.37114e-08 51.4186 7.79053)" fill="#F2A0B0"/>
<rect width="7.7907" height="7.7907" transform="matrix(4.37114e-08 1 1 -4.37114e-08 59.2093 0)" fill="#F2A0B0"/>
<rect width="7.7907" height="9.34884" transform="matrix(4.37114e-08 1 1 -4.37114e-08 15.5814 17.1396)" fill="#F2A0B0"/>
<rect width="7.7907" height="7.7907" transform="matrix(4.37114e-08 1 1 -4.37114e-08 0 17.1396)" fill="#F2A0B0"/>
<rect width="17.1395" height="7.7907" transform="matrix(-1 0 0 1 42.0698 24.9302)" fill="#F2A0B0"/>
</svg>
