<?xml version="1.0" encoding="UTF-8" ?>
<svg version="1.1" width="32" height="32" xmlns="http://www.w3.org/2000/svg" shape-rendering="crispEdges">
<rect x="10" y="2" width="5" height="1" fill="#000000" />
<rect x="9" y="3" width="1" height="1" fill="#000000" />
<rect x="10" y="3" width="4" height="1" fill="#B3D7A7" />
<rect x="14" y="3" width="1" height="4" fill="#000000" />
<rect x="8" y="4" width="1" height="7" fill="#000000" />
<rect x="9" y="4" width="1" height="1" fill="#B3D7A7" />
<rect x="10" y="4" width="4" height="2" fill="#6CC050" />
<rect x="2" y="5" width="4" height="1" fill="#000000" />
<rect x="9" y="5" width="1" height="2" fill="#6CC050" />
<rect x="2" y="6" width="1" height="3" fill="#000000" />
<rect x="3" y="6" width="2" height="1" fill="#B3D7A7" />
<rect x="5" y="6" width="1" height="3" fill="#6CC050" />
<rect x="6" y="6" width="1" height="1" fill="#000000" />
<rect x="10" y="6" width="2" height="1" fill="#6CC050" />
<rect x="12" y="6" width="2" height="1" fill="#3A6A2A" />
<rect x="3" y="7" width="2" height="2" fill="#6CC050" />
<rect x="6" y="7" width="1" height="1" fill="#6CC050" />
<rect x="7" y="7" width="1" height="1" fill="#000000" />
<rect x="9" y="7" width="4" height="1" fill="#3A6A2A" />
<rect x="13" y="7" width="1" height="1" fill="#000000" />
<rect x="6" y="8" width="1" height="1" fill="#3A6A2A" />
<rect x="7" y="8" width="1" height="2" fill="#244319" />
<rect x="9" y="8" width="3" height="1" fill="#244319" />
<rect x="12" y="8" width="1" height="2" fill="#000000" />
<rect x="22" y="8" width="6" height="1" fill="#000000" />
<rect x="3" y="9" width="1" height="2" fill="#000000" />
<rect x="4" y="9" width="2" height="1" fill="#3A6A2A" />
<rect x="6" y="9" width="1" height="1" fill="#244319" />
<rect x="9" y="9" width="3" height="1" fill="#000000" />
<rect x="13" y="9" width="10" height="1" fill="#000000" />
<rect x="23" y="9" width="4" height="1" fill="#3A6A2A" />
<rect x="27" y="9" width="1" height="1" fill="#000000" />
<rect x="1" y="10" width="2" height="1" fill="#000000" />
<rect x="4" y="10" width="4" height="1" fill="#000000" />
<rect x="9" y="10" width="19" height="1" fill="#B3D7A7" />
<rect x="28" y="10" width="1" height="1" fill="#000000" />
<rect x="0" y="11" width="1" height="15" fill="#000000" />
<rect x="1" y="11" width="2" height="2" fill="#B3D7A7" />
<rect x="3" y="11" width="20" height="2" fill="#6CC050" />
<rect x="23" y="11" width="4" height="1" fill="#244319" />
<rect x="27" y="11" width="2" height="5" fill="#6CC050" />
<rect x="29" y="11" width="1" height="18" fill="#000000" />
<rect x="23" y="12" width="1" height="2" fill="#244319" />
<rect x="24" y="12" width="2" height="1" fill="#FFFFFF" />
<rect x="26" y="12" width="1" height="2" fill="#244319" />
<rect x="1" y="13" width="2" height="3" fill="#6CC050" />
<rect x="3" y="13" width="2" height="2" fill="#3A6A2A" />
<rect x="5" y="13" width="6" height="1" fill="#6CC050" />
<rect x="11" y="13" width="8" height="1" fill="#244319" />
<rect x="19" y="13" width="4" height="1" fill="#6CC050" />
<rect x="24" y="13" width="2" height="1" fill="#244319" />
<rect x="30" y="13" width="1" height="14" fill="#000000" />
<rect x="5" y="14" width="5" height="1" fill="#6CC050" />
<rect x="10" y="14" width="1" height="1" fill="#244319" />
<rect x="11" y="14" width="8" height="1" fill="#6CC050" />
<rect x="19" y="14" width="1" height="1" fill="#244319" />
<rect x="20" y="14" width="7" height="1" fill="#6CC050" />
<rect x="3" y="15" width="6" height="1" fill="#6CC050" />
<rect x="9" y="15" width="1" height="1" fill="#244319" />
<rect x="10" y="15" width="2" height="1" fill="#6CC050" />
<rect x="12" y="15" width="6" height="1" fill="#000000" />
<rect x="18" y="15" width="2" height="1" fill="#6CC050" />
<rect x="20" y="15" width="1" height="1" fill="#244319" />
<rect x="21" y="15" width="6" height="1" fill="#6CC050" />
<rect x="1" y="16" width="1" height="9" fill="#3A6A2A" />
<rect x="2" y="16" width="6" height="1" fill="#6CC050" />
<rect x="8" y="16" width="1" height="7" fill="#244319" />
<rect x="9" y="16" width="2" height="1" fill="#6CC050" />
<rect x="11" y="16" width="1" height="1" fill="#000000" />
<rect x="12" y="16" width="2" height="4" fill="#FFFFFF" />
<rect x="14" y="16" width="4" height="1" fill="#484848" />
<rect x="18" y="16" width="1" height="1" fill="#000000" />
<rect x="19" y="16" width="2" height="1" fill="#6CC050" />
<rect x="21" y="16" width="1" height="7" fill="#244319" />
<rect x="22" y="16" width="5" height="1" fill="#6CC050" />
<rect x="27" y="16" width="2" height="6" fill="#3A6A2A" />
<rect x="2" y="17" width="2" height="1" fill="#6CC050" />
<rect x="4" y="17" width="4" height="5" fill="#3A6A2A" />
<rect x="9" y="17" width="1" height="6" fill="#6CC050" />
<rect x="10" y="17" width="1" height="5" fill="#000000" />
<rect x="11" y="17" width="1" height="2" fill="#FFFFFF" />
<rect x="14" y="17" width="1" height="2" fill="#FFFFFF" />
<rect x="15" y="17" width="4" height="4" fill="#484848" />
<rect x="19" y="17" width="1" height="5" fill="#000000" />
<rect x="20" y="17" width="1" height="6" fill="#6CC050" />
<rect x="22" y="17" width="5" height="5" fill="#3A6A2A" />
<rect x="2" y="18" width="2" height="1" fill="#3A6A2A" />
<rect x="2" y="19" width="1" height="8" fill="#3A6A2A" />
<rect x="3" y="19" width="1" height="1" fill="#6CC050" />
<rect x="11" y="19" width="1" height="3" fill="#484848" />
<rect x="14" y="19" width="1" height="4" fill="#484848" />
<rect x="3" y="20" width="1" height="7" fill="#3A6A2A" />
<rect x="12" y="20" width="2" height="3" fill="#484848" />
<rect x="15" y="21" width="3" height="1" fill="#484848" />
<rect x="18" y="21" width="1" height="1" fill="#FFFFFF" />
<rect x="4" y="22" width="2" height="3" fill="#6CC050" />
<rect x="6" y="22" width="2" height="3" fill="#3A6A2A" />
<rect x="10" y="22" width="1" height="2" fill="#6CC050" />
<rect x="11" y="22" width="1" height="1" fill="#000000" />
<rect x="15" y="22" width="2" height="1" fill="#484848" />
<rect x="17" y="22" width="1" height="1" fill="#FFFFFF" />
<rect x="18" y="22" width="1" height="1" fill="#000000" />
<rect x="19" y="22" width="1" height="2" fill="#6CC050" />
<rect x="22" y="22" width="4" height="1" fill="#3A6A2A" />
<rect x="26" y="22" width="2" height="1" fill="#6CC050" />
<rect x="28" y="22" width="1" height="3" fill="#3A6A2A" />
<rect x="8" y="23" width="1" height="4" fill="#3A6A2A" />
<rect x="9" y="23" width="1" height="1" fill="#244319" />
<rect x="11" y="23" width="1" height="2" fill="#6CC050" />
<rect x="12" y="23" width="6" height="1" fill="#000000" />
<rect x="18" y="23" width="1" height="2" fill="#6CC050" />
<rect x="20" y="23" width="1" height="1" fill="#244319" />
<rect x="21" y="23" width="4" height="1" fill="#3A6A2A" />
<rect x="25" y="23" width="2" height="1" fill="#6CC050" />
<rect x="27" y="23" width="1" height="4" fill="#3A6A2A" />
<rect x="9" y="24" width="1" height="3" fill="#3A6A2A" />
<rect x="10" y="24" width="1" height="1" fill="#244319" />
<rect x="12" y="24" width="6" height="1" fill="#6CC050" />
<rect x="19" y="24" width="1" height="1" fill="#244319" />
<rect x="20" y="24" width="4" height="3" fill="#3A6A2A" />
<rect x="24" y="24" width="2" height="1" fill="#6CC050" />
<rect x="26" y="24" width="1" height="3" fill="#3A6A2A" />
<rect x="1" y="25" width="1" height="2" fill="#000000" />
<rect x="4" y="25" width="3" height="2" fill="#3A6A2A" />
<rect x="7" y="25" width="1" height="1" fill="#6CC050" />
<rect x="10" y="25" width="1" height="2" fill="#3A6A2A" />
<rect x="11" y="25" width="8" height="1" fill="#244319" />
<rect x="19" y="25" width="1" height="2" fill="#3A6A2A" />
<rect x="24" y="25" width="2" height="2" fill="#3A6A2A" />
<rect x="28" y="25" width="1" height="5" fill="#000000" />
<rect x="7" y="26" width="1" height="1" fill="#3A6A2A" />
<rect x="11" y="26" width="8" height="1" fill="#3A6A2A" />
<rect x="2" y="27" width="26" height="1" fill="#000000" />
<rect x="3" y="28" width="25" height="2" fill="#000000" />
</svg>