<?xml version="1.0" encoding="UTF-8" ?>
<svg version="1.1" width="32" height="32" xmlns="http://www.w3.org/2000/svg" shape-rendering="crispEdges">
<rect x="11" y="4" width="8" height="1" fill="#000000" />
<rect x="9" y="5" width="2" height="1" fill="#000000" />
<rect x="11" y="5" width="8" height="3" fill="#F2A0B0" />
<rect x="19" y="5" width="3" height="1" fill="#000000" />
<rect x="8" y="6" width="1" height="1" fill="#000000" />
<rect x="9" y="6" width="2" height="2" fill="#F2A0B0" />
<rect x="19" y="6" width="3" height="2" fill="#F2A0B0" />
<rect x="22" y="6" width="2" height="1" fill="#000000" />
<rect x="7" y="7" width="1" height="2" fill="#000000" />
<rect x="8" y="7" width="1" height="5" fill="#F2A0B0" />
<rect x="22" y="7" width="2" height="6" fill="#F2A0B0" />
<rect x="24" y="7" width="1" height="1" fill="#000000" />
<rect x="9" y="8" width="1" height="1" fill="#F2A0B0" />
<rect x="10" y="8" width="3" height="1" fill="#000000" />
<rect x="13" y="8" width="5" height="1" fill="#F2A0B0" />
<rect x="18" y="8" width="3" height="1" fill="#000000" />
<rect x="21" y="8" width="1" height="1" fill="#F2A0B0" />
<rect x="24" y="8" width="1" height="5" fill="#F2A0B0" />
<rect x="25" y="8" width="2" height="1" fill="#000000" />
<rect x="6" y="9" width="1" height="4" fill="#000000" />
<rect x="7" y="9" width="1" height="4" fill="#D48C9A" />
<rect x="9" y="9" width="1" height="1" fill="#000000" />
<rect x="10" y="9" width="3" height="1" fill="#3A9AE0" />
<rect x="13" y="9" width="1" height="1" fill="#000000" />
<rect x="14" y="9" width="3" height="6" fill="#F2A0B0" />
<rect x="17" y="9" width="1" height="1" fill="#000000" />
<rect x="18" y="9" width="3" height="1" fill="#6EC6F5" />
<rect x="21" y="9" width="1" height="1" fill="#000000" />
<rect x="25" y="9" width="2" height="4" fill="#F2A0B0" />
<rect x="27" y="9" width="1" height="1" fill="#000000" />
<rect x="9" y="10" width="1" height="3" fill="#F2A0B0" />
<rect x="10" y="10" width="3" height="1" fill="#000000" />
<rect x="13" y="10" width="1" height="1" fill="#D48C9A" />
<rect x="17" y="10" width="1" height="12" fill="#F2A0B0" />
<rect x="18" y="10" width="3" height="1" fill="#000000" />
<rect x="21" y="10" width="1" height="1" fill="#D48C9A" />
<rect x="27" y="10" width="1" height="9" fill="#F2A0B0" />
<rect x="28" y="10" width="1" height="1" fill="#000000" />
<rect x="10" y="11" width="3" height="1" fill="#D48C9A" />
<rect x="13" y="11" width="1" height="3" fill="#F2A0B0" />
<rect x="18" y="11" width="1" height="8" fill="#F2A0B0" />
<rect x="19" y="11" width="2" height="1" fill="#D48C9A" />
<rect x="21" y="11" width="1" height="7" fill="#F2A0B0" />
<rect x="28" y="11" width="1" height="7" fill="#F2A0B0" />
<rect x="29" y="11" width="1" height="7" fill="#000000" />
<rect x="8" y="12" width="1" height="2" fill="#D48C9A" />
<rect x="10" y="12" width="3" height="2" fill="#F2A0B0" />
<rect x="19" y="12" width="2" height="6" fill="#F2A0B0" />
<rect x="7" y="13" width="1" height="1" fill="#000000" />
<rect x="9" y="13" width="1" height="1" fill="#D48C9A" />
<rect x="22" y="13" width="1" height="1" fill="#F2A0B0" />
<rect x="23" y="13" width="3" height="1" fill="#000000" />
<rect x="26" y="13" width="1" height="1" fill="#F2A0B0" />
<rect x="3" y="14" width="1" height="2" fill="#000000" />
<rect x="8" y="14" width="2" height="1" fill="#000000" />
<rect x="10" y="14" width="4" height="1" fill="#D48C9A" />
<rect x="22" y="14" width="1" height="1" fill="#000000" />
<rect x="23" y="14" width="3" height="1" fill="#6AAA50" />
<rect x="26" y="14" width="1" height="1" fill="#000000" />
<rect x="10" y="15" width="4" height="1" fill="#000000" />
<rect x="14" y="15" width="1" height="1" fill="#D48C9A" />
<rect x="15" y="15" width="2" height="1" fill="#F2A0B0" />
<rect x="22" y="15" width="1" height="4" fill="#F2A0B0" />
<rect x="23" y="15" width="3" height="1" fill="#000000" />
<rect x="26" y="15" width="1" height="1" fill="#D48C9A" />
<rect x="4" y="16" width="1" height="1" fill="#000000" />
<rect x="14" y="16" width="1" height="1" fill="#000000" />
<rect x="15" y="16" width="1" height="1" fill="#D48C9A" />
<rect x="16" y="16" width="1" height="1" fill="#F2A0B0" />
<rect x="23" y="16" width="1" height="6" fill="#F2A0B0" />
<rect x="24" y="16" width="2" height="1" fill="#D48C9A" />
<rect x="26" y="16" width="1" height="4" fill="#F2A0B0" />
<rect x="5" y="17" width="1" height="2" fill="#000000" />
<rect x="15" y="17" width="1" height="2" fill="#000000" />
<rect x="16" y="17" width="1" height="2" fill="#D48C9A" />
<rect x="24" y="17" width="2" height="4" fill="#F2A0B0" />
<rect x="6" y="18" width="1" height="3" fill="#000000" />
<rect x="19" y="18" width="3" height="1" fill="#000000" />
<rect x="28" y="18" width="1" height="1" fill="#000000" />
<rect x="7" y="19" width="1" height="4" fill="#000000" />
<rect x="14" y="19" width="1" height="1" fill="#000000" />
<rect x="15" y="19" width="1" height="1" fill="#D48C9A" />
<rect x="16" y="19" width="1" height="3" fill="#F2A0B0" />
<rect x="18" y="19" width="1" height="1" fill="#000000" />
<rect x="19" y="19" width="3" height="1" fill="#F7C948" />
<rect x="22" y="19" width="1" height="1" fill="#000000" />
<rect x="27" y="19" width="1" height="1" fill="#000000" />
<rect x="13" y="20" width="1" height="2" fill="#000000" />
<rect x="14" y="20" width="1" height="2" fill="#D48C9A" />
<rect x="15" y="20" width="1" height="1" fill="#F2A0B0" />
<rect x="18" y="20" width="1" height="2" fill="#F2A0B0" />
<rect x="19" y="20" width="3" height="1" fill="#000000" />
<rect x="22" y="20" width="1" height="1" fill="#D48C9A" />
<rect x="26" y="20" width="1" height="1" fill="#000000" />
<rect x="8" y="21" width="1" height="4" fill="#000000" />
<rect x="15" y="21" width="1" height="1" fill="#D48C9A" />
<rect x="19" y="21" width="4" height="1" fill="#F2A0B0" />
<rect x="24" y="21" width="1" height="1" fill="#F2A0B0" />
<rect x="25" y="21" width="1" height="1" fill="#000000" />
<rect x="14" y="22" width="2" height="1" fill="#000000" />
<rect x="16" y="22" width="8" height="1" fill="#D48C9A" />
<rect x="24" y="22" width="1" height="1" fill="#000000" />
<rect x="9" y="23" width="1" height="4" fill="#000000" />
<rect x="16" y="23" width="8" height="1" fill="#000000" />
<rect x="10" y="25" width="1" height="2" fill="#000000" />
<rect x="11" y="27" width="1" height="2" fill="#000000" />
<rect x="12" y="27" width="2" height="2" fill="#6B3520" />
<rect x="15" y="28" width="1" height="1" fill="#6B3520" />
<rect x="12" y="29" width="3" height="1" fill="#000000" />
</svg>