<?xml version="1.0" encoding="UTF-8" ?>
<svg version="1.1" width="32" height="32" xmlns="http://www.w3.org/2000/svg" shape-rendering="crispEdges">
<rect x="12" y="5" width="6" height="1" fill="#000000" />
<rect x="11" y="6" width="1" height="2" fill="#000000" />
<rect x="12" y="6" width="6" height="1" fill="#6AAA50" />
<rect x="18" y="6" width="1" height="2" fill="#000000" />
<rect x="6" y="7" width="3" height="1" fill="#000000" />
<rect x="12" y="7" width="1" height="2" fill="#6AAA50" />
<rect x="13" y="7" width="4" height="1" fill="#000000" />
<rect x="17" y="7" width="1" height="2" fill="#6AAA50" />
<rect x="5" y="8" width="1" height="2" fill="#000000" />
<rect x="6" y="8" width="3" height="1" fill="#6AAA50" />
<rect x="9" y="8" width="2" height="2" fill="#000000" />
<rect x="11" y="8" width="1" height="1" fill="#6AAA50" />
<rect x="13" y="8" width="4" height="1" fill="#6AAA50" />
<rect x="18" y="8" width="1" height="1" fill="#6AAA50" />
<rect x="19" y="8" width="1" height="2" fill="#000000" />
<rect x="4" y="9" width="1" height="15" fill="#000000" />
<rect x="6" y="9" width="3" height="1" fill="#000000" />
<rect x="11" y="9" width="8" height="1" fill="#000000" />
<rect x="20" y="9" width="6" height="1" fill="#000000" />
<rect x="5" y="10" width="20" height="1" fill="#6AAA50" />
<rect x="25" y="10" width="1" height="16" fill="#000000" />
<rect x="5" y="11" width="7" height="1" fill="#6AAA50" />
<rect x="12" y="11" width="6" height="1" fill="#000000" />
<rect x="18" y="11" width="7" height="1" fill="#6AAA50" />
<rect x="26" y="11" width="2" height="15" fill="#000000" />
<rect x="5" y="12" width="7" height="1" fill="#000000" />
<rect x="12" y="12" width="6" height="1" fill="#3D3D3D" />
<rect x="18" y="12" width="7" height="1" fill="#000000" />
<rect x="5" y="13" width="5" height="1" fill="#3A6A2A" />
<rect x="10" y="13" width="1" height="1" fill="#000000" />
<rect x="11" y="13" width="2" height="1" fill="#3D3D3D" />
<rect x="13" y="13" width="4" height="2" fill="#FFFDE5" />
<rect x="17" y="13" width="2" height="1" fill="#3D3D3D" />
<rect x="19" y="13" width="1" height="1" fill="#000000" />
<rect x="20" y="13" width="5" height="1" fill="#3A6A2A" />
<rect x="5" y="14" width="4" height="6" fill="#3A6A2A" />
<rect x="9" y="14" width="1" height="5" fill="#000000" />
<rect x="10" y="14" width="2" height="1" fill="#3D3D3D" />
<rect x="12" y="14" width="1" height="5" fill="#FFFDE5" />
<rect x="17" y="14" width="1" height="5" fill="#FFFDE5" />
<rect x="18" y="14" width="2" height="1" fill="#3D3D3D" />
<rect x="20" y="14" width="1" height="5" fill="#000000" />
<rect x="21" y="14" width="4" height="6" fill="#3A6A2A" />
<rect x="10" y="15" width="1" height="4" fill="#3D3D3D" />
<rect x="11" y="15" width="1" height="3" fill="#FFFDE5" />
<rect x="13" y="15" width="1" height="1" fill="#3A6A2A" />
<rect x="14" y="15" width="1" height="1" fill="#FFFDE5" />
<rect x="15" y="15" width="1" height="1" fill="#6AAA50" />
<rect x="16" y="15" width="1" height="1" fill="#3A6A2A" />
<rect x="18" y="15" width="1" height="3" fill="#FFFDE5" />
<rect x="19" y="15" width="1" height="4" fill="#3D3D3D" />
<rect x="13" y="16" width="1" height="4" fill="#FFFDE5" />
<rect x="14" y="16" width="1" height="1" fill="#6AAA50" />
<rect x="15" y="16" width="1" height="2" fill="#3A6A2A" />
<rect x="16" y="16" width="1" height="4" fill="#FFFDE5" />
<rect x="14" y="17" width="1" height="2" fill="#3A6A2A" />
<rect x="11" y="18" width="1" height="2" fill="#3D3D3D" />
<rect x="15" y="18" width="1" height="2" fill="#FFFDE5" />
<rect x="18" y="18" width="1" height="2" fill="#3D3D3D" />
<rect x="9" y="19" width="1" height="1" fill="#3A6A2A" />
<rect x="10" y="19" width="1" height="2" fill="#000000" />
<rect x="12" y="19" width="1" height="2" fill="#3D3D3D" />
<rect x="14" y="19" width="1" height="1" fill="#FFFDE5" />
<rect x="17" y="19" width="1" height="2" fill="#3D3D3D" />
<rect x="19" y="19" width="1" height="2" fill="#000000" />
<rect x="20" y="19" width="1" height="1" fill="#3A6A2A" />
<rect x="5" y="20" width="5" height="1" fill="#000000" />
<rect x="11" y="20" width="1" height="1" fill="#000000" />
<rect x="13" y="20" width="4" height="1" fill="#3D3D3D" />
<rect x="18" y="20" width="1" height="1" fill="#000000" />
<rect x="20" y="20" width="5" height="1" fill="#000000" />
<rect x="5" y="21" width="7" height="2" fill="#6AAA50" />
<rect x="12" y="21" width="6" height="1" fill="#000000" />
<rect x="18" y="21" width="7" height="2" fill="#6AAA50" />
<rect x="12" y="22" width="6" height="1" fill="#6AAA50" />
<rect x="5" y="23" width="20" height="1" fill="#000000" />
<rect x="6" y="24" width="19" height="2" fill="#000000" />
</svg>