<svg width="173" height="34" viewBox="0 0 173 34" fill="none" xmlns="http://www.w3.org/2000/svg">
<path d="M36.4967 23.3323V16.0938H57.7692V23.3323L55.2579 25.7698V30.3493L53.4852 32.9345H41.0762L38.7126 30.3493V25.7698L36.4967 23.3323Z" fill="#D5F4CE"/>
<rect x="39.8944" y="31.7524" width="14.3294" height="2.21589" fill="#3A6A2A"/>
<rect x="37.5308" y="15.3555" width="9.30674" height="2.21589" transform="rotate(90 37.5308 15.3555)" fill="#3A6A2A"/>
<rect x="39.8944" y="24.6626" width="7.09085" height="2.21589" transform="rotate(90 39.8944 24.6626)" fill="#3A6A2A"/>
<rect x="56.4397" y="24.6626" width="7.09085" height="2.21589" transform="rotate(90 56.4397 24.6626)" fill="#3A6A2A"/>
<rect x="57.4782" y="25.2051" width="19.7008" height="2.4626" transform="rotate(-180 57.4782 25.2051)" fill="#3A6A2A"/>
<rect x="58.6556" y="15.3555" width="9.30674" height="2.21589" transform="rotate(90 58.6556 15.3555)" fill="#3A6A2A"/>
<rect x="35.3149" y="15.3555" width="23.3407" height="2.21589" fill="#3A6A2A"/>
<path d="M0.816284 26.5995V21.5996H15.5098V26.5995L13.7751 28.2831V31.4463L12.5507 33.2319H3.97946L2.34686 31.4463V28.2831L0.816284 26.5995Z" fill="#D5F4CE"/>
<rect x="3.16321" y="32.415" width="9.89769" height="1.53057" fill="#3A6A2A"/>
<rect x="1.53058" y="21.0894" width="6.4284" height="1.53057" transform="rotate(90 1.53058 21.0894)" fill="#3A6A2A"/>
<rect x="3.16321" y="27.5181" width="4.89783" height="1.53057" transform="rotate(90 3.16321 27.5181)" fill="#3A6A2A"/>
<rect x="14.5914" y="27.5181" width="4.89783" height="1.53057" transform="rotate(90 14.5914 27.5181)" fill="#3A6A2A"/>
<rect x="15.3087" y="27.8926" width="13.6078" height="1.70098" transform="rotate(-180 15.3087 27.8926)" fill="#3A6A2A"/>
<rect x="16.122" y="21.0894" width="6.4284" height="1.53057" transform="rotate(90 16.122 21.0894)" fill="#3A6A2A"/>
<rect y="21.0894" width="16.122" height="1.53057" fill="#3A6A2A"/>
<path d="M79.9276 19.3842V9.4585H109.097V19.3842L105.653 22.7265V29.006L103.223 32.5509H86.2071L82.966 29.006V22.7265L79.9276 19.3842Z" fill="#3A6A2A"/>
<rect x="84.5865" y="30.9297" width="19.6488" height="3.03848" fill="#3A6A2A"/>
<rect x="81.3455" y="8.4458" width="12.7616" height="3.03848" transform="rotate(90 81.3455 8.4458)" fill="#3A6A2A"/>
<rect x="84.5865" y="21.208" width="9.72313" height="3.03848" transform="rotate(90 84.5865 21.208)" fill="#3A6A2A"/>
<rect x="107.274" y="21.208" width="9.72313" height="3.03848" transform="rotate(90 107.274 21.208)" fill="#3A6A2A"/>
<rect x="108.698" y="21.9517" width="27.0141" height="3.37677" transform="rotate(-180 108.698 21.9517)" fill="#3A6A2A"/>
<rect x="110.312" y="8.4458" width="12.7616" height="3.03848" transform="rotate(90 110.312 8.4458)" fill="#3A6A2A"/>
<rect x="78.3069" y="8.4458" width="32.0053" height="3.03848" fill="#3A6A2A"/>
<path d="M131.901 14.5576V1.34766H170.722V14.5576L166.139 19.0058V27.3631L162.904 32.081H140.258L135.945 27.3631V19.0058L131.901 14.5576Z" fill="#D5F4CE"/>
<rect x="138.101" y="29.9233" width="26.1503" height="4.04386" fill="#3A6A2A"/>
<rect x="133.788" width="16.9842" height="4.04386" transform="rotate(90 133.788 0)" fill="#3A6A2A"/>
<rect x="138.101" y="16.9849" width="12.9403" height="4.04386" transform="rotate(90 138.101 16.9849)" fill="#3A6A2A"/>
<rect x="168.295" y="16.9849" width="12.9403" height="4.04386" transform="rotate(90 168.295 16.9849)" fill="#3A6A2A"/>
<rect x="170.191" y="17.9746" width="35.9527" height="4.49408" transform="rotate(-180 170.191 17.9746)" fill="#3A6A2A"/>
<rect x="172.339" width="16.9842" height="4.04386" transform="rotate(90 172.339 0)" fill="#3A6A2A"/>
<rect x="129.744" width="42.5953" height="4.04386" fill="#3A6A2A"/>
</svg>
