<svg width="218" height="25" viewBox="0 0 218 25" fill="none" xmlns="http://www.w3.org/2000/svg">
<path d="M1.5517 10.4739V0.969971H29.4817V10.4739L26.1844 13.6742V19.6869L23.8569 23.0812H7.5644L4.46107 19.6869V13.6742L1.5517 10.4739Z" fill="#864B39"/>
<rect x="6.0127" y="21.5293" width="18.8139" height="2.90937" fill="#6B3520"/>
<rect x="2.90945" width="12.2194" height="2.90937" transform="rotate(90 2.90945 0)" fill="#6B3520"/>
<rect x="6.0127" y="12.2195" width="9.30999" height="2.90937" transform="rotate(90 6.0127 12.2195)" fill="#6B3520"/>
<rect x="27.736" y="12.2195" width="9.30999" height="2.90937" transform="rotate(90 27.736 12.2195)" fill="#6B3520"/>
<rect x="29.0996" y="12.9329" width="25.8663" height="3.23329" transform="rotate(-180 29.0996 12.9329)" fill="#6B3520"/>
<rect x="30.6454" width="12.2194" height="2.90937" transform="rotate(90 30.6454 0)" fill="#6B3520"/>
<rect width="30.6454" height="2.90937" fill="#6B3520"/>
<path d="M48.3207 10.4739V0.969971H76.2507V10.4739L72.9534 13.6742V19.6869L70.6259 23.0812H54.3334L51.2301 19.6869V13.6742L48.3207 10.4739Z" fill="#864B39"/>
<rect x="52.7817" y="21.5293" width="18.8139" height="2.90937" fill="#6B3520"/>
<rect x="49.6785" width="12.2194" height="2.90937" transform="rotate(90 49.6785 0)" fill="#6B3520"/>
<rect x="52.7817" y="12.2195" width="9.30999" height="2.90937" transform="rotate(90 52.7817 12.2195)" fill="#6B3520"/>
<rect x="74.505" y="12.2195" width="9.30999" height="2.90937" transform="rotate(90 74.505 12.2195)" fill="#6B3520"/>
<rect x="75.8686" y="12.9329" width="25.8663" height="3.23329" transform="rotate(-180 75.8686 12.9329)" fill="#6B3520"/>
<rect x="77.4145" width="12.2194" height="2.90937" transform="rotate(90 77.4145 0)" fill="#6B3520"/>
<rect x="46.769" width="30.6454" height="2.90937" fill="#6B3520"/>
<rect x="99.5508" y="21.5293" width="18.8139" height="2.90937" fill="#6B3520"/>
<rect x="96.4475" width="12.2194" height="2.90937" transform="rotate(90 96.4475 0)" fill="#6B3520"/>
<rect x="99.5508" y="12.2195" width="9.30999" height="2.90937" transform="rotate(90 99.5508 12.2195)" fill="#6B3520"/>
<rect x="121.274" y="12.2195" width="9.30999" height="2.90937" transform="rotate(90 121.274 12.2195)" fill="#6B3520"/>
<rect x="122.638" y="12.9329" width="25.8663" height="3.23329" transform="rotate(-180 122.638 12.9329)" fill="#6B3520"/>
<rect x="124.184" width="12.2194" height="2.90937" transform="rotate(90 124.184 0)" fill="#6B3520"/>
<rect x="93.5381" width="30.6454" height="2.90937" fill="#6B3520"/>
<rect x="146.32" y="21.5293" width="18.8139" height="2.90937" fill="#6B3520"/>
<rect x="143.217" width="12.2194" height="2.90937" transform="rotate(90 143.217 0)" fill="#6B3520"/>
<rect x="146.32" y="12.2195" width="9.30999" height="2.90937" transform="rotate(90 146.32 12.2195)" fill="#6B3520"/>
<rect x="168.043" y="12.2195" width="9.30999" height="2.90937" transform="rotate(90 168.043 12.2195)" fill="#6B3520"/>
<rect x="169.407" y="12.9329" width="25.8663" height="3.23329" transform="rotate(-180 169.407 12.9329)" fill="#6B3520"/>
<rect x="170.953" width="12.2194" height="2.90937" transform="rotate(90 170.953 0)" fill="#6B3520"/>
<rect x="140.307" width="30.6454" height="2.90937" fill="#6B3520"/>
<rect x="193.089" y="21.5293" width="18.8139" height="2.90937" fill="#6B3520"/>
<rect x="189.986" width="12.2194" height="2.90937" transform="rotate(90 189.986 0)" fill="#6B3520"/>
<rect x="193.089" y="12.2195" width="9.30999" height="2.90937" transform="rotate(90 193.089 12.2195)" fill="#6B3520"/>
<rect x="214.812" y="12.2195" width="9.30999" height="2.90937" transform="rotate(90 214.812 12.2195)" fill="#6B3520"/>
<rect x="216.176" y="12.9329" width="25.8663" height="3.23329" transform="rotate(-180 216.176 12.9329)" fill="#6B3520"/>
<rect x="217.722" width="12.2194" height="2.90937" transform="rotate(90 217.722 0)" fill="#6B3520"/>
<rect x="187.076" width="30.6454" height="2.90937" fill="#6B3520"/>
</svg>
