<?xml version="1.0" encoding="UTF-8" ?>
<svg version="1.1" width="32" height="32" xmlns="http://www.w3.org/2000/svg" shape-rendering="crispEdges">
<rect x="14" y="5" width="4" height="1" fill="#573125" />
<rect x="13" y="6" width="1" height="2" fill="#573125" />
<rect x="14" y="6" width="4" height="1" fill="#D6AB9F" />
<rect x="18" y="6" width="1" height="2" fill="#573125" />
<rect x="9" y="7" width="2" height="1" fill="#573125" />
<rect x="14" y="7" width="4" height="5" fill="#B76E57" />
<rect x="21" y="7" width="2" height="1" fill="#573125" />
<rect x="8" y="8" width="1" height="1" fill="#573125" />
<rect x="9" y="8" width="2" height="1" fill="#D6AB9F" />
<rect x="11" y="8" width="2" height="1" fill="#573125" />
<rect x="13" y="8" width="1" height="1" fill="#D6AB9F" />
<rect x="18" y="8" width="1" height="1" fill="#D6AB9F" />
<rect x="19" y="8" width="2" height="1" fill="#573125" />
<rect x="21" y="8" width="2" height="1" fill="#D6AB9F" />
<rect x="23" y="8" width="1" height="1" fill="#573125" />
<rect x="7" y="9" width="1" height="1" fill="#573125" />
<rect x="8" y="9" width="3" height="3" fill="#B76E57" />
<rect x="11" y="9" width="2" height="1" fill="#D6AB9F" />
<rect x="13" y="9" width="1" height="4" fill="#B76E57" />
<rect x="18" y="9" width="1" height="4" fill="#B76E57" />
<rect x="19" y="9" width="2" height="1" fill="#D6AB9F" />
<rect x="21" y="9" width="3" height="11" fill="#B76E57" />
<rect x="24" y="9" width="1" height="1" fill="#573125" />
<rect x="6" y="10" width="1" height="2" fill="#573125" />
<rect x="7" y="10" width="1" height="1" fill="#D6AB9F" />
<rect x="11" y="10" width="2" height="4" fill="#B76E57" />
<rect x="19" y="10" width="2" height="4" fill="#B76E57" />
<rect x="24" y="10" width="1" height="1" fill="#D6AB9F" />
<rect x="25" y="10" width="1" height="2" fill="#573125" />
<rect x="7" y="11" width="1" height="1" fill="#864B39" />
<rect x="24" y="11" width="1" height="1" fill="#B76E57" />
<rect x="7" y="12" width="1" height="2" fill="#573125" />
<rect x="8" y="12" width="1" height="2" fill="#864B39" />
<rect x="9" y="12" width="2" height="13" fill="#B76E57" />
<rect x="14" y="12" width="4" height="1" fill="#864B39" />
<rect x="24" y="12" width="1" height="2" fill="#573125" />
<rect x="13" y="13" width="1" height="1" fill="#864B39" />
<rect x="14" y="13" width="4" height="1" fill="#573125" />
<rect x="18" y="13" width="1" height="1" fill="#864B39" />
<rect x="5" y="14" width="2" height="1" fill="#573125" />
<rect x="7" y="14" width="1" height="1" fill="#864B39" />
<rect x="8" y="14" width="1" height="6" fill="#B76E57" />
<rect x="11" y="14" width="1" height="1" fill="#B76E57" />
<rect x="12" y="14" width="1" height="1" fill="#864B39" />
<rect x="13" y="14" width="1" height="1" fill="#573125" />
<rect x="18" y="14" width="1" height="1" fill="#573125" />
<rect x="19" y="14" width="1" height="1" fill="#864B39" />
<rect x="20" y="14" width="1" height="1" fill="#B76E57" />
<rect x="24" y="14" width="1" height="4" fill="#B76E57" />
<rect x="25" y="14" width="2" height="1" fill="#573125" />
<rect x="4" y="15" width="1" height="4" fill="#573125" />
<rect x="5" y="15" width="2" height="1" fill="#D6AB9F" />
<rect x="7" y="15" width="1" height="3" fill="#B76E57" />
<rect x="11" y="15" width="1" height="2" fill="#864B39" />
<rect x="12" y="15" width="1" height="4" fill="#573125" />
<rect x="19" y="15" width="1" height="4" fill="#573125" />
<rect x="20" y="15" width="1" height="2" fill="#864B39" />
<rect x="25" y="15" width="2" height="1" fill="#D6AB9F" />
<rect x="27" y="15" width="1" height="4" fill="#573125" />
<rect x="5" y="16" width="2" height="2" fill="#B76E57" />
<rect x="25" y="16" width="2" height="2" fill="#B76E57" />
<rect x="11" y="17" width="1" height="2" fill="#D6AB9F" />
<rect x="20" y="17" width="1" height="2" fill="#D6AB9F" />
<rect x="5" y="18" width="3" height="1" fill="#864B39" />
<rect x="24" y="18" width="3" height="1" fill="#864B39" />
<rect x="5" y="19" width="2" height="1" fill="#573125" />
<rect x="7" y="19" width="1" height="1" fill="#864B39" />
<rect x="11" y="19" width="1" height="5" fill="#B76E57" />
<rect x="12" y="19" width="1" height="1" fill="#D6AB9F" />
<rect x="13" y="19" width="1" height="1" fill="#573125" />
<rect x="18" y="19" width="1" height="1" fill="#573125" />
<rect x="19" y="19" width="1" height="1" fill="#D6AB9F" />
<rect x="20" y="19" width="1" height="5" fill="#B76E57" />
<rect x="24" y="19" width="1" height="1" fill="#864B39" />
<rect x="25" y="19" width="2" height="1" fill="#573125" />
<rect x="7" y="20" width="1" height="2" fill="#573125" />
<rect x="8" y="20" width="1" height="2" fill="#864B39" />
<rect x="12" y="20" width="1" height="4" fill="#B76E57" />
<rect x="13" y="20" width="1" height="1" fill="#D6AB9F" />
<rect x="14" y="20" width="4" height="1" fill="#573125" />
<rect x="18" y="20" width="1" height="1" fill="#D6AB9F" />
<rect x="19" y="20" width="1" height="4" fill="#B76E57" />
<rect x="21" y="20" width="2" height="5" fill="#B76E57" />
<rect x="23" y="20" width="1" height="2" fill="#864B39" />
<rect x="24" y="20" width="1" height="2" fill="#573125" />
<rect x="13" y="21" width="1" height="4" fill="#B76E57" />
<rect x="14" y="21" width="4" height="1" fill="#D6AB9F" />
<rect x="18" y="21" width="1" height="4" fill="#B76E57" />
<rect x="6" y="22" width="1" height="2" fill="#573125" />
<rect x="7" y="22" width="2" height="1" fill="#B76E57" />
<rect x="14" y="22" width="4" height="5" fill="#B76E57" />
<rect x="23" y="22" width="2" height="1" fill="#B76E57" />
<rect x="25" y="22" width="1" height="2" fill="#573125" />
<rect x="7" y="23" width="1" height="1" fill="#864B39" />
<rect x="8" y="23" width="1" height="1" fill="#B76E57" />
<rect x="23" y="23" width="1" height="1" fill="#B76E57" />
<rect x="24" y="23" width="1" height="1" fill="#864B39" />
<rect x="7" y="24" width="1" height="1" fill="#573125" />
<rect x="8" y="24" width="1" height="1" fill="#864B39" />
<rect x="11" y="24" width="2" height="1" fill="#864B39" />
<rect x="19" y="24" width="2" height="1" fill="#864B39" />
<rect x="23" y="24" width="1" height="1" fill="#864B39" />
<rect x="24" y="24" width="1" height="1" fill="#573125" />
<rect x="8" y="25" width="1" height="1" fill="#573125" />
<rect x="9" y="25" width="2" height="1" fill="#864B39" />
<rect x="11" y="25" width="2" height="1" fill="#573125" />
<rect x="13" y="25" width="1" height="1" fill="#864B39" />
<rect x="18" y="25" width="1" height="1" fill="#864B39" />
<rect x="19" y="25" width="2" height="1" fill="#573125" />
<rect x="21" y="25" width="2" height="1" fill="#864B39" />
<rect x="23" y="25" width="1" height="1" fill="#573125" />
<rect x="9" y="26" width="2" height="1" fill="#573125" />
<rect x="13" y="26" width="1" height="2" fill="#573125" />
<rect x="18" y="26" width="1" height="2" fill="#573125" />
<rect x="21" y="26" width="2" height="1" fill="#573125" />
<rect x="14" y="27" width="4" height="1" fill="#864B39" />
<rect x="14" y="28" width="4" height="1" fill="#573125" />
</svg>