<?xml version="1.0" encoding="UTF-8" ?>
<svg version="1.1" width="32" height="32" xmlns="http://www.w3.org/2000/svg" shape-rendering="crispEdges">
<rect x="10" y="6" width="12" height="1" fill="#573125" />
<rect x="10" y="7" width="1" height="3" fill="#573125" />
<rect x="11" y="7" width="10" height="1" fill="#C0806D" />
<rect x="21" y="7" width="1" height="1" fill="#573125" />
<rect x="11" y="8" width="1" height="16" fill="#864B39" />
<rect x="12" y="8" width="10" height="2" fill="#D6AB9F" />
<rect x="22" y="8" width="1" height="2" fill="#573125" />
<rect x="9" y="10" width="1" height="2" fill="#573125" />
<rect x="10" y="10" width="1" height="14" fill="#B76E57" />
<rect x="12" y="10" width="1" height="15" fill="#864B39" />
<rect x="13" y="10" width="10" height="2" fill="#D6AB9F" />
<rect x="23" y="10" width="1" height="2" fill="#573125" />
<rect x="8" y="12" width="1" height="15" fill="#573125" />
<rect x="9" y="12" width="1" height="13" fill="#B76E57" />
<rect x="13" y="12" width="1" height="14" fill="#864B39" />
<rect x="14" y="12" width="10" height="1" fill="#D6AB9F" />
<rect x="24" y="12" width="1" height="15" fill="#573125" />
<rect x="14" y="13" width="10" height="13" fill="#C0806D" />
<rect x="10" y="24" width="2" height="2" fill="#C0806D" />
<rect x="9" y="25" width="1" height="1" fill="#C0806D" />
<rect x="12" y="25" width="1" height="1" fill="#C0806D" />
<rect x="9" y="26" width="15" height="1" fill="#573125" />
</svg>