<svg width="46" height="53" viewBox="0 0 46 53" fill="none" xmlns="http://www.w3.org/2000/svg">
<rect x="41.4437" y="40.4756" width="4.26056" height="4.26056" transform="rotate(-180 41.4437 40.4756)" fill="#F7C948"/>
<rect width="4.26056" height="4.26056" transform="matrix(1 0 0 -1 0 28.2749)" fill="#F7C948"/>
<rect width="4.26056" height="4.26056" transform="matrix(1 0 0 -1 5.03522 47.4478)" fill="#F7C948"/>
<rect width="4.26056" height="4.26056" transform="matrix(1 0 0 -1 5.03522 7.55322)" fill="#F7C948"/>
<rect width="4.26056" height="4.26056" transform="matrix(1 0 0 -1 25.3697 4.26074)" fill="#F7C948"/>
<rect width="4.26056" height="4.26056" transform="matrix(1 0 0 -1 25.3697 52.2891)" fill="#F7C948"/>
<rect x="41.4437" y="16.0742" width="4.26056" height="4.26056" transform="rotate(-180 41.4437 16.0742)" fill="#F7C948"/>
<rect x="45.7042" y="36.2153" width="4.26056" height="20.1408" transform="rotate(-180 45.7042 36.2153)" fill="#F7C948"/>
<path d="M26.463 42.3154L26.2975 34.8594L25.8134 18.2045L25.8503 9.48973H35.0528L43.4771 18.2045L42.5088 35.1499L35.4401 42.3154H26.463Z" fill="#8E8E8E"/>
<rect x="41.4437" y="40.4756" width="4.26056" height="4.26056" transform="rotate(-180 41.4437 40.4756)" fill="#4E4E4E"/>
<rect x="41.4437" y="16.0742" width="4.26056" height="4.26056" transform="rotate(-180 41.4437 16.0742)" fill="#4E4E4E"/>
<rect width="4" height="36" transform="matrix(1 0 0 -1 25 44.0005)" fill="#4E4E4E"/>
<rect x="45.7042" y="36.2153" width="4.26056" height="20.1408" transform="rotate(-180 45.7042 36.2153)" fill="#4E4E4E"/>
<path d="M25 44.7363H37.1831V40.4758H25V44.7363Z" fill="#4E4E4E"/>
<rect width="12" height="4" transform="matrix(1 0 0 -1 25 12.0005)" fill="#4E4E4E"/>
<path d="M28.2412 10.4214L28.4067 17.8774L28.8909 34.5323L28.8539 43.2471L19.6514 43.2471L11.2271 34.5323L12.1954 17.5869L19.2641 10.4214L28.2412 10.4214Z" fill="#FFDA71"/>
<rect x="13.2606" y="12.2612" width="4.26056" height="4.26056" fill="#F7C948"/>
<rect x="13.2606" y="36.6626" width="4.26056" height="4.26056" fill="#F7C948"/>
<rect width="4" height="36" transform="matrix(-1 8.74228e-08 8.74228e-08 1 29.7042 8.73633)" fill="#F7C948"/>
<rect x="9" y="16.5215" width="4.26056" height="20.1408" fill="#F7C948"/>
<path d="M29.7042 8.00049L17.5211 8.00049L17.5211 12.2611L29.7042 12.2611L29.7042 8.00049Z" fill="#F7C948"/>
<rect width="12" height="4" transform="matrix(-1 8.74228e-08 8.74228e-08 1 29.7042 40.7363)" fill="#F7C948"/>
</svg>
