<?xml version="1.0" encoding="UTF-8" ?>
<svg version="1.1" width="32" height="32" xmlns="http://www.w3.org/2000/svg" shape-rendering="crispEdges">
<rect x="19" y="1" width="3" height="1" fill="#000000" />
<rect x="18" y="2" width="1" height="1" fill="#000000" />
<rect x="19" y="2" width="1" height="1" fill="#C4D8A8" />
<rect x="20" y="2" width="1" height="1" fill="#6AAA50" />
<rect x="21" y="2" width="1" height="1" fill="#3A6A2A" />
<rect x="22" y="2" width="1" height="2" fill="#000000" />
<rect x="17" y="3" width="1" height="2" fill="#000000" />
<rect x="18" y="3" width="1" height="1" fill="#C4D8A8" />
<rect x="19" y="3" width="1" height="2" fill="#6AAA50" />
<rect x="20" y="3" width="1" height="2" fill="#3A6A2A" />
<rect x="21" y="3" width="1" height="2" fill="#000000" />
<rect x="23" y="3" width="1" height="2" fill="#000000" />
<rect x="16" y="4" width="1" height="1" fill="#000000" />
<rect x="18" y="4" width="1" height="1" fill="#6AAA50" />
<rect x="22" y="4" width="1" height="1" fill="#3A6A2A" />
<rect x="24" y="4" width="1" height="3" fill="#000000" />
<rect x="27" y="4" width="3" height="1" fill="#000000" />
<rect x="15" y="5" width="1" height="1" fill="#000000" />
<rect x="16" y="5" width="1" height="1" fill="#C4D8A8" />
<rect x="17" y="5" width="1" height="1" fill="#6AAA50" />
<rect x="18" y="5" width="2" height="1" fill="#3A6A2A" />
<rect x="20" y="5" width="1" height="1" fill="#000000" />
<rect x="22" y="5" width="1" height="2" fill="#000000" />
<rect x="23" y="5" width="1" height="1" fill="#3A6A2A" />
<rect x="25" y="5" width="2" height="1" fill="#000000" />
<rect x="27" y="5" width="2" height="1" fill="#F9DFE4" />
<rect x="29" y="5" width="1" height="2" fill="#000000" />
<rect x="16" y="6" width="4" height="1" fill="#000000" />
<rect x="23" y="6" width="1" height="1" fill="#6AAA50" />
<rect x="25" y="6" width="2" height="1" fill="#F9DFE4" />
<rect x="27" y="6" width="2" height="1" fill="#F2A0B0" />
<rect x="21" y="7" width="1" height="3" fill="#000000" />
<rect x="22" y="7" width="1" height="3" fill="#6AAA50" />
<rect x="23" y="7" width="1" height="3" fill="#000000" />
<rect x="24" y="7" width="2" height="1" fill="#F9DFE4" />
<rect x="26" y="7" width="1" height="1" fill="#A16A75" />
<rect x="27" y="7" width="1" height="2" fill="#F2A0B0" />
<rect x="28" y="7" width="1" height="2" fill="#000000" />
<rect x="24" y="8" width="1" height="1" fill="#F9DFE4" />
<rect x="25" y="8" width="1" height="1" fill="#A16A75" />
<rect x="26" y="8" width="1" height="2" fill="#F2A0B0" />
<rect x="24" y="9" width="1" height="1" fill="#A16A75" />
<rect x="25" y="9" width="1" height="2" fill="#F2A0B0" />
<rect x="27" y="9" width="1" height="1" fill="#000000" />
<rect x="20" y="10" width="1" height="1" fill="#000000" />
<rect x="21" y="10" width="1" height="2" fill="#F9DFE4" />
<rect x="22" y="10" width="1" height="1" fill="#000000" />
<rect x="23" y="10" width="1" height="1" fill="#6AAA50" />
<rect x="24" y="10" width="1" height="1" fill="#000000" />
<rect x="26" y="10" width="1" height="1" fill="#000000" />
<rect x="15" y="11" width="3" height="1" fill="#000000" />
<rect x="19" y="11" width="1" height="1" fill="#000000" />
<rect x="20" y="11" width="1" height="2" fill="#F9DFE4" />
<rect x="22" y="11" width="1" height="1" fill="#A16A75" />
<rect x="23" y="11" width="1" height="1" fill="#000000" />
<rect x="24" y="11" width="1" height="1" fill="#6AAA50" />
<rect x="25" y="11" width="1" height="1" fill="#000000" />
<rect x="13" y="12" width="2" height="1" fill="#000000" />
<rect x="15" y="12" width="2" height="1" fill="#6AAA50" />
<rect x="17" y="12" width="1" height="1" fill="#3A6A2A" />
<rect x="18" y="12" width="1" height="1" fill="#000000" />
<rect x="19" y="12" width="1" height="2" fill="#F9DFE4" />
<rect x="21" y="12" width="1" height="1" fill="#A16A75" />
<rect x="22" y="12" width="2" height="1" fill="#F2A0B0" />
<rect x="24" y="12" width="1" height="4" fill="#000000" />
<rect x="25" y="12" width="1" height="2" fill="#6AAA50" />
<rect x="26" y="12" width="1" height="4" fill="#000000" />
<rect x="12" y="13" width="1" height="1" fill="#000000" />
<rect x="13" y="13" width="2" height="1" fill="#C4D8A8" />
<rect x="15" y="13" width="3" height="1" fill="#000000" />
<rect x="18" y="13" width="1" height="2" fill="#F9DFE4" />
<rect x="20" y="13" width="1" height="1" fill="#A16A75" />
<rect x="21" y="13" width="2" height="1" fill="#F2A0B0" />
<rect x="23" y="13" width="1" height="1" fill="#000000" />
<rect x="11" y="14" width="1" height="1" fill="#000000" />
<rect x="12" y="14" width="1" height="1" fill="#C4D8A8" />
<rect x="13" y="14" width="2" height="1" fill="#000000" />
<rect x="16" y="14" width="1" height="1" fill="#000000" />
<rect x="17" y="14" width="1" height="2" fill="#F9DFE4" />
<rect x="19" y="14" width="1" height="1" fill="#A16A75" />
<rect x="20" y="14" width="2" height="1" fill="#F2A0B0" />
<rect x="22" y="14" width="1" height="1" fill="#000000" />
<rect x="25" y="14" width="1" height="2" fill="#3A6A2A" />
<rect x="10" y="15" width="1" height="6" fill="#000000" />
<rect x="11" y="15" width="1" height="1" fill="#C4D8A8" />
<rect x="12" y="15" width="1" height="5" fill="#000000" />
<rect x="15" y="15" width="1" height="1" fill="#000000" />
<rect x="16" y="15" width="1" height="2" fill="#F9DFE4" />
<rect x="18" y="15" width="1" height="1" fill="#A16A75" />
<rect x="19" y="15" width="2" height="1" fill="#F2A0B0" />
<rect x="21" y="15" width="1" height="2" fill="#000000" />
<rect x="11" y="16" width="1" height="4" fill="#6AAA50" />
<rect x="14" y="16" width="1" height="1" fill="#000000" />
<rect x="15" y="16" width="1" height="2" fill="#F9DFE4" />
<rect x="17" y="16" width="1" height="1" fill="#A16A75" />
<rect x="18" y="16" width="2" height="1" fill="#F2A0B0" />
<rect x="20" y="16" width="1" height="2" fill="#000000" />
<rect x="22" y="16" width="2" height="1" fill="#000000" />
<rect x="24" y="16" width="1" height="1" fill="#3A6A2A" />
<rect x="25" y="16" width="1" height="2" fill="#000000" />
<rect x="13" y="17" width="1" height="1" fill="#000000" />
<rect x="14" y="17" width="1" height="2" fill="#F9DFE4" />
<rect x="16" y="17" width="1" height="1" fill="#A16A75" />
<rect x="17" y="17" width="2" height="1" fill="#F2A0B0" />
<rect x="19" y="17" width="1" height="1" fill="#000000" />
<rect x="21" y="17" width="2" height="1" fill="#3A6A2A" />
<rect x="23" y="17" width="1" height="1" fill="#6AAA50" />
<rect x="24" y="17" width="1" height="1" fill="#000000" />
<rect x="26" y="17" width="3" height="1" fill="#000000" />
<rect x="13" y="18" width="1" height="2" fill="#F9DFE4" />
<rect x="15" y="18" width="1" height="1" fill="#A16A75" />
<rect x="16" y="18" width="2" height="1" fill="#F2A0B0" />
<rect x="18" y="18" width="1" height="1" fill="#000000" />
<rect x="21" y="18" width="3" height="1" fill="#000000" />
<rect x="26" y="18" width="1" height="1" fill="#000000" />
<rect x="27" y="18" width="2" height="1" fill="#3A6A2A" />
<rect x="29" y="18" width="1" height="1" fill="#000000" />
<rect x="14" y="19" width="1" height="1" fill="#A16A75" />
<rect x="15" y="19" width="2" height="1" fill="#F2A0B0" />
<rect x="17" y="19" width="1" height="1" fill="#000000" />
<rect x="27" y="19" width="1" height="1" fill="#000000" />
<rect x="28" y="19" width="1" height="1" fill="#3A6A2A" />
<rect x="29" y="19" width="1" height="1" fill="#C4D8A8" />
<rect x="30" y="19" width="1" height="2" fill="#000000" />
<rect x="11" y="20" width="1" height="1" fill="#000000" />
<rect x="12" y="20" width="1" height="1" fill="#6AAA50" />
<rect x="13" y="20" width="1" height="1" fill="#000000" />
<rect x="14" y="20" width="2" height="1" fill="#F2A0B0" />
<rect x="16" y="20" width="1" height="1" fill="#000000" />
<rect x="28" y="20" width="2" height="1" fill="#000000" />
<rect x="4" y="21" width="3" height="1" fill="#000000" />
<rect x="9" y="21" width="1" height="4" fill="#000000" />
<rect x="10" y="21" width="2" height="1" fill="#F9DFE4" />
<rect x="12" y="21" width="1" height="3" fill="#000000" />
<rect x="13" y="21" width="1" height="3" fill="#3A6A2A" />
<rect x="14" y="21" width="2" height="1" fill="#000000" />
<rect x="4" y="22" width="1" height="1" fill="#000000" />
<rect x="5" y="22" width="2" height="1" fill="#6B3520" />
<rect x="7" y="22" width="1" height="1" fill="#000000" />
<rect x="10" y="22" width="1" height="2" fill="#CF8896" />
<rect x="11" y="22" width="1" height="1" fill="#A16A75" />
<rect x="14" y="22" width="1" height="2" fill="#000000" />
<rect x="5" y="23" width="1" height="1" fill="#000000" />
<rect x="6" y="23" width="2" height="1" fill="#6B3520" />
<rect x="8" y="23" width="1" height="1" fill="#000000" />
<rect x="11" y="23" width="1" height="1" fill="#F2A0B0" />
<rect x="6" y="24" width="1" height="3" fill="#000000" />
<rect x="7" y="24" width="2" height="1" fill="#6B3520" />
<rect x="10" y="24" width="2" height="2" fill="#000000" />
<rect x="12" y="24" width="1" height="1" fill="#3A6A2A" />
<rect x="13" y="24" width="1" height="1" fill="#000000" />
<rect x="7" y="25" width="1" height="4" fill="#000000" />
<rect x="8" y="25" width="2" height="1" fill="#6B3520" />
<rect x="12" y="25" width="1" height="1" fill="#000000" />
<rect x="5" y="26" width="1" height="2" fill="#000000" />
<rect x="8" y="26" width="1" height="2" fill="#000000" />
<rect x="9" y="26" width="2" height="1" fill="#6B3520" />
<rect x="11" y="26" width="1" height="1" fill="#000000" />
<rect x="4" y="27" width="1" height="3" fill="#000000" />
<rect x="6" y="27" width="1" height="1" fill="#6B3520" />
<rect x="9" y="27" width="1" height="1" fill="#000000" />
<rect x="10" y="27" width="2" height="1" fill="#6B3520" />
<rect x="12" y="27" width="1" height="3" fill="#000000" />
<rect x="5" y="28" width="1" height="1" fill="#6B3520" />
<rect x="6" y="28" width="1" height="2" fill="#000000" />
<rect x="10" y="28" width="1" height="1" fill="#000000" />
<rect x="11" y="28" width="1" height="1" fill="#6B3520" />
<rect x="5" y="29" width="1" height="1" fill="#000000" />
<rect x="11" y="29" width="1" height="1" fill="#000000" />
</svg>