<svg width="65" height="42" viewBox="0 0 65 42" fill="none" xmlns="http://www.w3.org/2000/svg">
<path d="M19.8987 39.2705V26.1455H23.6487V28.0205H25.5237V29.8955H27.3987V28.0205H29.2737V26.1455H33.0237V39.2705H29.2737V31.7705H27.3987V35.5205H25.5237V31.7705H23.6487V39.2705H19.8987ZM34.8987 39.2705V29.8955H36.7737V28.0205H38.6487V26.1455H44.2737V28.0205H46.1487V29.8955H48.0237V39.2705H44.2737V35.5205H38.6487V39.2705H34.8987ZM38.6487 33.6455H44.2737V29.8955H42.3987V28.0205H40.5237V29.8955H38.6487V33.6455ZM49.8987 39.2705V35.5205H51.7737V33.6455H53.6487V31.7705H51.7737V29.8955H49.8987V26.1455H53.6487V29.8955H55.5237V31.7705H57.3987V29.8955H59.2737V26.1455H63.0237V29.8955H61.1487V31.7705H59.2737V33.6455H61.1487V35.5205H63.0237V39.2705H59.2737V35.5205H57.3987V33.6455H55.5237V35.5205H53.6487V39.2705H49.8987Z" fill="black"/>
<path d="M0.399631 34.8791L2.31331 32.8179L2.5867 17.0155H9.41332L9.13994 32.2683L11.6004 34.8791L11.5511 36.9L8.31979 40.513H3.68023L0.399631 37.2151L0.399631 34.8791Z" fill="#FD5E6E"/>
<path d="M1.06404 33.0278H2.12815V34.1667H1.06404V33.0278Z" fill="black"/>
<path d="M3.1923 29.6112H5.32053V30.7501H3.1923V29.6112Z" fill="black"/>
<path d="M3.1923 25.625H5.32053V26.7639H3.1923V25.625Z" fill="black"/>
<path d="M3.1923 21.6388H5.32053V22.7777H3.1923V21.6388Z" fill="black"/>
<path d="M3.1923 17.6527H5.32053V18.7916H3.1923V17.6527Z" fill="black"/>
<path d="M3.1923 13.6666H5.32053V14.8055H3.1923V13.6666Z" fill="black"/>
<path d="M3.1923 9.68038H5.32053V10.8193H3.1923V9.68038Z" fill="black"/>
<path d="M3.1923 5.69427H5.32053V6.83316H3.1923V5.69427Z" fill="black"/>
<path d="M9.87188 33.0278H10.936V34.1667H9.87188V33.0278Z" fill="black"/>
<path d="M3.1923 1.13904L4.25641 1.13904V2.27794H3.1923V1.13904Z" fill="black"/>
<path d="M7.74358 1.13904H8.8077V2.27794L7.74358 2.27794V1.13904Z" fill="black"/>
<path d="M4.25656 0L7.74375 0L7.74358 1.13904H4.25641L4.25656 0Z" fill="black"/>
<path d="M2.12829 2.27761L3.1923 2.27794L3.19241 33.0277L2.12815 33.0278L2.12829 2.27761Z" fill="black"/>
<path d="M8.8077 2.27794L9.87196 2.27761L9.87192 17.6527L9.87188 33.0278L8.80784 33.0277L8.8077 2.27794Z" fill="black"/>
<path d="M1.06404 37.5835H2.12815V38.7224H1.06404V37.5835Z" fill="black"/>
<path d="M9.87188 37.5835H10.936V38.7224H9.87188V37.5835Z" fill="black"/>
<path d="M2.12815 38.7224L3.19241 38.7225V39.8614H2.12829L2.12815 38.7224Z" fill="black"/>
<path d="M3.19241 39.8614L8.80772 39.8611V41H3.1923L3.19241 39.8614Z" fill="black"/>
<path d="M8.80784 38.7225L9.87188 38.7224L9.87196 39.8614L8.80772 39.8611L8.80784 38.7225Z" fill="black"/>
<path d="M0 34.1668L1.06404 34.1667L1.06404 37.5835L0 37.5835L0 34.1668Z" fill="black"/>
<path d="M10.936 34.1667L12 34.1668V37.5835L10.936 37.5835V34.1667Z" fill="black"/>
</svg>
