<?xml version="1.0" encoding="UTF-8" ?>
<svg version="1.1" width="72" height="72" xmlns="http://www.w3.org/2000/svg" shape-rendering="crispEdges">
<rect x="35" y="2" width="3" height="1" fill="#3A6A2A" />
<rect x="34" y="3" width="1" height="1" fill="#3A6A2A" />
<rect x="35" y="3" width="3" height="61" fill="#6AAA50" />
<rect x="38" y="3" width="1" height="1" fill="#3A6A2A" />
<rect x="33" y="4" width="1" height="1" fill="#3A6A2A" />
<rect x="34" y="4" width="1" height="59" fill="#6AAA50" />
<rect x="38" y="4" width="1" height="59" fill="#6AAA50" />
<rect x="39" y="4" width="1" height="1" fill="#3A6A2A" />
<rect x="32" y="5" width="1" height="1" fill="#3A6A2A" />
<rect x="33" y="5" width="1" height="57" fill="#6AAA50" />
<rect x="39" y="5" width="1" height="57" fill="#6AAA50" />
<rect x="40" y="5" width="1" height="1" fill="#3A6A2A" />
<rect x="31" y="6" width="1" height="1" fill="#3A6A2A" />
<rect x="32" y="6" width="1" height="55" fill="#6AAA50" />
<rect x="40" y="6" width="1" height="55" fill="#6AAA50" />
<rect x="41" y="6" width="1" height="1" fill="#3A6A2A" />
<rect x="30" y="7" width="1" height="1" fill="#3A6A2A" />
<rect x="31" y="7" width="1" height="53" fill="#6AAA50" />
<rect x="41" y="7" width="1" height="53" fill="#6AAA50" />
<rect x="42" y="7" width="1" height="1" fill="#3A6A2A" />
<rect x="29" y="8" width="1" height="1" fill="#3A6A2A" />
<rect x="30" y="8" width="1" height="51" fill="#6AAA50" />
<rect x="42" y="8" width="1" height="51" fill="#6AAA50" />
<rect x="43" y="8" width="1" height="1" fill="#3A6A2A" />
<rect x="28" y="9" width="1" height="1" fill="#3A6A2A" />
<rect x="29" y="9" width="1" height="49" fill="#6AAA50" />
<rect x="43" y="9" width="1" height="49" fill="#6AAA50" />
<rect x="44" y="9" width="1" height="1" fill="#3A6A2A" />
<rect x="27" y="10" width="1" height="1" fill="#3A6A2A" />
<rect x="28" y="10" width="1" height="47" fill="#6AAA50" />
<rect x="44" y="10" width="1" height="47" fill="#6AAA50" />
<rect x="45" y="10" width="1" height="1" fill="#3A6A2A" />
<rect x="26" y="11" width="1" height="1" fill="#3A6A2A" />
<rect x="27" y="11" width="1" height="45" fill="#6AAA50" />
<rect x="45" y="11" width="1" height="45" fill="#6AAA50" />
<rect x="46" y="11" width="1" height="1" fill="#3A6A2A" />
<rect x="25" y="12" width="1" height="1" fill="#3A6A2A" />
<rect x="26" y="12" width="1" height="43" fill="#6AAA50" />
<rect x="46" y="12" width="1" height="43" fill="#6AAA50" />
<rect x="47" y="12" width="1" height="1" fill="#3A6A2A" />
<rect x="24" y="13" width="1" height="1" fill="#3A6A2A" />
<rect x="25" y="13" width="1" height="41" fill="#6AAA50" />
<rect x="47" y="13" width="1" height="41" fill="#6AAA50" />
<rect x="48" y="13" width="1" height="1" fill="#3A6A2A" />
<rect x="23" y="14" width="1" height="1" fill="#3A6A2A" />
<rect x="24" y="14" width="1" height="39" fill="#6AAA50" />
<rect x="48" y="14" width="1" height="39" fill="#6AAA50" />
<rect x="49" y="14" width="1" height="1" fill="#3A6A2A" />
<rect x="22" y="15" width="1" height="1" fill="#3A6A2A" />
<rect x="23" y="15" width="1" height="37" fill="#6AAA50" />
<rect x="49" y="15" width="1" height="37" fill="#6AAA50" />
<rect x="50" y="15" width="1" height="1" fill="#3A6A2A" />
<rect x="21" y="16" width="1" height="1" fill="#3A6A2A" />
<rect x="22" y="16" width="1" height="35" fill="#6AAA50" />
<rect x="50" y="16" width="1" height="35" fill="#6AAA50" />
<rect x="51" y="16" width="1" height="1" fill="#3A6A2A" />
<rect x="20" y="17" width="1" height="1" fill="#3A6A2A" />
<rect x="21" y="17" width="1" height="33" fill="#6AAA50" />
<rect x="51" y="17" width="1" height="33" fill="#6AAA50" />
<rect x="52" y="17" width="1" height="1" fill="#3A6A2A" />
<rect x="19" y="18" width="1" height="1" fill="#3A6A2A" />
<rect x="20" y="18" width="1" height="31" fill="#6AAA50" />
<rect x="52" y="18" width="1" height="31" fill="#6AAA50" />
<rect x="53" y="18" width="1" height="1" fill="#3A6A2A" />
<rect x="18" y="19" width="1" height="1" fill="#3A6A2A" />
<rect x="19" y="19" width="1" height="29" fill="#6AAA50" />
<rect x="53" y="19" width="1" height="29" fill="#6AAA50" />
<rect x="54" y="19" width="1" height="1" fill="#3A6A2A" />
<rect x="17" y="20" width="1" height="1" fill="#3A6A2A" />
<rect x="18" y="20" width="1" height="27" fill="#6AAA50" />
<rect x="54" y="20" width="1" height="27" fill="#6AAA50" />
<rect x="55" y="20" width="1" height="1" fill="#3A6A2A" />
<rect x="16" y="21" width="1" height="1" fill="#3A6A2A" />
<rect x="17" y="21" width="1" height="25" fill="#6AAA50" />
<rect x="55" y="21" width="1" height="25" fill="#6AAA50" />
<rect x="56" y="21" width="1" height="1" fill="#3A6A2A" />
<rect x="15" y="22" width="1" height="1" fill="#3A6A2A" />
<rect x="16" y="22" width="1" height="23" fill="#6AAA50" />
<rect x="56" y="22" width="1" height="23" fill="#6AAA50" />
<rect x="57" y="22" width="1" height="1" fill="#3A6A2A" />
<rect x="14" y="23" width="1" height="1" fill="#3A6A2A" />
<rect x="15" y="23" width="1" height="21" fill="#6AAA50" />
<rect x="57" y="23" width="1" height="21" fill="#6AAA50" />
<rect x="58" y="23" width="1" height="1" fill="#3A6A2A" />
<rect x="13" y="24" width="1" height="1" fill="#3A6A2A" />
<rect x="14" y="24" width="1" height="19" fill="#6AAA50" />
<rect x="58" y="24" width="1" height="19" fill="#6AAA50" />
<rect x="59" y="24" width="1" height="1" fill="#3A6A2A" />
<rect x="12" y="25" width="1" height="1" fill="#3A6A2A" />
<rect x="13" y="25" width="1" height="17" fill="#6AAA50" />
<rect x="59" y="25" width="1" height="17" fill="#6AAA50" />
<rect x="60" y="25" width="1" height="1" fill="#3A6A2A" />
<rect x="11" y="26" width="1" height="1" fill="#3A6A2A" />
<rect x="12" y="26" width="1" height="15" fill="#6AAA50" />
<rect x="60" y="26" width="1" height="15" fill="#6AAA50" />
<rect x="61" y="26" width="1" height="1" fill="#3A6A2A" />
<rect x="10" y="27" width="1" height="1" fill="#3A6A2A" />
<rect x="11" y="27" width="1" height="13" fill="#6AAA50" />
<rect x="61" y="27" width="1" height="13" fill="#6AAA50" />
<rect x="62" y="27" width="1" height="1" fill="#3A6A2A" />
<rect x="9" y="28" width="1" height="1" fill="#3A6A2A" />
<rect x="10" y="28" width="1" height="11" fill="#6AAA50" />
<rect x="62" y="28" width="1" height="11" fill="#6AAA50" />
<rect x="63" y="28" width="1" height="1" fill="#3A6A2A" />
<rect x="8" y="29" width="1" height="1" fill="#3A6A2A" />
<rect x="9" y="29" width="1" height="9" fill="#6AAA50" />
<rect x="63" y="29" width="1" height="9" fill="#6AAA50" />
<rect x="64" y="29" width="1" height="1" fill="#3A6A2A" />
<rect x="7" y="30" width="1" height="1" fill="#3A6A2A" />
<rect x="8" y="30" width="1" height="7" fill="#6AAA50" />
<rect x="64" y="30" width="1" height="7" fill="#6AAA50" />
<rect x="65" y="30" width="1" height="1" fill="#3A6A2A" />
<rect x="6" y="31" width="1" height="1" fill="#3A6A2A" />
<rect x="7" y="31" width="1" height="5" fill="#6AAA50" />
<rect x="65" y="31" width="1" height="5" fill="#6AAA50" />
<rect x="66" y="31" width="1" height="1" fill="#3A6A2A" />
<rect x="5" y="32" width="1" height="9" fill="#3A6A2A" />
<rect x="6" y="32" width="1" height="3" fill="#6AAA50" />
<rect x="66" y="32" width="1" height="3" fill="#6AAA50" />
<rect x="67" y="32" width="1" height="9" fill="#3A6A2A" />
<rect x="6" y="35" width="1" height="7" fill="#3A6A2A" />
<rect x="66" y="35" width="1" height="7" fill="#3A6A2A" />
<rect x="7" y="36" width="1" height="7" fill="#3A6A2A" />
<rect x="65" y="36" width="1" height="7" fill="#3A6A2A" />
<rect x="8" y="37" width="1" height="7" fill="#3A6A2A" />
<rect x="64" y="37" width="1" height="7" fill="#3A6A2A" />
<rect x="9" y="38" width="1" height="7" fill="#3A6A2A" />
<rect x="63" y="38" width="1" height="7" fill="#3A6A2A" />
<rect x="10" y="39" width="1" height="7" fill="#3A6A2A" />
<rect x="62" y="39" width="1" height="7" fill="#3A6A2A" />
<rect x="11" y="40" width="1" height="7" fill="#3A6A2A" />
<rect x="61" y="40" width="1" height="7" fill="#3A6A2A" />
<rect x="12" y="41" width="1" height="7" fill="#3A6A2A" />
<rect x="60" y="41" width="1" height="7" fill="#3A6A2A" />
<rect x="13" y="42" width="1" height="7" fill="#3A6A2A" />
<rect x="59" y="42" width="1" height="7" fill="#3A6A2A" />
<rect x="14" y="43" width="1" height="7" fill="#3A6A2A" />
<rect x="58" y="43" width="1" height="7" fill="#3A6A2A" />
<rect x="15" y="44" width="1" height="7" fill="#3A6A2A" />
<rect x="57" y="44" width="1" height="7" fill="#3A6A2A" />
<rect x="16" y="45" width="1" height="7" fill="#3A6A2A" />
<rect x="56" y="45" width="1" height="7" fill="#3A6A2A" />
<rect x="17" y="46" width="1" height="7" fill="#3A6A2A" />
<rect x="55" y="46" width="1" height="7" fill="#3A6A2A" />
<rect x="18" y="47" width="1" height="7" fill="#3A6A2A" />
<rect x="54" y="47" width="1" height="7" fill="#3A6A2A" />
<rect x="19" y="48" width="1" height="7" fill="#3A6A2A" />
<rect x="53" y="48" width="1" height="7" fill="#3A6A2A" />
<rect x="20" y="49" width="1" height="7" fill="#3A6A2A" />
<rect x="52" y="49" width="1" height="7" fill="#3A6A2A" />
<rect x="21" y="50" width="1" height="7" fill="#3A6A2A" />
<rect x="51" y="50" width="1" height="7" fill="#3A6A2A" />
<rect x="22" y="51" width="1" height="7" fill="#3A6A2A" />
<rect x="50" y="51" width="1" height="7" fill="#3A6A2A" />
<rect x="23" y="52" width="1" height="7" fill="#3A6A2A" />
<rect x="49" y="52" width="1" height="7" fill="#3A6A2A" />
<rect x="24" y="53" width="1" height="7" fill="#3A6A2A" />
<rect x="48" y="53" width="1" height="7" fill="#3A6A2A" />
<rect x="25" y="54" width="1" height="7" fill="#3A6A2A" />
<rect x="47" y="54" width="1" height="7" fill="#3A6A2A" />
<rect x="26" y="55" width="1" height="7" fill="#3A6A2A" />
<rect x="46" y="55" width="1" height="7" fill="#3A6A2A" />
<rect x="27" y="56" width="1" height="7" fill="#3A6A2A" />
<rect x="45" y="56" width="1" height="7" fill="#3A6A2A" />
<rect x="28" y="57" width="1" height="7" fill="#3A6A2A" />
<rect x="44" y="57" width="1" height="7" fill="#3A6A2A" />
<rect x="29" y="58" width="1" height="7" fill="#3A6A2A" />
<rect x="43" y="58" width="1" height="7" fill="#3A6A2A" />
<rect x="30" y="59" width="1" height="7" fill="#3A6A2A" />
<rect x="42" y="59" width="1" height="7" fill="#3A6A2A" />
<rect x="31" y="60" width="1" height="7" fill="#3A6A2A" />
<rect x="41" y="60" width="1" height="7" fill="#3A6A2A" />
<rect x="32" y="61" width="1" height="7" fill="#3A6A2A" />
<rect x="40" y="61" width="1" height="7" fill="#3A6A2A" />
<rect x="33" y="62" width="1" height="7" fill="#3A6A2A" />
<rect x="39" y="62" width="1" height="7" fill="#3A6A2A" />
<rect x="34" y="63" width="1" height="7" fill="#3A6A2A" />
<rect x="38" y="63" width="1" height="7" fill="#3A6A2A" />
<rect x="35" y="64" width="3" height="7" fill="#3A6A2A" />
</svg>