<svg width="109" height="29" viewBox="0 0 109 29" fill="none" xmlns="http://www.w3.org/2000/svg">
<rect x="2.36957" y="3.15942" width="106.63" height="25.2754" fill="black"/>
<rect x="0.5" y="0.5" width="105.63" height="24.2754" fill="#FFFDE5" stroke="black"/>
<path d="M9 11H9.99947V14H9V11ZM12.9979 11H13.9974V14H12.9979V11ZM10.9989 16H9.99947V14H10.9989V16ZM10.9989 16H11.9984V17H10.9989V16ZM11.9984 14H12.9979V16H11.9984V14Z" fill="#1A120A"/>
<path d="M16.9997 11H19.9981V12H16.9997V11ZM16.0002 12H16.9997V13H19.9981V12H20.9976V14H16.9997V16H16.0002V12ZM16.9997 16H19.9981V17H16.9997V16ZM19.9981 15H20.9976V16H19.9981V15Z" fill="#1A120A"/>
<path d="M24.9994 11V12H25.9989V13H24.9994V16H26.9983V17H23.0004V16H23.9999V12H23.0004V11H24.9994ZM27.9978 11V12H25.9989V11H27.9978Z" fill="#1A120A"/>
<path d="M33.9986 16V17H31.0001V16H33.9986ZM31.0001 16H30.0007V15H31.0001V16ZM33.9986 11V12H31.0001V11H33.9986ZM30.0007 12H31.0001V13H30.0007V12ZM31.0001 13H33.9986V14H31.0001V13ZM33.9986 14H34.998V16H33.9986V14ZM33.9986 12H34.998V13H33.9986V12Z" fill="#1A120A"/>
<path d="M38.9998 12H37.0009V11H39.9993V16H41.9982V17H37.0009V16H38.9998V12ZM38.9998 9H39.9993V10H38.9998V9Z" fill="#1A120A"/>
<path d="M45.0006 11H47.999V12H45.0006V11ZM47.999 12H48.9985V16H47.999V12ZM44.0011 12H45.0006V16H44.0011V12ZM45.0006 16H47.999V17H45.0006V16Z" fill="#1A120A"/>
<path d="M51.0013 11H52.0008V12H53.0003V13H52.0008V17H51.0013V11ZM53.0003 11H54.9992V12H53.0003V11ZM54.9992 12H55.9987V17H54.9992V12Z" fill="#1A120A"/>
<path d="M65.0018 10H66.0012V13H67.0007V14H66.0012V16H65.0018V10ZM66.0012 16H68.9996V17H66.0012V16ZM66.0012 9H68.9996V10H66.0012V9ZM68.9996 10H69.9991V16H68.9996V12H68.0002V11H68.9996V10ZM67.0007 12H68.0002V13H67.0007V12Z" fill="#1A120A"/>
<path d="M74.0009 15H75.0004V17H74.0009V15Z" fill="#1A120A"/>
<path d="M83.0001 16V17H80.0017V16H83.0001ZM80.0017 16H79.0022V15H80.0017V16ZM83.0001 13V10H83.9996V16H83.0001V14H80.0017V13H83.0001ZM80.0017 13H79.0022V10H80.0017V13ZM80.0017 9H83.0001V10H80.0017V9Z" fill="#1A120A"/>
<path d="M88.0014 15H89.0008V17H88.0014V15Z" fill="#1A120A"/>
<path d="M93.0026 15H94.0021V16H98V17H93.0026V15ZM97.0005 10H94.0021V9H97.0005V10ZM97.0005 10H98V12H97.0005V10ZM94.0021 14H95.0016V15H94.0021V14ZM93.0026 10H94.0021V11H93.0026V10ZM96.0011 12H97.0005V13H96.0011V12ZM95.0016 13H96.0011V14H95.0016V13Z" fill="#1A120A"/>
</svg>
