<svg width="190" height="32" viewBox="0 0 190 32" fill="none" xmlns="http://www.w3.org/2000/svg">
<g clip-path="url(#clip0_369_1520)">
<path d="M12 5H9.60001V7.08333H12V5Z" fill="#3A9AE0"/>
<path d="M14.4 5H12V7.08333H14.4V5Z" fill="#3A9AE0"/>
<path d="M9.6 7.08325H7.2V9.16659H9.6V7.08325Z" fill="#3A9AE0"/>
<path d="M12 7.08325H9.60001V9.16659H12V7.08325Z" fill="#6EC6F5"/>
<path d="M14.4 7.08325H12V9.16659H14.4V7.08325Z" fill="#6EC6F5"/>
<path d="M16.8 7.08325H14.4V9.16659H16.8V7.08325Z" fill="#3A9AE0"/>
<path d="M7.2 9.16675H4.8V11.2501H7.2V9.16675Z" fill="#3A9AE0"/>
<path d="M9.6 9.16675H7.2V11.2501H9.6V9.16675Z" fill="#6EC6F5"/>
<path d="M12 9.16675H9.60001V11.2501H12V9.16675Z" fill="#6EC6F5"/>
<path d="M14.4 9.16675H12V11.2501H14.4V9.16675Z" fill="#6EC6F5"/>
<path d="M16.8 9.16675H14.4V11.2501H16.8V9.16675Z" fill="#6EC6F5"/>
<path d="M19.2 9.16675H16.8V11.2501H19.2V9.16675Z" fill="#3A9AE0"/>
<path d="M7.2 11.25H4.8V13.3333H7.2V11.25Z" fill="#3A9AE0"/>
<path d="M9.6 11.25H7.2V13.3333H9.6V11.25Z" fill="#6EC6F5"/>
<path d="M12 11.25H9.60001V13.3333H12V11.25Z" fill="#6EC6F5"/>
<path d="M14.4 11.25H12V13.3333H14.4V11.25Z" fill="#6EC6F5"/>
<path d="M16.8 11.25H14.4V13.3333H16.8V11.25Z" fill="#6EC6F5"/>
<path d="M19.2 11.25H16.8V13.3333H19.2V11.25Z" fill="#3A9AE0"/>
<path d="M4.79999 13.3333H2.39999V15.4166H4.79999V13.3333Z" fill="#3A9AE0"/>
<path d="M7.2 13.3333H4.8V15.4166H7.2V13.3333Z" fill="#6EC6F5"/>
<path d="M9.6 13.3333H7.2V15.4166H9.6V13.3333Z" fill="#6EC6F5"/>
<path d="M12 13.3333H9.60001V15.4166H12V13.3333Z" fill="#6EC6F5"/>
<path d="M14.4 13.3333H12V15.4166H14.4V13.3333Z" fill="#6EC6F5"/>
<path d="M16.8 13.3333H14.4V15.4166H16.8V13.3333Z" fill="#6EC6F5"/>
<path d="M19.2 13.3333H16.8V15.4166H19.2V13.3333Z" fill="#6EC6F5"/>
<path d="M21.6 13.3333H19.2V15.4166H21.6V13.3333Z" fill="#3A9AE0"/>
<path d="M4.79999 15.4167H2.39999V17.5001H4.79999V15.4167Z" fill="#3A9AE0"/>
<path d="M7.2 15.4167H4.8V17.5001H7.2V15.4167Z" fill="#6EC6F5"/>
<path d="M9.6 15.4167H7.2V17.5001H9.6V15.4167Z" fill="#6EC6F5"/>
<path d="M12 15.4167H9.60001V17.5001H12V15.4167Z" fill="#6EC6F5"/>
<path d="M14.4 15.4167H12V17.5001H14.4V15.4167Z" fill="#6EC6F5"/>
<path d="M16.8 15.4167H14.4V17.5001H16.8V15.4167Z" fill="#6EC6F5"/>
<path d="M19.2 15.4167H16.8V17.5001H19.2V15.4167Z" fill="#6EC6F5"/>
<path d="M21.6 15.4167H19.2V17.5001H21.6V15.4167Z" fill="#3A9AE0"/>
<path d="M2.4 17.5H0V19.5833H2.4V17.5Z" fill="#3A9AE0"/>
<path d="M4.79999 17.5H2.39999V19.5833H4.79999V17.5Z" fill="#6EC6F5"/>
<path d="M7.2 17.5H4.8V19.5833H7.2V17.5Z" fill="#6EC6F5"/>
<path d="M9.6 17.5H7.2V19.5833H9.6V17.5Z" fill="#6EC6F5"/>
<path d="M12 17.5H9.60001V19.5833H12V17.5Z" fill="#6EC6F5"/>
<path d="M14.4 17.5H12V19.5833H14.4V17.5Z" fill="#6EC6F5"/>
<path d="M16.8 17.5H14.4V19.5833H16.8V17.5Z" fill="#6EC6F5"/>
<path d="M19.2 17.5H16.8V19.5833H19.2V17.5Z" fill="#6EC6F5"/>
<path d="M21.6 17.5H19.2V19.5833H21.6V17.5Z" fill="#6EC6F5"/>
<path d="M24 17.5H21.6V19.5833H24V17.5Z" fill="#3A9AE0"/>
<path d="M2.4 19.5833H0V21.6666H2.4V19.5833Z" fill="#3A9AE0"/>
<path d="M4.79999 19.5833H2.39999V21.6666H4.79999V19.5833Z" fill="#6EC6F5"/>
<path d="M7.2 19.5833H4.8V21.6666H7.2V19.5833Z" fill="#6EC6F5"/>
<path d="M9.6 19.5833H7.2V21.6666H9.6V19.5833Z" fill="#6EC6F5"/>
<path d="M12 19.5833H9.60001V21.6666H12V19.5833Z" fill="#6EC6F5"/>
<path d="M14.4 19.5833H12V21.6666H14.4V19.5833Z" fill="#6EC6F5"/>
<path d="M16.8 19.5833H14.4V21.6666H16.8V19.5833Z" fill="#6EC6F5"/>
<path d="M19.2 19.5833H16.8V21.6666H19.2V19.5833Z" fill="#6EC6F5"/>
<path d="M21.6 19.5833H19.2V21.6666H21.6V19.5833Z" fill="#6EC6F5"/>
<path d="M24 19.5833H21.6V21.6666H24V19.5833Z" fill="#3A9AE0"/>
<path d="M2.4 21.6667H0V23.7501H2.4V21.6667Z" fill="#3A9AE0"/>
<path d="M4.79999 21.6667H2.39999V23.7501H4.79999V21.6667Z" fill="#6EC6F5"/>
<path d="M7.2 21.6667H4.8V23.7501H7.2V21.6667Z" fill="#6EC6F5"/>
<path d="M9.6 21.6667H7.2V23.7501H9.6V21.6667Z" fill="#6EC6F5"/>
<path d="M12 21.6667H9.60001V23.7501H12V21.6667Z" fill="#6EC6F5"/>
<path d="M14.4 21.6667H12V23.7501H14.4V21.6667Z" fill="#6EC6F5"/>
<path d="M16.8 21.6667H14.4V23.7501H16.8V21.6667Z" fill="#6EC6F5"/>
<path d="M19.2 21.6667H16.8V23.7501H19.2V21.6667Z" fill="#6EC6F5"/>
<path d="M21.6 21.6667H19.2V23.7501H21.6V21.6667Z" fill="#6EC6F5"/>
<path d="M24 21.6667H21.6V23.7501H24V21.6667Z" fill="#3A9AE0"/>
<path d="M4.79999 23.75H2.39999V25.8333H4.79999V23.75Z" fill="#3A9AE0"/>
<path d="M7.2 23.75H4.8V25.8333H7.2V23.75Z" fill="#6EC6F5"/>
<path d="M9.6 23.75H7.2V25.8333H9.6V23.75Z" fill="#6EC6F5"/>
<path d="M12 23.75H9.60001V25.8333H12V23.75Z" fill="#6EC6F5"/>
<path d="M14.4 23.75H12V25.8333H14.4V23.75Z" fill="#6EC6F5"/>
<path d="M16.8 23.75H14.4V25.8333H16.8V23.75Z" fill="#6EC6F5"/>
<path d="M19.2 23.75H16.8V25.8333H19.2V23.75Z" fill="#6EC6F5"/>
<path d="M21.6 23.75H19.2V25.8333H21.6V23.75Z" fill="#3A9AE0"/>
<path d="M7.2 25.8333H4.8V27.9166H7.2V25.8333Z" fill="#3A9AE0"/>
<path d="M9.6 25.8333H7.2V27.9166H9.6V25.8333Z" fill="#6EC6F5"/>
<path d="M12 25.8333H9.60001V27.9166H12V25.8333Z" fill="#6EC6F5"/>
<path d="M14.4 25.8333H12V27.9166H14.4V25.8333Z" fill="#6EC6F5"/>
<path d="M16.8 25.8333H14.4V27.9166H16.8V25.8333Z" fill="#6EC6F5"/>
<path d="M19.2 25.8333H16.8V27.9166H19.2V25.8333Z" fill="#3A9AE0"/>
<path d="M9.6 27.9167H7.2V30.0001H9.6V27.9167Z" fill="#3A9AE0"/>
<path d="M12 27.9167H9.60001V30.0001H12V27.9167Z" fill="#3A9AE0"/>
<path d="M14.4 27.9167H12V30.0001H14.4V27.9167Z" fill="#3A9AE0"/>
<path d="M16.8 27.9167H14.4V30.0001H16.8V27.9167Z" fill="#3A9AE0"/>
<path d="M14.9333 23.0557H9.06667V24.9075H14.9333V23.0557Z" fill="white" fill-opacity="0.3"/>
</g>
<path d="M187.914 11.2273H49.5455V30.2273H187.914V11.2273Z" fill="#FFFDE5" stroke="#6EC6F5" stroke-width="2.5"/>
<path d="M117.689 6.04541L117.689 5.03783L116.519 5.03783L116.519 3.02268L115.348 3.02268L115.348 1.00754L114.178 1.00754L114.178 -3.19047e-05L122.371 -3.22445e-05L122.371 1.00754L121.2 1.00754L121.2 3.02268L120.03 3.02268L120.03 5.03783L118.86 5.03783L118.86 6.04541L117.689 6.04541Z" fill="#1A120A" fill-opacity="0.56"/>
<path d="M144.219 14.6819H134.205V18.1364H144.219V14.6819Z" fill="white" fill-opacity="0.3"/>
<path d="M157.873 14.6819H147.86V18.1364H157.873V14.6819Z" fill="white" fill-opacity="0.3"/>
<path d="M171.528 14.6819H161.515V18.1364H171.528V14.6819Z" fill="white" fill-opacity="0.3"/>
<path d="M185.183 14.6819H175.169V18.1364H185.183V14.6819Z" fill="white" fill-opacity="0.3"/>
<path d="M120 13H51V29H120V13Z" fill="#3A9AE0"/>
<path d="M130.564 14.6819H120.55V18.1364H130.564V14.6819Z" fill="white" fill-opacity="0.3"/>
<path d="M119.64 12.9546H117.819V28.5H119.64V12.9546Z" fill="black" fill-opacity="0.57"/>
<path d="M133.295 12.9546H131.474V28.5H133.295V12.9546Z" fill="black" fill-opacity="0.57"/>
<path d="M146.95 12.9546H145.129V28.5H146.95V12.9546Z" fill="black" fill-opacity="0.57"/>
<path d="M160.604 12.9546H158.784V28.5H160.604V12.9546Z" fill="black" fill-opacity="0.57"/>
<path d="M174.259 12.9546H172.438V28.5H174.259V12.9546Z" fill="black" fill-opacity="0.57"/>
<path d="M65.021 12.9546H63.2003V28.5H65.021V12.9546Z" fill="black" fill-opacity="0.57"/>
<path d="M78.6756 12.9546H76.855V28.5H78.6756V12.9546Z" fill="black" fill-opacity="0.57"/>
<path d="M92.3304 12.9546H90.5097V28.5H92.3304V12.9546Z" fill="black" fill-opacity="0.57"/>
<path d="M105.985 12.9546H104.165V28.5H105.985V12.9546Z" fill="black" fill-opacity="0.57"/>
<path d="M62.29 14.6819H52.2765V18.1364H62.29V14.6819Z" fill="white" fill-opacity="0.3"/>
<path d="M75.9447 14.6819H65.9312V18.1364H75.9447V14.6819Z" fill="white" fill-opacity="0.3"/>
<path d="M89.5994 14.6819H79.5859V18.1364H89.5994V14.6819Z" fill="white" fill-opacity="0.3"/>
<path d="M103.254 14.6819H93.2408V18.1364H103.254V14.6819Z" fill="white" fill-opacity="0.3"/>
<path d="M116.909 14.6819H106.895V18.1364H116.909V14.6819Z" fill="white" fill-opacity="0.3"/>
<defs>
<clipPath id="clip0_369_1520">
<rect width="24" height="25" fill="white" transform="translate(0 5)"/>
</clipPath>
</defs>
</svg>
