<svg width="159" height="37" viewBox="0 0 159 37" fill="none" xmlns="http://www.w3.org/2000/svg">
<path d="M157 13H5.00002V35H157V13Z" fill="#FFFDE5" stroke="#6EC6F5" stroke-width="2.5"/>
<path d="M22.0001 15H20.0001V33H22.0001V15Z" fill="black" fill-opacity="0.57"/>
<path d="M37.0001 15H35.0001V33H37.0001V15Z" fill="black" fill-opacity="0.57"/>
<path d="M52.0001 15H50.0001V33H52.0001V15Z" fill="black" fill-opacity="0.57"/>
<path d="M67.0001 15H65.0001V33H67.0001V15Z" fill="black" fill-opacity="0.57"/>
<path d="M82.0001 15H80.0001V33H82.0001V15Z" fill="black" fill-opacity="0.57"/>
<path d="M97.0001 15H95.0001V33H97.0001V15Z" fill="black" fill-opacity="0.57"/>
<path d="M112 15H110V33H112V15Z" fill="black" fill-opacity="0.57"/>
<path d="M127 15H125V33H127V15Z" fill="black" fill-opacity="0.57"/>
<path d="M142 15H140V33H142V15Z" fill="black" fill-opacity="0.57"/>
<path d="M19.0001 17H8.00006V21H19.0001V17Z" fill="white" fill-opacity="0.3"/>
<path d="M34.0001 17H23.0001V21H34.0001V17Z" fill="white" fill-opacity="0.3"/>
<path d="M49.0001 17H38.0001V21H49.0001V17Z" fill="white" fill-opacity="0.3"/>
<path d="M64.0001 17H53.0001V21H64.0001V17Z" fill="white" fill-opacity="0.3"/>
<path d="M79.0001 17H68.0001V21H79.0001V17Z" fill="white" fill-opacity="0.3"/>
<path d="M94.0001 17H83.0001V21H94.0001V17Z" fill="white" fill-opacity="0.3"/>
<path d="M109 17H98.0001V21H109V17Z" fill="white" fill-opacity="0.3"/>
<path d="M124 17H113V21H124V17Z" fill="white" fill-opacity="0.3"/>
<path d="M139 17H128V21H139V17Z" fill="white" fill-opacity="0.3"/>
<path d="M154 17H143V21H154V17Z" fill="white" fill-opacity="0.3"/>
<path d="M3.85714 7L3.85714 5.83333L2.57143 5.83333L2.57143 3.49999L1.28571 3.49999L1.28571 1.16666L-2.54983e-07 1.16666L-3.0598e-07 5.85212e-07L9 1.91809e-07L9 1.16666L7.71429 1.16666L7.71429 3.49999L6.42857 3.49999L6.42857 5.83333L5.14286 5.83333L5.14286 7L3.85714 7Z" fill="#1A120A" fill-opacity="0.56"/>
</svg>
