<svg width="45" height="54" viewBox="0 0 45 54" fill="none" xmlns="http://www.w3.org/2000/svg">
<g clip-path="url(#clip0_159_941)">
<path d="M22.5 0H18V4.5H22.5V0Z" fill="#3A9AE0"/>
<path d="M27 0H22.5V4.5H27V0Z" fill="#3A9AE0"/>
<path d="M18 4.5H13.5V9H18V4.5Z" fill="#3A9AE0"/>
<path d="M22.5 4.5H18V9H22.5V4.5Z" fill="#6EC6F5"/>
<path d="M27 4.5H22.5V9H27V4.5Z" fill="#6EC6F5"/>
<path d="M31.5 4.5H27V9H31.5V4.5Z" fill="#3A9AE0"/>
<path d="M13.5 9H9V13.5H13.5V9Z" fill="#3A9AE0"/>
<path d="M18 9H13.5V13.5H18V9Z" fill="#6EC6F5"/>
<path d="M22.5 9H18V13.5H22.5V9Z" fill="#6EC6F5"/>
<path d="M27 9H22.5V13.5H27V9Z" fill="#6EC6F5"/>
<path d="M31.5 9H27V13.5H31.5V9Z" fill="#6EC6F5"/>
<path d="M36 9H31.5V13.5H36V9Z" fill="#3A9AE0"/>
<path d="M13.5 13.5H9V18H13.5V13.5Z" fill="#3A9AE0"/>
<path d="M18 13.5H13.5V18H18V13.5Z" fill="#6EC6F5"/>
<path d="M22.5 13.5H18V18H22.5V13.5Z" fill="#6EC6F5"/>
<path d="M27 13.5H22.5V18H27V13.5Z" fill="#6EC6F5"/>
<path d="M31.5 13.5H27V18H31.5V13.5Z" fill="#6EC6F5"/>
<path d="M36 13.5H31.5V18H36V13.5Z" fill="#3A9AE0"/>
<path d="M9 18H4.5V22.5H9V18Z" fill="#3A9AE0"/>
<path d="M13.5 18H9V22.5H13.5V18Z" fill="#6EC6F5"/>
<path d="M18 18H13.5V22.5H18V18Z" fill="#6EC6F5"/>
<path d="M22.5 18H18V22.5H22.5V18Z" fill="#6EC6F5"/>
<path d="M27 18H22.5V22.5H27V18Z" fill="#6EC6F5"/>
<path d="M31.5 18H27V22.5H31.5V18Z" fill="#6EC6F5"/>
<path d="M36 18H31.5V22.5H36V18Z" fill="#6EC6F5"/>
<path d="M40.5 18H36V22.5H40.5V18Z" fill="#3A9AE0"/>
<path d="M9 22.5H4.5V27H9V22.5Z" fill="#3A9AE0"/>
<path d="M13.5 22.5H9V27H13.5V22.5Z" fill="#6EC6F5"/>
<path d="M18 22.5H13.5V27H18V22.5Z" fill="#6EC6F5"/>
<path d="M22.5 22.5H18V27H22.5V22.5Z" fill="#6EC6F5"/>
<path d="M27 22.5H22.5V27H27V22.5Z" fill="#6EC6F5"/>
<path d="M31.5 22.5H27V27H31.5V22.5Z" fill="#6EC6F5"/>
<path d="M36 22.5H31.5V27H36V22.5Z" fill="#6EC6F5"/>
<path d="M40.5 22.5H36V27H40.5V22.5Z" fill="#3A9AE0"/>
<path d="M4.5 27H0V31.5H4.5V27Z" fill="#3A9AE0"/>
<path d="M9 27H4.5V31.5H9V27Z" fill="#6EC6F5"/>
<path d="M13.5 27H9V31.5H13.5V27Z" fill="#6EC6F5"/>
<path d="M18 27H13.5V31.5H18V27Z" fill="#6EC6F5"/>
<path d="M22.5 27H18V31.5H22.5V27Z" fill="#6EC6F5"/>
<path d="M27 27H22.5V31.5H27V27Z" fill="#6EC6F5"/>
<path d="M31.5 27H27V31.5H31.5V27Z" fill="#6EC6F5"/>
<path d="M36 27H31.5V31.5H36V27Z" fill="#6EC6F5"/>
<path d="M40.5 27H36V31.5H40.5V27Z" fill="#6EC6F5"/>
<path d="M45 27H40.5V31.5H45V27Z" fill="#3A9AE0"/>
<path d="M4.5 31.5H0V36H4.5V31.5Z" fill="#3A9AE0"/>
<path d="M9 31.5H4.5V36H9V31.5Z" fill="#6EC6F5"/>
<path d="M13.5 31.5H9V36H13.5V31.5Z" fill="#6EC6F5"/>
<path d="M18 31.5H13.5V36H18V31.5Z" fill="#6EC6F5"/>
<path d="M22.5 31.5H18V36H22.5V31.5Z" fill="#6EC6F5"/>
<path d="M27 31.5H22.5V36H27V31.5Z" fill="#6EC6F5"/>
<path d="M31.5 31.5H27V36H31.5V31.5Z" fill="#6EC6F5"/>
<path d="M36 31.5H31.5V36H36V31.5Z" fill="#6EC6F5"/>
<path d="M40.5 31.5H36V36H40.5V31.5Z" fill="#6EC6F5"/>
<path d="M45 31.5H40.5V36H45V31.5Z" fill="#3A9AE0"/>
<path d="M4.5 36H0V40.5H4.5V36Z" fill="#3A9AE0"/>
<path d="M9 36H4.5V40.5H9V36Z" fill="#6EC6F5"/>
<path d="M13.5 36H9V40.5H13.5V36Z" fill="#6EC6F5"/>
<path d="M18 36H13.5V40.5H18V36Z" fill="#6EC6F5"/>
<path d="M22.5 36H18V40.5H22.5V36Z" fill="#6EC6F5"/>
<path d="M27 36H22.5V40.5H27V36Z" fill="#6EC6F5"/>
<path d="M31.5 36H27V40.5H31.5V36Z" fill="#6EC6F5"/>
<path d="M36 36H31.5V40.5H36V36Z" fill="#6EC6F5"/>
<path d="M40.5 36H36V40.5H40.5V36Z" fill="#6EC6F5"/>
<path d="M45 36H40.5V40.5H45V36Z" fill="#3A9AE0"/>
<path d="M9 40.5H4.5V45H9V40.5Z" fill="#3A9AE0"/>
<path d="M13.5 40.5H9V45H13.5V40.5Z" fill="#6EC6F5"/>
<path d="M18 40.5H13.5V45H18V40.5Z" fill="#6EC6F5"/>
<path d="M22.5 40.5H18V45H22.5V40.5Z" fill="#6EC6F5"/>
<path d="M27 40.5H22.5V45H27V40.5Z" fill="#6EC6F5"/>
<path d="M31.5 40.5H27V45H31.5V40.5Z" fill="#6EC6F5"/>
<path d="M36 40.5H31.5V45H36V40.5Z" fill="#6EC6F5"/>
<path d="M40.5 40.5H36V45H40.5V40.5Z" fill="#3A9AE0"/>
<path d="M13.5 45H9V49.5H13.5V45Z" fill="#3A9AE0"/>
<path d="M18 45H13.5V49.5H18V45Z" fill="#6EC6F5"/>
<path d="M22.5 45H18V49.5H22.5V45Z" fill="#6EC6F5"/>
<path d="M27 45H22.5V49.5H27V45Z" fill="#6EC6F5"/>
<path d="M31.5 45H27V49.5H31.5V45Z" fill="#6EC6F5"/>
<path d="M36 45H31.5V49.5H36V45Z" fill="#3A9AE0"/>
<path d="M18 49.5H13.5V54H18V49.5Z" fill="#3A9AE0"/>
<path d="M22.5 49.5H18V54H22.5V49.5Z" fill="#3A9AE0"/>
<path d="M27 49.5H22.5V54H27V49.5Z" fill="#3A9AE0"/>
<path d="M31.5 49.5H27V54H31.5V49.5Z" fill="#3A9AE0"/>
<path d="M28 39H17V43H28V39Z" fill="white" fill-opacity="0.3"/>
</g>
<defs>
<clipPath id="clip0_159_941">
<rect width="45" height="54" fill="white"/>
</clipPath>
</defs>
</svg>
