<svg width="155" height="37" viewBox="0 0 155 37" fill="none" xmlns="http://www.w3.org/2000/svg">
<path d="M153.25 13H1.25V35H153.25V13Z" fill="#FFFDE5" stroke="#6EC6F5" stroke-width="2.5"/>
<path d="M78.25 15H76.25V33H78.25V15Z" fill="black" fill-opacity="0.57"/>
<path d="M93.25 15H91.25V33H93.25V15Z" fill="black" fill-opacity="0.57"/>
<path d="M108.25 15H106.25V33H108.25V15Z" fill="black" fill-opacity="0.57"/>
<path d="M123.25 15H121.25V33H123.25V15Z" fill="black" fill-opacity="0.57"/>
<path d="M138.25 15H136.25V33H138.25V15Z" fill="black" fill-opacity="0.57"/>
<path d="M90.25 17H79.25V21H90.25V17Z" fill="white" fill-opacity="0.3"/>
<path d="M105.25 17H94.25V21H105.25V17Z" fill="white" fill-opacity="0.3"/>
<path d="M120.25 17H109.25V21H120.25V17Z" fill="white" fill-opacity="0.3"/>
<path d="M135.25 17H124.25V21H135.25V17Z" fill="white" fill-opacity="0.3"/>
<path d="M150.25 17H139.25V21H150.25V17Z" fill="white" fill-opacity="0.3"/>
<path d="M76.1071 7L76.1071 5.83333L74.8214 5.83333L74.8214 3.49999L73.5357 3.49999L73.5357 1.16666L72.25 1.16666L72.25 5.85212e-07L81.25 1.91809e-07L81.25 1.16666L79.9643 1.16666L79.9643 3.49999L78.6786 3.49999L78.6786 5.83333L77.3928 5.83333L77.3928 7L76.1071 7Z" fill="#1A120A" fill-opacity="0.56"/>
<path d="M76.25 15H3.25005V33H76.25V15Z" fill="#3A9AE0"/>
<path d="M18.25 15H16.25V33H18.25V15Z" fill="black" fill-opacity="0.57"/>
<path d="M33.25 15H31.25V33H33.25V15Z" fill="black" fill-opacity="0.57"/>
<path d="M48.25 15H46.25V33H48.25V15Z" fill="black" fill-opacity="0.57"/>
<path d="M63.25 15H61.25V33H63.25V15Z" fill="black" fill-opacity="0.57"/>
<path d="M15.25 17H4.25005V21H15.25V17Z" fill="white" fill-opacity="0.3"/>
<path d="M30.25 17H19.25V21H30.25V17Z" fill="white" fill-opacity="0.3"/>
<path d="M45.25 17H34.25V21H45.25V17Z" fill="white" fill-opacity="0.3"/>
<path d="M60.25 17H49.25V21H60.25V17Z" fill="white" fill-opacity="0.3"/>
<path d="M75.25 17H64.25V21H75.25V17Z" fill="white" fill-opacity="0.3"/>
</svg>
