<svg width="190" height="32" viewBox="0 0 190 32" fill="none" xmlns="http://www.w3.org/2000/svg">
<g clip-path="url(#clip0_369_1301)">
<path d="M12 5.00024H9.60001V7.08358H12V5.00024Z" fill="#3A9AE0"/>
<path d="M14.4 5.00024H12V7.08358H14.4V5.00024Z" fill="#3A9AE0"/>
<path d="M9.6 7.0835H7.2V9.16683H9.6V7.0835Z" fill="#3A9AE0"/>
<path d="M12 7.0835H9.60001V9.16683H12V7.0835Z" fill="#6EC6F5"/>
<path d="M14.4 7.0835H12V9.16683H14.4V7.0835Z" fill="#6EC6F5"/>
<path d="M16.8 7.0835H14.4V9.16683H16.8V7.0835Z" fill="#3A9AE0"/>
<path d="M7.2 9.16699H4.8V11.2503H7.2V9.16699Z" fill="#3A9AE0"/>
<path d="M9.6 9.16699H7.2V11.2503H9.6V9.16699Z" fill="#6EC6F5"/>
<path d="M12 9.16699H9.60001V11.2503H12V9.16699Z" fill="#6EC6F5"/>
<path d="M14.4 9.16699H12V11.2503H14.4V9.16699Z" fill="#6EC6F5"/>
<path d="M16.8 9.16699H14.4V11.2503H16.8V9.16699Z" fill="#6EC6F5"/>
<path d="M19.2 9.16699H16.8V11.2503H19.2V9.16699Z" fill="#3A9AE0"/>
<path d="M7.2 11.2502H4.8V13.3336H7.2V11.2502Z" fill="#3A9AE0"/>
<path d="M9.6 11.2502H7.2V13.3336H9.6V11.2502Z" fill="#6EC6F5"/>
<path d="M12 11.2502H9.60001V13.3336H12V11.2502Z" fill="#6EC6F5"/>
<path d="M14.4 11.2502H12V13.3336H14.4V11.2502Z" fill="#6EC6F5"/>
<path d="M16.8 11.2502H14.4V13.3336H16.8V11.2502Z" fill="#6EC6F5"/>
<path d="M19.2 11.2502H16.8V13.3336H19.2V11.2502Z" fill="#3A9AE0"/>
<path d="M4.79999 13.3335H2.39999V15.4168H4.79999V13.3335Z" fill="#3A9AE0"/>
<path d="M7.2 13.3335H4.8V15.4168H7.2V13.3335Z" fill="#6EC6F5"/>
<path d="M9.6 13.3335H7.2V15.4168H9.6V13.3335Z" fill="#6EC6F5"/>
<path d="M12 13.3335H9.60001V15.4168H12V13.3335Z" fill="#6EC6F5"/>
<path d="M14.4 13.3335H12V15.4168H14.4V13.3335Z" fill="#6EC6F5"/>
<path d="M16.8 13.3335H14.4V15.4168H16.8V13.3335Z" fill="#6EC6F5"/>
<path d="M19.2 13.3335H16.8V15.4168H19.2V13.3335Z" fill="#6EC6F5"/>
<path d="M21.6 13.3335H19.2V15.4168H21.6V13.3335Z" fill="#3A9AE0"/>
<path d="M4.79999 15.417H2.39999V17.5003H4.79999V15.417Z" fill="#3A9AE0"/>
<path d="M7.2 15.417H4.8V17.5003H7.2V15.417Z" fill="#6EC6F5"/>
<path d="M9.6 15.417H7.2V17.5003H9.6V15.417Z" fill="#6EC6F5"/>
<path d="M12 15.417H9.60001V17.5003H12V15.417Z" fill="#6EC6F5"/>
<path d="M14.4 15.417H12V17.5003H14.4V15.417Z" fill="#6EC6F5"/>
<path d="M16.8 15.417H14.4V17.5003H16.8V15.417Z" fill="#6EC6F5"/>
<path d="M19.2 15.417H16.8V17.5003H19.2V15.417Z" fill="#6EC6F5"/>
<path d="M21.6 15.417H19.2V17.5003H21.6V15.417Z" fill="#3A9AE0"/>
<path d="M2.4 17.5002H0V19.5836H2.4V17.5002Z" fill="#3A9AE0"/>
<path d="M4.79999 17.5002H2.39999V19.5836H4.79999V17.5002Z" fill="#6EC6F5"/>
<path d="M7.2 17.5002H4.8V19.5836H7.2V17.5002Z" fill="#6EC6F5"/>
<path d="M9.6 17.5002H7.2V19.5836H9.6V17.5002Z" fill="#6EC6F5"/>
<path d="M12 17.5002H9.60001V19.5836H12V17.5002Z" fill="#6EC6F5"/>
<path d="M14.4 17.5002H12V19.5836H14.4V17.5002Z" fill="#6EC6F5"/>
<path d="M16.8 17.5002H14.4V19.5836H16.8V17.5002Z" fill="#6EC6F5"/>
<path d="M19.2 17.5002H16.8V19.5836H19.2V17.5002Z" fill="#6EC6F5"/>
<path d="M21.6 17.5002H19.2V19.5836H21.6V17.5002Z" fill="#6EC6F5"/>
<path d="M24 17.5002H21.6V19.5836H24V17.5002Z" fill="#3A9AE0"/>
<path d="M2.4 19.5835H0V21.6668H2.4V19.5835Z" fill="#3A9AE0"/>
<path d="M4.79999 19.5835H2.39999V21.6668H4.79999V19.5835Z" fill="#6EC6F5"/>
<path d="M7.2 19.5835H4.8V21.6668H7.2V19.5835Z" fill="#6EC6F5"/>
<path d="M9.6 19.5835H7.2V21.6668H9.6V19.5835Z" fill="#6EC6F5"/>
<path d="M12 19.5835H9.60001V21.6668H12V19.5835Z" fill="#6EC6F5"/>
<path d="M14.4 19.5835H12V21.6668H14.4V19.5835Z" fill="#6EC6F5"/>
<path d="M16.8 19.5835H14.4V21.6668H16.8V19.5835Z" fill="#6EC6F5"/>
<path d="M19.2 19.5835H16.8V21.6668H19.2V19.5835Z" fill="#6EC6F5"/>
<path d="M21.6 19.5835H19.2V21.6668H21.6V19.5835Z" fill="#6EC6F5"/>
<path d="M24 19.5835H21.6V21.6668H24V19.5835Z" fill="#3A9AE0"/>
<path d="M2.4 21.667H0V23.7503H2.4V21.667Z" fill="#3A9AE0"/>
<path d="M4.79999 21.667H2.39999V23.7503H4.79999V21.667Z" fill="#6EC6F5"/>
<path d="M7.2 21.667H4.8V23.7503H7.2V21.667Z" fill="#6EC6F5"/>
<path d="M9.6 21.667H7.2V23.7503H9.6V21.667Z" fill="#6EC6F5"/>
<path d="M12 21.667H9.60001V23.7503H12V21.667Z" fill="#6EC6F5"/>
<path d="M14.4 21.667H12V23.7503H14.4V21.667Z" fill="#6EC6F5"/>
<path d="M16.8 21.667H14.4V23.7503H16.8V21.667Z" fill="#6EC6F5"/>
<path d="M19.2 21.667H16.8V23.7503H19.2V21.667Z" fill="#6EC6F5"/>
<path d="M21.6 21.667H19.2V23.7503H21.6V21.667Z" fill="#6EC6F5"/>
<path d="M24 21.667H21.6V23.7503H24V21.667Z" fill="#3A9AE0"/>
<path d="M4.79999 23.7502H2.39999V25.8336H4.79999V23.7502Z" fill="#3A9AE0"/>
<path d="M7.2 23.7502H4.8V25.8336H7.2V23.7502Z" fill="#6EC6F5"/>
<path d="M9.6 23.7502H7.2V25.8336H9.6V23.7502Z" fill="#6EC6F5"/>
<path d="M12 23.7502H9.60001V25.8336H12V23.7502Z" fill="#6EC6F5"/>
<path d="M14.4 23.7502H12V25.8336H14.4V23.7502Z" fill="#6EC6F5"/>
<path d="M16.8 23.7502H14.4V25.8336H16.8V23.7502Z" fill="#6EC6F5"/>
<path d="M19.2 23.7502H16.8V25.8336H19.2V23.7502Z" fill="#6EC6F5"/>
<path d="M21.6 23.7502H19.2V25.8336H21.6V23.7502Z" fill="#3A9AE0"/>
<path d="M7.2 25.8335H4.8V27.9168H7.2V25.8335Z" fill="#3A9AE0"/>
<path d="M9.6 25.8335H7.2V27.9168H9.6V25.8335Z" fill="#6EC6F5"/>
<path d="M12 25.8335H9.60001V27.9168H12V25.8335Z" fill="#6EC6F5"/>
<path d="M14.4 25.8335H12V27.9168H14.4V25.8335Z" fill="#6EC6F5"/>
<path d="M16.8 25.8335H14.4V27.9168H16.8V25.8335Z" fill="#6EC6F5"/>
<path d="M19.2 25.8335H16.8V27.9168H19.2V25.8335Z" fill="#3A9AE0"/>
<path d="M9.6 27.917H7.2V30.0003H9.6V27.917Z" fill="#3A9AE0"/>
<path d="M12 27.917H9.60001V30.0003H12V27.917Z" fill="#3A9AE0"/>
<path d="M14.4 27.917H12V30.0003H14.4V27.917Z" fill="#3A9AE0"/>
<path d="M16.8 27.917H14.4V30.0003H16.8V27.917Z" fill="#3A9AE0"/>
<path d="M14.9333 23.0559H9.06667V24.9078H14.9333V23.0559Z" fill="white" fill-opacity="0.3"/>
</g>
<path d="M187.914 11.2275H49.5455V30.2275H187.914V11.2275Z" fill="#FFFDE5" stroke="#6EC6F5" stroke-width="2.5"/>
<path d="M49.5112 6.04541L49.5112 5.03783L48.3408 5.03783L48.3408 3.02268L47.1704 3.02268L47.1704 1.00754L46 1.00754L46 -3.19047e-05L54.1929 -3.22445e-05L54.1929 1.00754L53.0225 1.00754L53.0225 3.02268L51.852 3.02268L51.852 5.03783L50.6816 5.03783L50.6816 6.04541L49.5112 6.04541Z" fill="#1A120A" fill-opacity="0.56"/>
<path d="M144.219 14.6821H134.205V18.1367H144.219V14.6821Z" fill="white" fill-opacity="0.3"/>
<path d="M157.873 14.6821H147.86V18.1367H157.873V14.6821Z" fill="white" fill-opacity="0.3"/>
<path d="M171.528 14.6821H161.515V18.1367H171.528V14.6821Z" fill="white" fill-opacity="0.3"/>
<path d="M185.183 14.6821H175.169V18.1367H185.183V14.6821Z" fill="white" fill-opacity="0.3"/>
<path d="M130.564 14.6821H120.55V18.1367H130.564V14.6821Z" fill="white" fill-opacity="0.3"/>
<path d="M119.64 12.9548H117.819V28.5003H119.64V12.9548Z" fill="black" fill-opacity="0.57"/>
<path d="M133.295 12.9548H131.474V28.5003H133.295V12.9548Z" fill="black" fill-opacity="0.57"/>
<path d="M146.95 12.9548H145.129V28.5003H146.95V12.9548Z" fill="black" fill-opacity="0.57"/>
<path d="M160.604 12.9548H158.784V28.5003H160.604V12.9548Z" fill="black" fill-opacity="0.57"/>
<path d="M174.259 12.9548H172.438V28.5003H174.259V12.9548Z" fill="black" fill-opacity="0.57"/>
<path d="M65.021 12.9548H63.2003V28.5003H65.021V12.9548Z" fill="black" fill-opacity="0.57"/>
<path d="M78.6756 12.9548H76.855V28.5003H78.6756V12.9548Z" fill="black" fill-opacity="0.57"/>
<path d="M92.3304 12.9548H90.5097V28.5003H92.3304V12.9548Z" fill="black" fill-opacity="0.57"/>
<path d="M105.985 12.9548H104.165V28.5003H105.985V12.9548Z" fill="black" fill-opacity="0.57"/>
<path d="M62.29 14.6821H52.2765V18.1367H62.29V14.6821Z" fill="white" fill-opacity="0.3"/>
<path d="M75.9447 14.6821H65.9312V18.1367H75.9447V14.6821Z" fill="white" fill-opacity="0.3"/>
<path d="M89.5994 14.6821H79.5859V18.1367H89.5994V14.6821Z" fill="white" fill-opacity="0.3"/>
<path d="M103.254 14.6821H93.2408V18.1367H103.254V14.6821Z" fill="white" fill-opacity="0.3"/>
<path d="M116.909 14.6821H106.895V18.1367H116.909V14.6821Z" fill="white" fill-opacity="0.3"/>
<defs>
<clipPath id="clip0_369_1301">
<rect width="24" height="25" fill="white" transform="translate(0 5.00024)"/>
</clipPath>
</defs>
</svg>
