<?xml version="1.0" encoding="UTF-8" ?>
<svg version="1.1" width="64" height="64" xmlns="http://www.w3.org/2000/svg" shape-rendering="crispEdges">
<rect x="15" y="16" width="5" height="1" fill="#003A32" />
<rect x="14" y="17" width="1" height="1" fill="#003A32" />
<rect x="15" y="17" width="4" height="1" fill="#2BA137" />
<rect x="19" y="17" width="1" height="1" fill="#217747" />
<rect x="20" y="17" width="5" height="1" fill="#003A32" />
<rect x="13" y="18" width="1" height="1" fill="#003A32" />
<rect x="14" y="18" width="4" height="1" fill="#B1F542" />
<rect x="18" y="18" width="1" height="1" fill="#217747" />
<rect x="19" y="18" width="1" height="1" fill="#003A32" />
<rect x="20" y="18" width="1" height="1" fill="#2BA137" />
<rect x="21" y="18" width="4" height="1" fill="#217747" />
<rect x="25" y="18" width="1" height="3" fill="#003A32" />
<rect x="12" y="19" width="1" height="2" fill="#003A32" />
<rect x="13" y="19" width="3" height="1" fill="#B1F542" />
<rect x="16" y="19" width="1" height="1" fill="#2BA137" />
<rect x="17" y="19" width="1" height="2" fill="#217747" />
<rect x="18" y="19" width="1" height="7" fill="#B1F542" />
<rect x="19" y="19" width="1" height="3" fill="#2BA137" />
<rect x="20" y="19" width="2" height="1" fill="#B1F542" />
<rect x="22" y="19" width="1" height="1" fill="#2BA137" />
<rect x="23" y="19" width="2" height="2" fill="#217747" />
<rect x="36" y="19" width="4" height="1" fill="#003A32" />
<rect x="13" y="20" width="2" height="1" fill="#B1F542" />
<rect x="15" y="20" width="2" height="1" fill="#217747" />
<rect x="20" y="20" width="1" height="3" fill="#2BA137" />
<rect x="21" y="20" width="2" height="1" fill="#B1F542" />
<rect x="32" y="20" width="4" height="1" fill="#003A32" />
<rect x="36" y="20" width="4" height="1" fill="#2BA137" />
<rect x="40" y="20" width="1" height="1" fill="#003A32" />
<rect x="11" y="21" width="1" height="1" fill="#003A32" />
<rect x="12" y="21" width="2" height="1" fill="#2BA137" />
<rect x="14" y="21" width="1" height="2" fill="#B1F542" />
<rect x="15" y="21" width="1" height="1" fill="#217747" />
<rect x="16" y="21" width="2" height="2" fill="#B1F542" />
<rect x="21" y="21" width="1" height="2" fill="#B1F542" />
<rect x="22" y="21" width="2" height="1" fill="#217747" />
<rect x="24" y="21" width="1" height="2" fill="#003A32" />
<rect x="31" y="21" width="1" height="4" fill="#003A32" />
<rect x="32" y="21" width="6" height="1" fill="#217747" />
<rect x="38" y="21" width="3" height="1" fill="#B1F542" />
<rect x="41" y="21" width="1" height="5" fill="#003A32" />
<rect x="11" y="22" width="2" height="1" fill="#2BA137" />
<rect x="13" y="22" width="1" height="1" fill="#B1F542" />
<rect x="15" y="22" width="1" height="2" fill="#2BA137" />
<rect x="19" y="22" width="1" height="3" fill="#B1F542" />
<rect x="22" y="22" width="1" height="2" fill="#217747" />
<rect x="23" y="22" width="1" height="1" fill="#003A32" />
<rect x="32" y="22" width="1" height="4" fill="#217747" />
<rect x="33" y="22" width="1" height="2" fill="#2BA137" />
<rect x="34" y="22" width="1" height="1" fill="#217747" />
<rect x="35" y="22" width="2" height="2" fill="#B1F542" />
<rect x="37" y="22" width="2" height="1" fill="#217747" />
<rect x="39" y="22" width="2" height="1" fill="#B1F542" />
<rect x="44" y="22" width="2" height="1" fill="#217747" />
<rect x="11" y="23" width="1" height="2" fill="#003A32" />
<rect x="12" y="23" width="1" height="1" fill="#B1F542" />
<rect x="13" y="23" width="2" height="1" fill="#2BA137" />
<rect x="16" y="23" width="1" height="4" fill="#2BA137" />
<rect x="17" y="23" width="1" height="3" fill="#B1F542" />
<rect x="20" y="23" width="2" height="1" fill="#217747" />
<rect x="25" y="23" width="1" height="2" fill="#003A32" />
<rect x="34" y="23" width="1" height="2" fill="#B1F542" />
<rect x="37" y="23" width="1" height="1" fill="#2BA137" />
<rect x="38" y="23" width="1" height="2" fill="#217747" />
<rect x="39" y="23" width="1" height="1" fill="#2BA137" />
<rect x="40" y="23" width="1" height="1" fill="#B1F542" />
<rect x="44" y="23" width="1" height="1" fill="#217747" />
<rect x="46" y="23" width="2" height="1" fill="#217747" />
<rect x="12" y="24" width="2" height="1" fill="#2BA137" />
<rect x="14" y="24" width="2" height="3" fill="#B1F542" />
<rect x="20" y="24" width="2" height="1" fill="#003A32" />
<rect x="33" y="24" width="1" height="2" fill="#B1F542" />
<rect x="35" y="24" width="1" height="1" fill="#B1F542" />
<rect x="36" y="24" width="1" height="2" fill="#2BA137" />
<rect x="37" y="24" width="1" height="1" fill="#217747" />
<rect x="39" y="24" width="1" height="2" fill="#B1F542" />
<rect x="40" y="24" width="1" height="1" fill="#2BA137" />
<rect x="47" y="24" width="1" height="2" fill="#217747" />
<rect x="12" y="25" width="1" height="5" fill="#003A32" />
<rect x="13" y="25" width="1" height="1" fill="#2BA137" />
<rect x="19" y="25" width="1" height="1" fill="#003A32" />
<rect x="26" y="25" width="1" height="1" fill="#003A32" />
<rect x="34" y="25" width="1" height="3" fill="#217747" />
<rect x="35" y="25" width="1" height="2" fill="#2BA137" />
<rect x="37" y="25" width="1" height="3" fill="#B1F542" />
<rect x="38" y="25" width="1" height="1" fill="#2BA137" />
<rect x="40" y="25" width="1" height="1" fill="#B1F542" />
<rect x="46" y="25" width="1" height="1" fill="#217747" />
<rect x="13" y="26" width="1" height="1" fill="#B1F542" />
<rect x="17" y="26" width="2" height="1" fill="#003A32" />
<rect x="26" y="26" width="1" height="1" fill="#217747" />
<rect x="33" y="26" width="1" height="8" fill="#003A32" />
<rect x="36" y="26" width="1" height="2" fill="#B1F542" />
<rect x="38" y="26" width="1" height="2" fill="#B1F542" />
<rect x="39" y="26" width="1" height="2" fill="#2BA137" />
<rect x="40" y="26" width="1" height="4" fill="#003A32" />
<rect x="45" y="26" width="1" height="1" fill="#217747" />
<rect x="13" y="27" width="2" height="1" fill="#2BA137" />
<rect x="15" y="27" width="2" height="1" fill="#003A32" />
<rect x="27" y="27" width="1" height="2" fill="#217747" />
<rect x="30" y="27" width="3" height="1" fill="#003A32" />
<rect x="35" y="27" width="1" height="2" fill="#217747" />
<rect x="43" y="27" width="2" height="1" fill="#217747" />
<rect x="13" y="28" width="2" height="1" fill="#003A32" />
<rect x="18" y="28" width="1" height="1" fill="#217747" />
<rect x="19" y="28" width="2" height="1" fill="#003A32" />
<rect x="29" y="28" width="3" height="1" fill="#003A32" />
<rect x="32" y="28" width="1" height="3" fill="#B1F542" />
<rect x="34" y="28" width="1" height="1" fill="#003A32" />
<rect x="36" y="28" width="1" height="2" fill="#217747" />
<rect x="37" y="28" width="2" height="1" fill="#2BA137" />
<rect x="39" y="28" width="1" height="1" fill="#B1F542" />
<rect x="42" y="28" width="2" height="1" fill="#217747" />
<rect x="47" y="28" width="2" height="1" fill="#003A32" />
<rect x="17" y="29" width="1" height="1" fill="#217747" />
<rect x="21" y="29" width="3" height="1" fill="#003A32" />
<rect x="25" y="29" width="1" height="2" fill="#217747" />
<rect x="26" y="29" width="4" height="1" fill="#003A32" />
<rect x="30" y="29" width="1" height="1" fill="#217747" />
<rect x="31" y="29" width="1" height="1" fill="#003A32" />
<rect x="35" y="29" width="1" height="2" fill="#003A32" />
<rect x="37" y="29" width="2" height="1" fill="#B1F542" />
<rect x="39" y="29" width="1" height="1" fill="#2BA137" />
<rect x="41" y="29" width="2" height="1" fill="#217747" />
<rect x="45" y="29" width="2" height="1" fill="#003A32" />
<rect x="47" y="29" width="1" height="1" fill="#2BA137" />
<rect x="48" y="29" width="1" height="2" fill="#B1F542" />
<rect x="49" y="29" width="1" height="1" fill="#003A32" />
<rect x="16" y="30" width="1" height="4" fill="#217747" />
<rect x="20" y="30" width="1" height="1" fill="#003A32" />
<rect x="21" y="30" width="3" height="1" fill="#217747" />
<rect x="24" y="30" width="1" height="4" fill="#003A32" />
<rect x="26" y="30" width="3" height="1" fill="#217747" />
<rect x="29" y="30" width="2" height="1" fill="#003A32" />
<rect x="31" y="30" width="1" height="2" fill="#2BA137" />
<rect x="36" y="30" width="2" height="1" fill="#2BA137" />
<rect x="38" y="30" width="1" height="1" fill="#B1F542" />
<rect x="39" y="30" width="1" height="1" fill="#003A32" />
<rect x="41" y="30" width="1" height="1" fill="#217747" />
<rect x="45" y="30" width="1" height="1" fill="#003A32" />
<rect x="46" y="30" width="1" height="4" fill="#217747" />
<rect x="47" y="30" width="1" height="3" fill="#B1F542" />
<rect x="49" y="30" width="1" height="1" fill="#2BA137" />
<rect x="50" y="30" width="1" height="3" fill="#003A32" />
<rect x="19" y="31" width="1" height="2" fill="#003A32" />
<rect x="20" y="31" width="2" height="1" fill="#217747" />
<rect x="22" y="31" width="2" height="2" fill="#B1F542" />
<rect x="25" y="31" width="2" height="2" fill="#B1F542" />
<rect x="27" y="31" width="1" height="1" fill="#217747" />
<rect x="28" y="31" width="1" height="1" fill="#2BA137" />
<rect x="29" y="31" width="1" height="3" fill="#003A32" />
<rect x="30" y="31" width="1" height="1" fill="#B1F542" />
<rect x="32" y="31" width="1" height="1" fill="#2BA137" />
<rect x="35" y="31" width="3" height="1" fill="#217747" />
<rect x="38" y="31" width="1" height="1" fill="#003A32" />
<rect x="41" y="31" width="1" height="1" fill="#003A32" />
<rect x="43" y="31" width="3" height="1" fill="#217747" />
<rect x="48" y="31" width="1" height="2" fill="#2BA137" />
<rect x="49" y="31" width="1" height="1" fill="#B1F542" />
<rect x="20" y="32" width="1" height="1" fill="#217747" />
<rect x="21" y="32" width="1" height="2" fill="#B1F542" />
<rect x="27" y="32" width="1" height="1" fill="#B1F542" />
<rect x="28" y="32" width="1" height="4" fill="#003A32" />
<rect x="30" y="32" width="1" height="2" fill="#2BA137" />
<rect x="31" y="32" width="2" height="1" fill="#B1F542" />
<rect x="35" y="32" width="1" height="3" fill="#217747" />
<rect x="37" y="32" width="1" height="1" fill="#003A32" />
<rect x="40" y="32" width="1" height="1" fill="#003A32" />
<rect x="41" y="32" width="1" height="4" fill="#217747" />
<rect x="42" y="32" width="1" height="1" fill="#003A32" />
<rect x="43" y="32" width="1" height="1" fill="#217747" />
<rect x="45" y="32" width="1" height="1" fill="#003A32" />
<rect x="49" y="32" width="1" height="1" fill="#2BA137" />
<rect x="13" y="33" width="1" height="1" fill="#003A32" />
<rect x="20" y="33" width="1" height="2" fill="#003A32" />
<rect x="22" y="33" width="2" height="2" fill="#2BA137" />
<rect x="25" y="33" width="3" height="1" fill="#2BA137" />
<rect x="31" y="33" width="1" height="1" fill="#B1F542" />
<rect x="32" y="33" width="1" height="1" fill="#2BA137" />
<rect x="38" y="33" width="2" height="1" fill="#003A32" />
<rect x="40" y="33" width="1" height="1" fill="#217747" />
<rect x="42" y="33" width="1" height="4" fill="#B1F542" />
<rect x="43" y="33" width="1" height="4" fill="#003A32" />
<rect x="47" y="33" width="1" height="1" fill="#217747" />
<rect x="48" y="33" width="3" height="1" fill="#B1F542" />
<rect x="51" y="33" width="1" height="7" fill="#003A32" />
<rect x="12" y="34" width="1" height="2" fill="#003A32" />
<rect x="13" y="34" width="1" height="1" fill="#B1F542" />
<rect x="14" y="34" width="1" height="1" fill="#003A32" />
<rect x="15" y="34" width="1" height="1" fill="#217747" />
<rect x="16" y="34" width="2" height="1" fill="#003A32" />
<rect x="21" y="34" width="1" height="1" fill="#217747" />
<rect x="24" y="34" width="2" height="1" fill="#B1F542" />
<rect x="26" y="34" width="2" height="1" fill="#2BA137" />
<rect x="30" y="34" width="1" height="1" fill="#003A32" />
<rect x="31" y="34" width="1" height="1" fill="#2BA137" />
<rect x="32" y="34" width="1" height="2" fill="#003A32" />
<rect x="37" y="34" width="1" height="2" fill="#003A32" />
<rect x="38" y="34" width="1" height="2" fill="#217747" />
<rect x="39" y="34" width="1" height="1" fill="#2BA137" />
<rect x="40" y="34" width="1" height="3" fill="#B1F542" />
<rect x="47" y="34" width="1" height="1" fill="#003A32" />
<rect x="48" y="34" width="1" height="1" fill="#217747" />
<rect x="49" y="34" width="2" height="1" fill="#B1F542" />
<rect x="13" y="35" width="2" height="1" fill="#2BA137" />
<rect x="15" y="35" width="1" height="1" fill="#003A32" />
<rect x="16" y="35" width="1" height="1" fill="#2BA137" />
<rect x="17" y="35" width="1" height="2" fill="#217747" />
<rect x="18" y="35" width="1" height="2" fill="#003A32" />
<rect x="21" y="35" width="1" height="1" fill="#003A32" />
<rect x="22" y="35" width="1" height="1" fill="#217747" />
<rect x="23" y="35" width="2" height="1" fill="#B1F542" />
<rect x="25" y="35" width="1" height="3" fill="#2BA137" />
<rect x="26" y="35" width="1" height="1" fill="#B1F542" />
<rect x="27" y="35" width="1" height="2" fill="#003A32" />
<rect x="31" y="35" width="1" height="1" fill="#003A32" />
<rect x="34" y="35" width="1" height="5" fill="#217747" />
<rect x="39" y="35" width="1" height="1" fill="#B1F542" />
<rect x="48" y="35" width="1" height="1" fill="#003A32" />
<rect x="49" y="35" width="1" height="1" fill="#217747" />
<rect x="50" y="35" width="1" height="2" fill="#2BA137" />
<rect x="13" y="36" width="1" height="4" fill="#003A32" />
<rect x="14" y="36" width="1" height="1" fill="#B1F542" />
<rect x="15" y="36" width="1" height="3" fill="#217747" />
<rect x="16" y="36" width="1" height="1" fill="#B1F542" />
<rect x="22" y="36" width="1" height="1" fill="#003A32" />
<rect x="23" y="36" width="1" height="1" fill="#B1F542" />
<rect x="24" y="36" width="1" height="2" fill="#2BA137" />
<rect x="26" y="36" width="1" height="1" fill="#2BA137" />
<rect x="28" y="36" width="1" height="1" fill="#1C3848" />
<rect x="29" y="36" width="1" height="2" fill="#003A32" />
<rect x="30" y="36" width="2" height="1" fill="#1C3848" />
<rect x="32" y="36" width="1" height="1" fill="#1F7044" />
<rect x="33" y="36" width="1" height="1" fill="#1C3848" />
<rect x="35" y="36" width="3" height="1" fill="#1C3848" />
<rect x="38" y="36" width="1" height="1" fill="#003A32" />
<rect x="39" y="36" width="1" height="1" fill="#217747" />
<rect x="41" y="36" width="1" height="2" fill="#2BA137" />
<rect x="49" y="36" width="1" height="1" fill="#003A32" />
<rect x="14" y="37" width="1" height="1" fill="#2BA137" />
<rect x="16" y="37" width="1" height="1" fill="#217747" />
<rect x="17" y="37" width="1" height="1" fill="#003A32" />
<rect x="20" y="37" width="2" height="1" fill="#1C3848" />
<rect x="22" y="37" width="1" height="1" fill="#3A9AE0" />
<rect x="23" y="37" width="1" height="1" fill="#003A32" />
<rect x="26" y="37" width="1" height="1" fill="#003A32" />
<rect x="27" y="37" width="2" height="1" fill="#3A9AE0" />
<rect x="30" y="37" width="2" height="1" fill="#3A9AE0" />
<rect x="32" y="37" width="1" height="3" fill="#217747" />
<rect x="33" y="37" width="1" height="1" fill="#3A9AE0" />
<rect x="35" y="37" width="2" height="1" fill="#3A9AE0" />
<rect x="37" y="37" width="1" height="1" fill="#217747" />
<rect x="38" y="37" width="1" height="1" fill="#3A9AE0" />
<rect x="39" y="37" width="1" height="1" fill="#003A32" />
<rect x="40" y="37" width="1" height="1" fill="#217747" />
<rect x="42" y="37" width="1" height="3" fill="#003A32" />
<rect x="43" y="37" width="2" height="1" fill="#1C3848" />
<rect x="49" y="37" width="1" height="4" fill="#217747" />
<rect x="50" y="37" width="1" height="1" fill="#003A32" />
<rect x="14" y="38" width="1" height="2" fill="#B1F542" />
<rect x="16" y="38" width="1" height="1" fill="#003A32" />
<rect x="18" y="38" width="2" height="1" fill="#1C3848" />
<rect x="20" y="38" width="2" height="1" fill="#3A9AE0" />
<rect x="22" y="38" width="2" height="1" fill="#1C3848" />
<rect x="24" y="38" width="1" height="1" fill="#217747" />
<rect x="25" y="38" width="1" height="1" fill="#003A32" />
<rect x="26" y="38" width="3" height="1" fill="#2F5E79" />
<rect x="29" y="38" width="1" height="2" fill="#217747" />
<rect x="30" y="38" width="2" height="1" fill="#2F5E79" />
<rect x="33" y="38" width="1" height="1" fill="#2F5E79" />
<rect x="35" y="38" width="1" height="1" fill="#2F5E79" />
<rect x="36" y="38" width="1" height="1" fill="#217747" />
<rect x="37" y="38" width="3" height="1" fill="#2F5E79" />
<rect x="40" y="38" width="1" height="1" fill="#003A32" />
<rect x="41" y="38" width="1" height="1" fill="#B1F542" />
<rect x="43" y="38" width="1" height="1" fill="#217747" />
<rect x="44" y="38" width="3" height="1" fill="#1C3848" />
<rect x="15" y="39" width="1" height="1" fill="#003A32" />
<rect x="17" y="39" width="1" height="4" fill="#1C3848" />
<rect x="18" y="39" width="1" height="4" fill="#2F7EB7" />
<rect x="19" y="39" width="1" height="1" fill="#6EC6F5" />
<rect x="20" y="39" width="1" height="1" fill="#2F7EB7" />
<rect x="21" y="39" width="2" height="1" fill="#1C3848" />
<rect x="23" y="39" width="1" height="1" fill="#051922" />
<rect x="24" y="39" width="1" height="1" fill="#003A32" />
<rect x="25" y="39" width="1" height="1" fill="#217747" />
<rect x="26" y="39" width="3" height="1" fill="#051922" />
<rect x="30" y="39" width="2" height="1" fill="#051922" />
<rect x="33" y="39" width="1" height="2" fill="#051922" />
<rect x="35" y="39" width="1" height="1" fill="#217747" />
<rect x="36" y="39" width="3" height="1" fill="#051922" />
<rect x="39" y="39" width="1" height="1" fill="#071923" />
<rect x="40" y="39" width="1" height="1" fill="#195936" />
<rect x="41" y="39" width="1" height="1" fill="#003A32" />
<rect x="43" y="39" width="2" height="1" fill="#2F7EB7" />
<rect x="45" y="39" width="1" height="1" fill="#3A9AE0" />
<rect x="46" y="39" width="1" height="4" fill="#2F7EB7" />
<rect x="47" y="39" width="1" height="4" fill="#1C3848" />
<rect x="14" y="40" width="1" height="1" fill="#003A32" />
<rect x="15" y="40" width="1" height="1" fill="#217747" />
<rect x="19" y="40" width="1" height="8" fill="#2F7EB7" />
<rect x="20" y="40" width="1" height="3" fill="#3A9AE0" />
<rect x="21" y="40" width="2" height="1" fill="#6EC6F5" />
<rect x="23" y="40" width="3" height="1" fill="#2F7EB7" />
<rect x="26" y="40" width="2" height="1" fill="#195936" />
<rect x="28" y="40" width="2" height="1" fill="#051922" />
<rect x="30" y="40" width="1" height="1" fill="#195936" />
<rect x="31" y="40" width="1" height="1" fill="#051922" />
<rect x="32" y="40" width="1" height="1" fill="#195936" />
<rect x="34" y="40" width="2" height="1" fill="#195936" />
<rect x="36" y="40" width="3" height="1" fill="#1C3848" />
<rect x="39" y="40" width="2" height="1" fill="#2F7EB7" />
<rect x="41" y="40" width="3" height="1" fill="#6EC6F5" />
<rect x="44" y="40" width="1" height="3" fill="#3A9AE0" />
<rect x="45" y="40" width="1" height="8" fill="#2F7EB7" />
<rect x="14" y="41" width="1" height="1" fill="#217747" />
<rect x="21" y="41" width="5" height="2" fill="#3A9AE0" />
<rect x="26" y="41" width="12" height="1" fill="#6EC6F5" />
<rect x="38" y="41" width="6" height="2" fill="#3A9AE0" />
<rect x="50" y="41" width="2" height="1" fill="#217747" />
<rect x="54" y="41" width="1" height="1" fill="#217747" />
<rect x="13" y="42" width="1" height="1" fill="#217747" />
<rect x="26" y="42" width="12" height="1" fill="#3A9AE0" />
<rect x="52" y="42" width="2" height="1" fill="#217747" />
<rect x="9" y="43" width="4" height="1" fill="#217747" />
<rect x="18" y="43" width="1" height="5" fill="#1C3848" />
<rect x="20" y="43" width="1" height="7" fill="#2F7EB7" />
<rect x="21" y="43" width="3" height="1" fill="#3A9AE0" />
<rect x="24" y="43" width="3" height="1" fill="#40163B" />
<rect x="27" y="43" width="10" height="1" fill="#3A9AE0" />
<rect x="37" y="43" width="3" height="1" fill="#40163B" />
<rect x="40" y="43" width="4" height="1" fill="#3A9AE0" />
<rect x="44" y="43" width="1" height="7" fill="#2F7EB7" />
<rect x="46" y="43" width="1" height="5" fill="#1C3848" />
<rect x="8" y="44" width="1" height="1" fill="#217747" />
<rect x="21" y="44" width="2" height="3" fill="#3A9AE0" />
<rect x="23" y="44" width="1" height="3" fill="#40163B" />
<rect x="24" y="44" width="1" height="1" fill="#10112A" />
<rect x="25" y="44" width="2" height="1" fill="#FEFEFE" />
<rect x="27" y="44" width="1" height="3" fill="#40163B" />
<rect x="28" y="44" width="8" height="2" fill="#3A9AE0" />
<rect x="36" y="44" width="1" height="3" fill="#40163B" />
<rect x="37" y="44" width="1" height="4" fill="#0B1126" />
<rect x="38" y="44" width="2" height="1" fill="#FEFEFE" />
<rect x="40" y="44" width="1" height="1" fill="#461A3F" />
<rect x="41" y="44" width="3" height="3" fill="#3A9AE0" />
<rect x="24" y="45" width="1" height="1" fill="#100E27" />
<rect x="25" y="45" width="1" height="1" fill="#0B1128" />
<rect x="26" y="45" width="1" height="1" fill="#0B1027" />
<rect x="38" y="45" width="1" height="1" fill="#0A1128" />
<rect x="39" y="45" width="1" height="1" fill="#0B1126" />
<rect x="40" y="45" width="1" height="1" fill="#45193E" />
<rect x="24" y="46" width="1" height="1" fill="#151029" />
<rect x="25" y="46" width="2" height="1" fill="#0A0F27" />
<rect x="28" y="46" width="6" height="1" fill="#3A9AE0" />
<rect x="34" y="46" width="1" height="2" fill="#40163B" />
<rect x="35" y="46" width="1" height="7" fill="#3A9AE0" />
<rect x="38" y="46" width="1" height="1" fill="#080E26" />
<rect x="39" y="46" width="1" height="1" fill="#0A1027" />
<rect x="40" y="46" width="1" height="1" fill="#44173C" />
<rect x="21" y="47" width="1" height="1" fill="#3A9AE0" />
<rect x="22" y="47" width="1" height="1" fill="#FB5B6B" />
<rect x="23" y="47" width="1" height="1" fill="#F35B6D" />
<rect x="24" y="47" width="1" height="1" fill="#FB5768" />
<rect x="25" y="47" width="1" height="1" fill="#0A102B" />
<rect x="26" y="47" width="1" height="1" fill="#0C0E27" />
<rect x="27" y="47" width="2" height="6" fill="#3A9AE0" />
<rect x="29" y="47" width="5" height="1" fill="#40163B" />
<rect x="36" y="47" width="1" height="6" fill="#3A9AE0" />
<rect x="38" y="47" width="1" height="1" fill="#0C0F27" />
<rect x="39" y="47" width="1" height="1" fill="#D64D67" />
<rect x="40" y="47" width="1" height="1" fill="#FC5E6F" />
<rect x="41" y="47" width="1" height="1" fill="#FB6171" />
<rect x="42" y="47" width="1" height="1" fill="#F75C6E" />
<rect x="43" y="47" width="1" height="1" fill="#3A9AE0" />
<rect x="19" y="48" width="1" height="2" fill="#1C3848" />
<rect x="21" y="48" width="1" height="3" fill="#2F7EB7" />
<rect x="22" y="48" width="1" height="1" fill="#FC5A68" />
<rect x="23" y="48" width="1" height="1" fill="#FC5A6B" />
<rect x="24" y="48" width="1" height="1" fill="#FC5B6B" />
<rect x="25" y="48" width="2" height="4" fill="#3A9AE0" />
<rect x="29" y="48" width="1" height="5" fill="#3A9AE0" />
<rect x="30" y="48" width="1" height="1" fill="#40163B" />
<rect x="31" y="48" width="2" height="1" fill="#FC5B6B" />
<rect x="33" y="48" width="1" height="1" fill="#40163B" />
<rect x="34" y="48" width="1" height="5" fill="#3A9AE0" />
<rect x="37" y="48" width="2" height="4" fill="#3A9AE0" />
<rect x="39" y="48" width="1" height="1" fill="#F65768" />
<rect x="40" y="48" width="1" height="1" fill="#FD5C6D" />
<rect x="41" y="48" width="1" height="1" fill="#FD5E6E" />
<rect x="42" y="48" width="1" height="1" fill="#FC596C" />
<rect x="43" y="48" width="1" height="3" fill="#2F7EB7" />
<rect x="45" y="48" width="1" height="2" fill="#1C3848" />
<rect x="22" y="49" width="1" height="1" fill="#3A9AE0" />
<rect x="23" y="49" width="2" height="1" fill="#FC5B6A" />
<rect x="30" y="49" width="1" height="4" fill="#3A9AE0" />
<rect x="31" y="49" width="2" height="1" fill="#40163B" />
<rect x="33" y="49" width="1" height="4" fill="#3A9AE0" />
<rect x="39" y="49" width="1" height="1" fill="#F45968" />
<rect x="40" y="49" width="1" height="1" fill="#FC5B6B" />
<rect x="41" y="49" width="1" height="1" fill="#FB5F6E" />
<rect x="42" y="49" width="1" height="1" fill="#3A9AE0" />
<rect x="20" y="50" width="1" height="1" fill="#1C3848" />
<rect x="22" y="50" width="1" height="2" fill="#2F7EB7" />
<rect x="23" y="50" width="2" height="1" fill="#3A9AE0" />
<rect x="31" y="50" width="2" height="3" fill="#3A9AE0" />
<rect x="39" y="50" width="3" height="1" fill="#3A9AE0" />
<rect x="42" y="50" width="1" height="2" fill="#2F7EB7" />
<rect x="44" y="50" width="1" height="1" fill="#1C3848" />
<rect x="21" y="51" width="1" height="1" fill="#1C3848" />
<rect x="23" y="51" width="1" height="2" fill="#2F7EB7" />
<rect x="24" y="51" width="1" height="1" fill="#3A9AE0" />
<rect x="39" y="51" width="1" height="1" fill="#3A9AE0" />
<rect x="40" y="51" width="2" height="2" fill="#2F7EB7" />
<rect x="43" y="51" width="1" height="1" fill="#1C3848" />
<rect x="22" y="52" width="1" height="1" fill="#1C3848" />
<rect x="24" y="52" width="3" height="1" fill="#2F7EB7" />
<rect x="37" y="52" width="1" height="1" fill="#3A9AE0" />
<rect x="38" y="52" width="2" height="1" fill="#2F7EB7" />
<rect x="42" y="52" width="1" height="1" fill="#1C3848" />
<rect x="23" y="53" width="3" height="1" fill="#1C3848" />
<rect x="26" y="53" width="12" height="1" fill="#2F7EB7" />
<rect x="38" y="53" width="4" height="1" fill="#1C3848" />
<rect x="26" y="54" width="13" height="1" fill="#1C3848" />
</svg>