<?xml version="1.0" encoding="UTF-8" ?>
<svg version="1.1" width="64" height="64" xmlns="http://www.w3.org/2000/svg" shape-rendering="crispEdges">
<rect x="15" y="16" width="5" height="1" fill="#003A32" />
<rect x="14" y="17" width="1" height="1" fill="#003A32" />
<rect x="15" y="17" width="4" height="1" fill="#2BA137" />
<rect x="19" y="17" width="1" height="1" fill="#217747" />
<rect x="20" y="17" width="5" height="1" fill="#003A32" />
<rect x="13" y="18" width="1" height="1" fill="#003A32" />
<rect x="14" y="18" width="4" height="1" fill="#B1F542" />
<rect x="18" y="18" width="1" height="1" fill="#217747" />
<rect x="19" y="18" width="1" height="1" fill="#003A32" />
<rect x="20" y="18" width="1" height="1" fill="#2BA137" />
<rect x="21" y="18" width="4" height="1" fill="#217747" />
<rect x="25" y="18" width="1" height="3" fill="#003A32" />
<rect x="12" y="19" width="1" height="2" fill="#003A32" />
<rect x="13" y="19" width="3" height="1" fill="#B1F542" />
<rect x="16" y="19" width="1" height="1" fill="#2BA137" />
<rect x="17" y="19" width="1" height="2" fill="#217747" />
<rect x="18" y="19" width="1" height="7" fill="#B1F542" />
<rect x="19" y="19" width="1" height="3" fill="#2BA137" />
<rect x="20" y="19" width="2" height="1" fill="#B1F542" />
<rect x="22" y="19" width="1" height="1" fill="#2BA137" />
<rect x="23" y="19" width="2" height="2" fill="#217747" />
<rect x="36" y="19" width="4" height="1" fill="#003A32" />
<rect x="13" y="20" width="2" height="1" fill="#B1F542" />
<rect x="15" y="20" width="2" height="1" fill="#217747" />
<rect x="20" y="20" width="1" height="3" fill="#2BA137" />
<rect x="21" y="20" width="2" height="1" fill="#B1F542" />
<rect x="32" y="20" width="4" height="1" fill="#003A32" />
<rect x="36" y="20" width="4" height="1" fill="#2BA137" />
<rect x="40" y="20" width="1" height="1" fill="#003A32" />
<rect x="11" y="21" width="1" height="1" fill="#003A32" />
<rect x="12" y="21" width="2" height="1" fill="#2BA137" />
<rect x="14" y="21" width="1" height="2" fill="#B1F542" />
<rect x="15" y="21" width="1" height="1" fill="#217747" />
<rect x="16" y="21" width="2" height="2" fill="#B1F542" />
<rect x="21" y="21" width="1" height="2" fill="#B1F542" />
<rect x="22" y="21" width="2" height="1" fill="#217747" />
<rect x="24" y="21" width="1" height="2" fill="#003A32" />
<rect x="31" y="21" width="1" height="4" fill="#003A32" />
<rect x="32" y="21" width="6" height="1" fill="#217747" />
<rect x="38" y="21" width="3" height="1" fill="#B1F542" />
<rect x="41" y="21" width="1" height="5" fill="#003A32" />
<rect x="11" y="22" width="2" height="1" fill="#2BA137" />
<rect x="13" y="22" width="1" height="1" fill="#B1F542" />
<rect x="15" y="22" width="1" height="2" fill="#2BA137" />
<rect x="19" y="22" width="1" height="3" fill="#B1F542" />
<rect x="22" y="22" width="1" height="2" fill="#217747" />
<rect x="23" y="22" width="1" height="1" fill="#003A32" />
<rect x="32" y="22" width="1" height="4" fill="#217747" />
<rect x="33" y="22" width="1" height="2" fill="#2BA137" />
<rect x="34" y="22" width="1" height="1" fill="#217747" />
<rect x="35" y="22" width="2" height="2" fill="#B1F542" />
<rect x="37" y="22" width="2" height="1" fill="#217747" />
<rect x="39" y="22" width="2" height="1" fill="#B1F542" />
<rect x="44" y="22" width="2" height="1" fill="#217747" />
<rect x="11" y="23" width="1" height="2" fill="#003A32" />
<rect x="12" y="23" width="1" height="1" fill="#B1F542" />
<rect x="13" y="23" width="2" height="1" fill="#2BA137" />
<rect x="16" y="23" width="1" height="4" fill="#2BA137" />
<rect x="17" y="23" width="1" height="3" fill="#B1F542" />
<rect x="20" y="23" width="2" height="1" fill="#217747" />
<rect x="25" y="23" width="1" height="2" fill="#003A32" />
<rect x="34" y="23" width="1" height="2" fill="#B1F542" />
<rect x="37" y="23" width="1" height="1" fill="#2BA137" />
<rect x="38" y="23" width="1" height="2" fill="#217747" />
<rect x="39" y="23" width="1" height="1" fill="#2BA137" />
<rect x="40" y="23" width="1" height="1" fill="#B1F542" />
<rect x="44" y="23" width="1" height="1" fill="#217747" />
<rect x="46" y="23" width="2" height="1" fill="#217747" />
<rect x="12" y="24" width="2" height="1" fill="#2BA137" />
<rect x="14" y="24" width="2" height="3" fill="#B1F542" />
<rect x="20" y="24" width="2" height="1" fill="#003A32" />
<rect x="33" y="24" width="1" height="2" fill="#B1F542" />
<rect x="35" y="24" width="1" height="1" fill="#B1F542" />
<rect x="36" y="24" width="1" height="2" fill="#2BA137" />
<rect x="37" y="24" width="1" height="1" fill="#217747" />
<rect x="39" y="24" width="1" height="2" fill="#B1F542" />
<rect x="40" y="24" width="1" height="1" fill="#2BA137" />
<rect x="47" y="24" width="1" height="2" fill="#217747" />
<rect x="12" y="25" width="1" height="5" fill="#003A32" />
<rect x="13" y="25" width="1" height="1" fill="#2BA137" />
<rect x="19" y="25" width="1" height="1" fill="#003A32" />
<rect x="26" y="25" width="1" height="1" fill="#003A32" />
<rect x="34" y="25" width="1" height="3" fill="#217747" />
<rect x="35" y="25" width="1" height="2" fill="#2BA137" />
<rect x="37" y="25" width="1" height="3" fill="#B1F542" />
<rect x="38" y="25" width="1" height="1" fill="#2BA137" />
<rect x="40" y="25" width="1" height="1" fill="#B1F542" />
<rect x="46" y="25" width="1" height="1" fill="#217747" />
<rect x="13" y="26" width="1" height="1" fill="#B1F542" />
<rect x="17" y="26" width="2" height="1" fill="#003A32" />
<rect x="26" y="26" width="1" height="1" fill="#217747" />
<rect x="33" y="26" width="1" height="8" fill="#003A32" />
<rect x="36" y="26" width="1" height="2" fill="#B1F542" />
<rect x="38" y="26" width="1" height="2" fill="#B1F542" />
<rect x="39" y="26" width="1" height="2" fill="#2BA137" />
<rect x="40" y="26" width="1" height="4" fill="#003A32" />
<rect x="45" y="26" width="1" height="1" fill="#217747" />
<rect x="13" y="27" width="2" height="1" fill="#2BA137" />
<rect x="15" y="27" width="2" height="1" fill="#003A32" />
<rect x="27" y="27" width="1" height="2" fill="#217747" />
<rect x="30" y="27" width="3" height="1" fill="#003A32" />
<rect x="35" y="27" width="1" height="2" fill="#217747" />
<rect x="43" y="27" width="2" height="1" fill="#217747" />
<rect x="13" y="28" width="2" height="1" fill="#003A32" />
<rect x="18" y="28" width="1" height="1" fill="#217747" />
<rect x="19" y="28" width="2" height="1" fill="#003A32" />
<rect x="29" y="28" width="3" height="1" fill="#003A32" />
<rect x="32" y="28" width="1" height="3" fill="#B1F542" />
<rect x="34" y="28" width="1" height="1" fill="#003A32" />
<rect x="36" y="28" width="1" height="2" fill="#217747" />
<rect x="37" y="28" width="2" height="1" fill="#2BA137" />
<rect x="39" y="28" width="1" height="1" fill="#B1F542" />
<rect x="42" y="28" width="2" height="1" fill="#217747" />
<rect x="47" y="28" width="2" height="1" fill="#003A32" />
<rect x="17" y="29" width="1" height="1" fill="#217747" />
<rect x="21" y="29" width="3" height="1" fill="#003A32" />
<rect x="25" y="29" width="1" height="2" fill="#217747" />
<rect x="26" y="29" width="4" height="1" fill="#003A32" />
<rect x="30" y="29" width="1" height="1" fill="#217747" />
<rect x="31" y="29" width="1" height="1" fill="#003A32" />
<rect x="35" y="29" width="1" height="2" fill="#003A32" />
<rect x="37" y="29" width="2" height="1" fill="#B1F542" />
<rect x="39" y="29" width="1" height="1" fill="#2BA137" />
<rect x="41" y="29" width="2" height="1" fill="#217747" />
<rect x="45" y="29" width="2" height="1" fill="#003A32" />
<rect x="47" y="29" width="1" height="1" fill="#2BA137" />
<rect x="48" y="29" width="1" height="2" fill="#B1F542" />
<rect x="49" y="29" width="1" height="1" fill="#003A32" />
<rect x="16" y="30" width="1" height="4" fill="#217747" />
<rect x="20" y="30" width="1" height="1" fill="#003A32" />
<rect x="21" y="30" width="3" height="1" fill="#217747" />
<rect x="24" y="30" width="1" height="4" fill="#003A32" />
<rect x="26" y="30" width="3" height="1" fill="#217747" />
<rect x="29" y="30" width="2" height="1" fill="#003A32" />
<rect x="31" y="30" width="1" height="2" fill="#2BA137" />
<rect x="36" y="30" width="2" height="1" fill="#2BA137" />
<rect x="38" y="30" width="1" height="1" fill="#B1F542" />
<rect x="39" y="30" width="1" height="1" fill="#003A32" />
<rect x="41" y="30" width="1" height="1" fill="#217747" />
<rect x="45" y="30" width="1" height="1" fill="#003A32" />
<rect x="46" y="30" width="1" height="4" fill="#217747" />
<rect x="47" y="30" width="1" height="3" fill="#B1F542" />
<rect x="49" y="30" width="1" height="1" fill="#2BA137" />
<rect x="50" y="30" width="1" height="3" fill="#003A32" />
<rect x="19" y="31" width="1" height="2" fill="#003A32" />
<rect x="20" y="31" width="2" height="1" fill="#217747" />
<rect x="22" y="31" width="2" height="2" fill="#B1F542" />
<rect x="25" y="31" width="2" height="2" fill="#B1F542" />
<rect x="27" y="31" width="1" height="1" fill="#217747" />
<rect x="28" y="31" width="1" height="1" fill="#2BA137" />
<rect x="29" y="31" width="1" height="3" fill="#003A32" />
<rect x="30" y="31" width="1" height="1" fill="#B1F542" />
<rect x="32" y="31" width="1" height="1" fill="#2BA137" />
<rect x="35" y="31" width="3" height="1" fill="#217747" />
<rect x="38" y="31" width="1" height="1" fill="#003A32" />
<rect x="41" y="31" width="1" height="1" fill="#003A32" />
<rect x="43" y="31" width="3" height="1" fill="#217747" />
<rect x="48" y="31" width="1" height="2" fill="#2BA137" />
<rect x="49" y="31" width="1" height="1" fill="#B1F542" />
<rect x="20" y="32" width="1" height="1" fill="#217747" />
<rect x="21" y="32" width="1" height="2" fill="#B1F542" />
<rect x="27" y="32" width="1" height="1" fill="#B1F542" />
<rect x="28" y="32" width="1" height="4" fill="#003A32" />
<rect x="30" y="32" width="1" height="2" fill="#2BA137" />
<rect x="31" y="32" width="2" height="1" fill="#B1F542" />
<rect x="35" y="32" width="1" height="3" fill="#217747" />
<rect x="37" y="32" width="1" height="1" fill="#003A32" />
<rect x="40" y="32" width="1" height="1" fill="#003A32" />
<rect x="41" y="32" width="1" height="4" fill="#217747" />
<rect x="42" y="32" width="1" height="1" fill="#003A32" />
<rect x="43" y="32" width="1" height="1" fill="#217747" />
<rect x="45" y="32" width="1" height="1" fill="#003A32" />
<rect x="49" y="32" width="1" height="1" fill="#2BA137" />
<rect x="13" y="33" width="1" height="1" fill="#003A32" />
<rect x="20" y="33" width="1" height="2" fill="#003A32" />
<rect x="22" y="33" width="2" height="2" fill="#2BA137" />
<rect x="25" y="33" width="3" height="1" fill="#2BA137" />
<rect x="31" y="33" width="1" height="1" fill="#B1F542" />
<rect x="32" y="33" width="1" height="1" fill="#2BA137" />
<rect x="38" y="33" width="2" height="1" fill="#003A32" />
<rect x="40" y="33" width="1" height="1" fill="#217747" />
<rect x="42" y="33" width="1" height="4" fill="#B1F542" />
<rect x="43" y="33" width="1" height="4" fill="#003A32" />
<rect x="47" y="33" width="1" height="1" fill="#217747" />
<rect x="48" y="33" width="3" height="1" fill="#B1F542" />
<rect x="51" y="33" width="1" height="7" fill="#003A32" />
<rect x="12" y="34" width="1" height="2" fill="#003A32" />
<rect x="13" y="34" width="1" height="1" fill="#B1F542" />
<rect x="14" y="34" width="1" height="1" fill="#003A32" />
<rect x="15" y="34" width="1" height="1" fill="#217747" />
<rect x="16" y="34" width="2" height="1" fill="#003A32" />
<rect x="21" y="34" width="1" height="1" fill="#217747" />
<rect x="24" y="34" width="2" height="1" fill="#B1F542" />
<rect x="26" y="34" width="2" height="1" fill="#2BA137" />
<rect x="30" y="34" width="1" height="1" fill="#003A32" />
<rect x="31" y="34" width="1" height="1" fill="#2BA137" />
<rect x="32" y="34" width="1" height="2" fill="#003A32" />
<rect x="37" y="34" width="1" height="2" fill="#003A32" />
<rect x="38" y="34" width="1" height="2" fill="#217747" />
<rect x="39" y="34" width="1" height="1" fill="#2BA137" />
<rect x="40" y="34" width="1" height="3" fill="#B1F542" />
<rect x="47" y="34" width="1" height="1" fill="#003A32" />
<rect x="48" y="34" width="1" height="1" fill="#217747" />
<rect x="49" y="34" width="2" height="1" fill="#B1F542" />
<rect x="13" y="35" width="2" height="1" fill="#2BA137" />
<rect x="15" y="35" width="1" height="1" fill="#003A32" />
<rect x="16" y="35" width="1" height="1" fill="#2BA137" />
<rect x="17" y="35" width="1" height="2" fill="#217747" />
<rect x="18" y="35" width="1" height="2" fill="#003A32" />
<rect x="21" y="35" width="1" height="1" fill="#003A32" />
<rect x="22" y="35" width="1" height="1" fill="#217747" />
<rect x="23" y="35" width="2" height="1" fill="#B1F542" />
<rect x="25" y="35" width="1" height="3" fill="#2BA137" />
<rect x="26" y="35" width="1" height="1" fill="#B1F542" />
<rect x="27" y="35" width="1" height="2" fill="#003A32" />
<rect x="31" y="35" width="1" height="1" fill="#003A32" />
<rect x="34" y="35" width="1" height="5" fill="#217747" />
<rect x="39" y="35" width="1" height="1" fill="#B1F542" />
<rect x="48" y="35" width="1" height="1" fill="#003A32" />
<rect x="49" y="35" width="1" height="1" fill="#217747" />
<rect x="50" y="35" width="1" height="2" fill="#2BA137" />
<rect x="13" y="36" width="1" height="4" fill="#003A32" />
<rect x="14" y="36" width="1" height="1" fill="#B1F542" />
<rect x="15" y="36" width="1" height="3" fill="#217747" />
<rect x="16" y="36" width="1" height="1" fill="#B1F542" />
<rect x="22" y="36" width="1" height="1" fill="#003A32" />
<rect x="23" y="36" width="1" height="1" fill="#B1F542" />
<rect x="24" y="36" width="1" height="2" fill="#2BA137" />
<rect x="26" y="36" width="1" height="1" fill="#2BA137" />
<rect x="28" y="36" width="1" height="1" fill="#4A1A3B" />
<rect x="29" y="36" width="1" height="2" fill="#003A32" />
<rect x="30" y="36" width="2" height="1" fill="#4A1A3B" />
<rect x="32" y="36" width="1" height="1" fill="#1F7044" />
<rect x="33" y="36" width="1" height="1" fill="#4A1A3B" />
<rect x="35" y="36" width="3" height="1" fill="#4A1A3B" />
<rect x="38" y="36" width="1" height="1" fill="#003A32" />
<rect x="39" y="36" width="1" height="1" fill="#217747" />
<rect x="41" y="36" width="1" height="2" fill="#2BA137" />
<rect x="49" y="36" width="1" height="1" fill="#003A32" />
<rect x="14" y="37" width="1" height="1" fill="#2BA137" />
<rect x="16" y="37" width="1" height="1" fill="#217747" />
<rect x="17" y="37" width="1" height="1" fill="#003A32" />
<rect x="20" y="37" width="2" height="1" fill="#4A1A3B" />
<rect x="22" y="37" width="1" height="1" fill="#FDA1AC" />
<rect x="23" y="37" width="1" height="1" fill="#003A32" />
<rect x="26" y="37" width="1" height="1" fill="#003A32" />
<rect x="27" y="37" width="2" height="1" fill="#FDA1AC" />
<rect x="30" y="37" width="2" height="1" fill="#FDA1AC" />
<rect x="32" y="37" width="1" height="3" fill="#217747" />
<rect x="33" y="37" width="1" height="1" fill="#FDA1AC" />
<rect x="35" y="37" width="2" height="1" fill="#FDA1AC" />
<rect x="37" y="37" width="1" height="1" fill="#217747" />
<rect x="38" y="37" width="1" height="1" fill="#FDA1AC" />
<rect x="39" y="37" width="1" height="1" fill="#003A32" />
<rect x="40" y="37" width="1" height="1" fill="#217747" />
<rect x="42" y="37" width="1" height="3" fill="#003A32" />
<rect x="43" y="37" width="2" height="1" fill="#4A1A3B" />
<rect x="49" y="37" width="1" height="4" fill="#217747" />
<rect x="50" y="37" width="1" height="1" fill="#003A32" />
<rect x="14" y="38" width="1" height="2" fill="#B1F542" />
<rect x="16" y="38" width="1" height="1" fill="#003A32" />
<rect x="18" y="38" width="2" height="1" fill="#4A1A3B" />
<rect x="20" y="38" width="2" height="1" fill="#FDA1AC" />
<rect x="22" y="38" width="1" height="1" fill="#6D244C" />
<rect x="23" y="38" width="1" height="1" fill="#762750" />
<rect x="24" y="38" width="1" height="1" fill="#217747" />
<rect x="25" y="38" width="1" height="1" fill="#003A32" />
<rect x="26" y="38" width="3" height="1" fill="#774655" />
<rect x="29" y="38" width="1" height="2" fill="#217747" />
<rect x="30" y="38" width="2" height="1" fill="#774655" />
<rect x="33" y="38" width="1" height="1" fill="#774655" />
<rect x="35" y="38" width="1" height="1" fill="#774655" />
<rect x="36" y="38" width="1" height="1" fill="#217747" />
<rect x="37" y="38" width="3" height="1" fill="#774655" />
<rect x="40" y="38" width="1" height="1" fill="#003A32" />
<rect x="41" y="38" width="1" height="1" fill="#B1F542" />
<rect x="43" y="38" width="1" height="1" fill="#217747" />
<rect x="44" y="38" width="1" height="1" fill="#3F183D" />
<rect x="45" y="38" width="1" height="1" fill="#3D193A" />
<rect x="46" y="38" width="1" height="1" fill="#361632" />
<rect x="15" y="39" width="1" height="1" fill="#003A32" />
<rect x="17" y="39" width="1" height="1" fill="#4D1A39" />
<rect x="18" y="39" width="1" height="1" fill="#EA6184" />
<rect x="19" y="39" width="1" height="1" fill="#FEF1D5" />
<rect x="20" y="39" width="1" height="1" fill="#E7567D" />
<rect x="21" y="39" width="1" height="1" fill="#763046" />
<rect x="22" y="39" width="1" height="1" fill="#4F1E31" />
<rect x="23" y="39" width="1" height="1" fill="#051922" />
<rect x="24" y="39" width="1" height="1" fill="#003A32" />
<rect x="25" y="39" width="1" height="1" fill="#217747" />
<rect x="26" y="39" width="3" height="1" fill="#051922" />
<rect x="30" y="39" width="2" height="1" fill="#4F1E31" />
<rect x="33" y="39" width="1" height="1" fill="#4F1E31" />
<rect x="35" y="39" width="1" height="1" fill="#217747" />
<rect x="36" y="39" width="3" height="1" fill="#051922" />
<rect x="39" y="39" width="1" height="1" fill="#071923" />
<rect x="40" y="39" width="1" height="1" fill="#195936" />
<rect x="41" y="39" width="1" height="1" fill="#003A32" />
<rect x="43" y="39" width="1" height="1" fill="#EA517B" />
<rect x="44" y="39" width="1" height="1" fill="#DD5178" />
<rect x="45" y="39" width="1" height="1" fill="#FDA1AC" />
<rect x="46" y="39" width="1" height="1" fill="#E86A8F" />
<rect x="47" y="39" width="1" height="1" fill="#4C1C3E" />
<rect x="14" y="40" width="1" height="1" fill="#003A32" />
<rect x="15" y="40" width="1" height="1" fill="#217747" />
<rect x="17" y="40" width="1" height="1" fill="#4F1A3C" />
<rect x="18" y="40" width="1" height="1" fill="#E76688" />
<rect x="19" y="40" width="1" height="1" fill="#E86383" />
<rect x="20" y="40" width="1" height="1" fill="#FC9EAA" />
<rect x="21" y="40" width="1" height="1" fill="#FCEDC6" />
<rect x="22" y="40" width="1" height="1" fill="#FCECC6" />
<rect x="23" y="40" width="1" height="1" fill="#EB4D76" />
<rect x="24" y="40" width="1" height="1" fill="#E44A71" />
<rect x="25" y="40" width="1" height="1" fill="#E74D6F" />
<rect x="26" y="40" width="2" height="1" fill="#195936" />
<rect x="28" y="40" width="2" height="1" fill="#051922" />
<rect x="30" y="40" width="1" height="1" fill="#195936" />
<rect x="31" y="40" width="1" height="1" fill="#051922" />
<rect x="32" y="40" width="1" height="1" fill="#195936" />
<rect x="33" y="40" width="1" height="1" fill="#051922" />
<rect x="34" y="40" width="2" height="1" fill="#195936" />
<rect x="36" y="40" width="1" height="1" fill="#42172E" />
<rect x="37" y="40" width="1" height="1" fill="#521F33" />
<rect x="38" y="40" width="1" height="1" fill="#774655" />
<rect x="39" y="40" width="1" height="1" fill="#EE5272" />
<rect x="40" y="40" width="1" height="1" fill="#EC5473" />
<rect x="41" y="40" width="1" height="1" fill="#FEEFD3" />
<rect x="42" y="40" width="1" height="1" fill="#FBEFC5" />
<rect x="43" y="40" width="1" height="1" fill="#FCEECA" />
<rect x="44" y="40" width="1" height="1" fill="#FD9BA8" />
<rect x="45" y="40" width="1" height="1" fill="#EA6484" />
<rect x="46" y="40" width="1" height="1" fill="#E9688C" />
<rect x="47" y="40" width="1" height="1" fill="#4A1A3B" />
<rect x="14" y="41" width="1" height="1" fill="#217747" />
<rect x="17" y="41" width="1" height="1" fill="#501B3D" />
<rect x="18" y="41" width="1" height="1" fill="#E8668A" />
<rect x="19" y="41" width="1" height="1" fill="#EA6686" />
<rect x="20" y="41" width="1" height="1" fill="#FD9DA9" />
<rect x="21" y="41" width="1" height="1" fill="#FD9EAA" />
<rect x="22" y="41" width="1" height="2" fill="#FC9DA9" />
<rect x="23" y="41" width="1" height="2" fill="#FDA1AC" />
<rect x="24" y="41" width="1" height="1" fill="#F7B4B0" />
<rect x="25" y="41" width="1" height="1" fill="#F6B5AC" />
<rect x="26" y="41" width="1" height="1" fill="#FCEBC4" />
<rect x="27" y="41" width="1" height="1" fill="#FCEAC5" />
<rect x="28" y="41" width="1" height="1" fill="#FCEAC4" />
<rect x="29" y="41" width="1" height="1" fill="#FBEAC0" />
<rect x="30" y="41" width="1" height="1" fill="#FCEAC1" />
<rect x="31" y="41" width="1" height="1" fill="#FCEBC5" />
<rect x="32" y="41" width="1" height="1" fill="#FCECC7" />
<rect x="33" y="41" width="1" height="1" fill="#FCEBC6" />
<rect x="34" y="41" width="2" height="1" fill="#FBEAC5" />
<rect x="36" y="41" width="1" height="1" fill="#FBEBC3" />
<rect x="37" y="41" width="1" height="1" fill="#FCEBC4" />
<rect x="38" y="41" width="3" height="2" fill="#FDA1AC" />
<rect x="41" y="41" width="1" height="1" fill="#FB9EA8" />
<rect x="42" y="41" width="1" height="1" fill="#FC9DA8" />
<rect x="43" y="41" width="1" height="1" fill="#FD9CA8" />
<rect x="44" y="41" width="1" height="1" fill="#FD9AA7" />
<rect x="45" y="41" width="1" height="1" fill="#EA6585" />
<rect x="46" y="41" width="1" height="1" fill="#E8668A" />
<rect x="47" y="41" width="1" height="1" fill="#4C1B3C" />
<rect x="50" y="41" width="2" height="1" fill="#217747" />
<rect x="54" y="41" width="1" height="1" fill="#217747" />
<rect x="13" y="42" width="1" height="1" fill="#217747" />
<rect x="17" y="42" width="1" height="1" fill="#4F1A3D" />
<rect x="18" y="42" width="1" height="1" fill="#EA6187" />
<rect x="19" y="42" width="1" height="1" fill="#EC6587" />
<rect x="20" y="42" width="1" height="1" fill="#FD9BA8" />
<rect x="21" y="42" width="1" height="1" fill="#FC9CA8" />
<rect x="24" y="42" width="2" height="1" fill="#FDA1AC" />
<rect x="26" y="42" width="1" height="1" fill="#FD9BA8" />
<rect x="27" y="42" width="1" height="1" fill="#FD9CA9" />
<rect x="28" y="42" width="2" height="1" fill="#FD9DA9" />
<rect x="30" y="42" width="1" height="1" fill="#FC9EA9" />
<rect x="31" y="42" width="1" height="1" fill="#FC9FAA" />
<rect x="32" y="42" width="1" height="5" fill="#FDA1AC" />
<rect x="33" y="42" width="1" height="1" fill="#FDA2AD" />
<rect x="34" y="42" width="1" height="1" fill="#FDA2AC" />
<rect x="35" y="42" width="1" height="1" fill="#FDA0AA" />
<rect x="36" y="42" width="2" height="2" fill="#FDA1AC" />
<rect x="41" y="42" width="2" height="1" fill="#FD9FAA" />
<rect x="43" y="42" width="1" height="2" fill="#FD9DA9" />
<rect x="44" y="42" width="1" height="1" fill="#FD9BA8" />
<rect x="45" y="42" width="1" height="1" fill="#EB6285" />
<rect x="46" y="42" width="1" height="1" fill="#E8638A" />
<rect x="47" y="42" width="1" height="1" fill="#4D1B3E" />
<rect x="52" y="42" width="2" height="1" fill="#217747" />
<rect x="9" y="43" width="4" height="1" fill="#217747" />
<rect x="18" y="43" width="1" height="1" fill="#48193B" />
<rect x="19" y="43" width="1" height="1" fill="#ED6C89" />
<rect x="20" y="43" width="1" height="1" fill="#E96785" />
<rect x="21" y="43" width="1" height="1" fill="#FC9BA8" />
<rect x="22" y="43" width="1" height="4" fill="#FDA1AC" />
<rect x="23" y="43" width="1" height="1" fill="#3D1637" />
<rect x="24" y="43" width="1" height="1" fill="#4E1E3A" />
<rect x="25" y="43" width="1" height="1" fill="#351535" />
<rect x="26" y="43" width="1" height="1" fill="#341334" />
<rect x="27" y="43" width="5" height="1" fill="#FDA1AC" />
<rect x="33" y="43" width="3" height="4" fill="#FDA1AC" />
<rect x="38" y="43" width="1" height="1" fill="#47183C" />
<rect x="39" y="43" width="1" height="1" fill="#49193F" />
<rect x="40" y="43" width="2" height="1" fill="#3D1637" />
<rect x="42" y="43" width="1" height="1" fill="#FC9EAA" />
<rect x="44" y="43" width="1" height="1" fill="#EB6A87" />
<rect x="45" y="43" width="1" height="1" fill="#EF698B" />
<rect x="46" y="43" width="1" height="1" fill="#43193A" />
<rect x="8" y="44" width="1" height="1" fill="#217747" />
<rect x="18" y="44" width="1" height="1" fill="#47183A" />
<rect x="19" y="44" width="1" height="1" fill="#E96A87" />
<rect x="20" y="44" width="1" height="1" fill="#EA6786" />
<rect x="21" y="44" width="1" height="1" fill="#FC9BA7" />
<rect x="23" y="44" width="1" height="1" fill="#FDA1AC" />
<rect x="24" y="44" width="1" height="1" fill="#10112A" />
<rect x="25" y="44" width="2" height="1" fill="#FEFEFE" />
<rect x="27" y="44" width="1" height="1" fill="#40173B" />
<rect x="28" y="44" width="1" height="1" fill="#3D1637" />
<rect x="29" y="44" width="3" height="3" fill="#FDA1AC" />
<rect x="36" y="44" width="1" height="1" fill="#3D1637" />
<rect x="37" y="44" width="1" height="1" fill="#1D0F29" />
<rect x="38" y="44" width="2" height="1" fill="#FEFEFE" />
<rect x="40" y="44" width="1" height="1" fill="#461A3F" />
<rect x="41" y="44" width="2" height="3" fill="#FDA1AC" />
<rect x="43" y="44" width="1" height="2" fill="#FD9EAA" />
<rect x="44" y="44" width="1" height="1" fill="#EC6988" />
<rect x="45" y="44" width="1" height="1" fill="#EB688B" />
<rect x="46" y="44" width="1" height="1" fill="#3F1637" />
<rect x="18" y="45" width="1" height="1" fill="#441838" />
<rect x="19" y="45" width="1" height="1" fill="#E96886" />
<rect x="20" y="45" width="1" height="1" fill="#EA6787" />
<rect x="21" y="45" width="1" height="1" fill="#FC9BA8" />
<rect x="23" y="45" width="1" height="1" fill="#8B4B64" />
<rect x="24" y="45" width="1" height="1" fill="#100E27" />
<rect x="25" y="45" width="1" height="1" fill="#0B1128" />
<rect x="26" y="45" width="1" height="1" fill="#0B1027" />
<rect x="27" y="45" width="1" height="1" fill="#40163B" />
<rect x="28" y="45" width="1" height="5" fill="#FDA1AC" />
<rect x="36" y="45" width="1" height="7" fill="#FDA1AC" />
<rect x="37" y="45" width="1" height="1" fill="#291433" />
<rect x="38" y="45" width="1" height="1" fill="#0A1128" />
<rect x="39" y="45" width="1" height="1" fill="#0B1126" />
<rect x="40" y="45" width="1" height="1" fill="#45193E" />
<rect x="44" y="45" width="1" height="1" fill="#EB6886" />
<rect x="45" y="45" width="1" height="1" fill="#EA6789" />
<rect x="46" y="45" width="1" height="1" fill="#3D1536" />
<rect x="18" y="46" width="1" height="1" fill="#441839" />
<rect x="19" y="46" width="1" height="1" fill="#EA6786" />
<rect x="20" y="46" width="1" height="1" fill="#EB6787" />
<rect x="21" y="46" width="1" height="1" fill="#FC9AA8" />
<rect x="23" y="46" width="1" height="1" fill="#7A445B" />
<rect x="24" y="46" width="1" height="1" fill="#151029" />
<rect x="25" y="46" width="1" height="1" fill="#06071C" />
<rect x="26" y="46" width="1" height="1" fill="#0A0F27" />
<rect x="27" y="46" width="1" height="1" fill="#41173C" />
<rect x="37" y="46" width="1" height="1" fill="#2C1635" />
<rect x="38" y="46" width="1" height="1" fill="#080E26" />
<rect x="39" y="46" width="1" height="1" fill="#0A1027" />
<rect x="40" y="46" width="1" height="1" fill="#44173C" />
<rect x="43" y="46" width="1" height="1" fill="#FD9DAA" />
<rect x="44" y="46" width="1" height="1" fill="#EB6686" />
<rect x="45" y="46" width="1" height="1" fill="#EB6588" />
<rect x="46" y="46" width="1" height="1" fill="#3F1535" />
<rect x="18" y="47" width="1" height="1" fill="#46193C" />
<rect x="19" y="47" width="1" height="1" fill="#E96584" />
<rect x="20" y="47" width="1" height="1" fill="#EB6788" />
<rect x="21" y="47" width="1" height="1" fill="#FD99A7" />
<rect x="22" y="47" width="1" height="1" fill="#FB5B6B" />
<rect x="23" y="47" width="1" height="1" fill="#F35B6D" />
<rect x="24" y="47" width="1" height="1" fill="#FB5768" />
<rect x="25" y="47" width="1" height="1" fill="#0A102B" />
<rect x="26" y="47" width="1" height="1" fill="#0C0E27" />
<rect x="27" y="47" width="1" height="4" fill="#FDA1AC" />
<rect x="29" y="47" width="5" height="1" fill="#3D1637" />
<rect x="34" y="47" width="2" height="1" fill="#FDA1AC" />
<rect x="37" y="47" width="1" height="5" fill="#FDA1AC" />
<rect x="38" y="47" width="1" height="1" fill="#0C0F27" />
<rect x="39" y="47" width="1" height="1" fill="#D64D67" />
<rect x="40" y="47" width="1" height="1" fill="#FC5E6F" />
<rect x="41" y="47" width="1" height="1" fill="#FB6171" />
<rect x="42" y="47" width="1" height="1" fill="#F75C6E" />
<rect x="43" y="47" width="1" height="1" fill="#FD9CA9" />
<rect x="44" y="47" width="1" height="1" fill="#EC6786" />
<rect x="45" y="47" width="1" height="1" fill="#EB6186" />
<rect x="46" y="47" width="1" height="1" fill="#411836" />
<rect x="19" y="48" width="1" height="1" fill="#351435" />
<rect x="20" y="48" width="1" height="1" fill="#EA6788" />
<rect x="21" y="48" width="1" height="1" fill="#E3607F" />
<rect x="22" y="48" width="1" height="1" fill="#FC5A68" />
<rect x="23" y="48" width="1" height="1" fill="#FC5A6B" />
<rect x="24" y="48" width="1" height="1" fill="#FC5B6B" />
<rect x="25" y="48" width="2" height="3" fill="#FDA1AC" />
<rect x="29" y="48" width="1" height="1" fill="#3D1637" />
<rect x="30" y="48" width="4" height="2" fill="#FDA1AC" />
<rect x="34" y="48" width="1" height="1" fill="#3D1637" />
<rect x="35" y="48" width="1" height="4" fill="#FDA1AC" />
<rect x="38" y="48" width="1" height="4" fill="#FDA1AC" />
<rect x="39" y="48" width="1" height="1" fill="#F65768" />
<rect x="40" y="48" width="1" height="1" fill="#FD5C6D" />
<rect x="41" y="48" width="1" height="1" fill="#FD5E6E" />
<rect x="42" y="48" width="1" height="1" fill="#FC596C" />
<rect x="43" y="48" width="1" height="1" fill="#E76788" />
<rect x="44" y="48" width="1" height="1" fill="#EC6785" />
<rect x="45" y="48" width="1" height="1" fill="#341233" />
<rect x="19" y="49" width="1" height="1" fill="#371738" />
<rect x="20" y="49" width="1" height="1" fill="#EA6383" />
<rect x="21" y="49" width="1" height="1" fill="#E95F82" />
<rect x="22" y="49" width="1" height="1" fill="#FE9FAC" />
<rect x="23" y="49" width="2" height="1" fill="#FC5B6A" />
<rect x="29" y="49" width="1" height="1" fill="#FDA1AC" />
<rect x="34" y="49" width="1" height="2" fill="#FDA1AC" />
<rect x="39" y="49" width="1" height="1" fill="#F45968" />
<rect x="40" y="49" width="1" height="1" fill="#FC5B6B" />
<rect x="41" y="49" width="1" height="1" fill="#FB5F6E" />
<rect x="42" y="49" width="1" height="1" fill="#FEA1B0" />
<rect x="43" y="49" width="1" height="1" fill="#EA6384" />
<rect x="44" y="49" width="1" height="1" fill="#EC6787" />
<rect x="45" y="49" width="1" height="1" fill="#371635" />
<rect x="20" y="50" width="1" height="1" fill="#25102E" />
<rect x="21" y="50" width="1" height="1" fill="#E95E81" />
<rect x="22" y="50" width="1" height="1" fill="#E66080" />
<rect x="23" y="50" width="1" height="1" fill="#FD9BA9" />
<rect x="24" y="50" width="1" height="1" fill="#FD9DA9" />
<rect x="28" y="50" width="2" height="1" fill="#FC9EAA" />
<rect x="30" y="50" width="1" height="1" fill="#FD9FAA" />
<rect x="31" y="50" width="1" height="1" fill="#FDA1AC" />
<rect x="32" y="50" width="1" height="1" fill="#FDA2AD" />
<rect x="33" y="50" width="1" height="1" fill="#FDA1AC" />
<rect x="39" y="50" width="2" height="1" fill="#FDA1AC" />
<rect x="41" y="50" width="1" height="1" fill="#FD9FAB" />
<rect x="42" y="50" width="1" height="1" fill="#E85C80" />
<rect x="43" y="50" width="1" height="1" fill="#EA5F82" />
<rect x="44" y="50" width="1" height="1" fill="#2F1332" />
<rect x="21" y="51" width="1" height="1" fill="#381630" />
<rect x="22" y="51" width="1" height="1" fill="#E75C7F" />
<rect x="23" y="51" width="1" height="1" fill="#EC708A" />
<rect x="24" y="51" width="1" height="1" fill="#FD9CA9" />
<rect x="25" y="51" width="1" height="1" fill="#FD9DA9" />
<rect x="26" y="51" width="1" height="1" fill="#FD9EAB" />
<rect x="27" y="51" width="3" height="1" fill="#FD9FAB" />
<rect x="30" y="51" width="1" height="1" fill="#FDA0AC" />
<rect x="31" y="51" width="1" height="1" fill="#FDA2AD" />
<rect x="32" y="51" width="1" height="1" fill="#FDA1AC" />
<rect x="33" y="51" width="1" height="1" fill="#FD9FAB" />
<rect x="34" y="51" width="1" height="1" fill="#FDA0AB" />
<rect x="39" y="51" width="1" height="1" fill="#FDA1AC" />
<rect x="40" y="51" width="1" height="1" fill="#FD9DAA" />
<rect x="41" y="51" width="1" height="1" fill="#E95A7F" />
<rect x="42" y="51" width="1" height="1" fill="#E75C7F" />
<rect x="43" y="51" width="1" height="1" fill="#3C142C" />
<rect x="22" y="52" width="1" height="1" fill="#160D23" />
<rect x="23" y="52" width="1" height="1" fill="#E85C84" />
<rect x="24" y="52" width="1" height="1" fill="#E4587C" />
<rect x="25" y="52" width="1" height="1" fill="#E25679" />
<rect x="26" y="52" width="1" height="1" fill="#F7879F" />
<rect x="27" y="52" width="1" height="1" fill="#FA96A8" />
<rect x="28" y="52" width="1" height="1" fill="#FA95A7" />
<rect x="29" y="52" width="1" height="1" fill="#FB95A6" />
<rect x="30" y="52" width="1" height="1" fill="#FA93A5" />
<rect x="31" y="52" width="1" height="1" fill="#FB95A7" />
<rect x="32" y="52" width="1" height="1" fill="#FA94A6" />
<rect x="33" y="52" width="1" height="1" fill="#FB93A5" />
<rect x="34" y="52" width="1" height="1" fill="#FA94A6" />
<rect x="35" y="52" width="1" height="1" fill="#FA95A7" />
<rect x="36" y="52" width="1" height="1" fill="#F993A5" />
<rect x="37" y="52" width="1" height="1" fill="#F88AA2" />
<rect x="38" y="52" width="1" height="1" fill="#F6879D" />
<rect x="39" y="52" width="1" height="1" fill="#E4587B" />
<rect x="40" y="52" width="1" height="1" fill="#E4577A" />
<rect x="41" y="52" width="1" height="1" fill="#BA5273" />
<rect x="42" y="52" width="1" height="1" fill="#140C21" />
<rect x="23" y="53" width="1" height="1" fill="#141128" />
<rect x="24" y="53" width="1" height="1" fill="#181026" />
<rect x="25" y="53" width="1" height="1" fill="#181127" />
<rect x="26" y="53" width="1" height="1" fill="#E04A74" />
<rect x="27" y="53" width="1" height="1" fill="#EF7794" />
<rect x="28" y="53" width="1" height="1" fill="#ED7992" />
<rect x="29" y="53" width="1" height="1" fill="#ED7991" />
<rect x="30" y="53" width="1" height="1" fill="#ED7890" />
<rect x="31" y="53" width="1" height="1" fill="#EC778F" />
<rect x="32" y="53" width="1" height="1" fill="#EC758F" />
<rect x="33" y="53" width="1" height="1" fill="#ED7790" />
<rect x="34" y="53" width="1" height="1" fill="#EC7690" />
<rect x="35" y="53" width="1" height="1" fill="#EC7790" />
<rect x="36" y="53" width="1" height="1" fill="#EC7992" />
<rect x="37" y="53" width="1" height="1" fill="#DF4F76" />
<rect x="38" y="53" width="1" height="1" fill="#210B20" />
<rect x="39" y="53" width="1" height="1" fill="#181027" />
<rect x="40" y="53" width="1" height="1" fill="#191026" />
<rect x="41" y="53" width="1" height="1" fill="#181025" />
<rect x="26" y="54" width="1" height="1" fill="#371535" />
<rect x="27" y="54" width="1" height="1" fill="#3C1536" />
<rect x="28" y="54" width="1" height="1" fill="#3C1435" />
<rect x="29" y="54" width="1" height="1" fill="#3E1537" />
<rect x="30" y="54" width="1" height="1" fill="#3C1536" />
<rect x="31" y="54" width="1" height="1" fill="#3D1537" />
<rect x="32" y="54" width="1" height="1" fill="#3D1637" />
<rect x="33" y="54" width="2" height="1" fill="#3D1536" />
<rect x="35" y="54" width="1" height="1" fill="#3D1537" />
<rect x="36" y="54" width="1" height="1" fill="#3B1536" />
<rect x="37" y="54" width="1" height="1" fill="#381434" />
<rect x="38" y="54" width="1" height="1" fill="#4B1930" />
</svg>